<?xml version="1.0" encoding="UTF-8" standalone="no"?>
<svg
   xmlns:dc="http://purl.org/dc/elements/1.1/"
   xmlns:cc="http://creativecommons.org/ns#"
   xmlns:rdf="http://www.w3.org/1999/02/22-rdf-syntax-ns#"
   xmlns:svg="http://www.w3.org/2000/svg"
   xmlns="http://www.w3.org/2000/svg"
   xmlns:xlink="http://www.w3.org/1999/xlink"
   xmlns:sodipodi="http://sodipodi.sourceforge.net/DTD/sodipodi-0.dtd"
   xmlns:inkscape="http://www.inkscape.org/namespaces/inkscape"
   width="760"
   height="570"
   viewBox="0 0 201.08333 150.8125"
   version="1.1"
   id="svg8"
   inkscape:version="1.0 (4035a4fb49, 2020-05-01)"
   sodipodi:docname="thumb.svg">
  <defs
     id="defs2">
    <linearGradient
       gradientTransform="translate(-486.20644,210.58058)"
       inkscape:collect="always"
       xlink:href="#linearGradient846"
       id="linearGradient848"
       x1="123.36659"
       y1="265.80957"
       x2="123.36659"
       y2="341.21585"
       gradientUnits="userSpaceOnUse" />
    <linearGradient
       inkscape:collect="always"
       id="linearGradient846">
      <stop
         style="stop-color:#ececec;stop-opacity:1;"
         offset="0"
         id="stop842" />
      <stop
         style="stop-color:#ececec;stop-opacity:0;"
         offset="1"
         id="stop844" />
    </linearGradient>
  </defs>
  <sodipodi:namedview
     inkscape:snap-page="true"
     units="px"
     id="base"
     pagecolor="#ffffff"
     bordercolor="#666666"
     borderopacity="1.0"
     inkscape:pageopacity="0.0"
     inkscape:pageshadow="2"
     inkscape:zoom="1"
     inkscape:cx="392.01429"
     inkscape:cy="410.12746"
     inkscape:document-units="mm"
     inkscape:current-layer="layer1"
     inkscape:document-rotation="0"
     showgrid="false"
     fit-margin-top="20"
     fit-margin-left="20"
     fit-margin-right="20"
     fit-margin-bottom="20"
     inkscape:window-width="1668"
     inkscape:window-height="1378"
     inkscape:window-x="1607"
     inkscape:window-y="77"
     inkscape:window-maximized="0" />
  <metadata
     id="metadata5">
    <rdf:RDF>
      <cc:Work
         rdf:about="">
        <dc:format>image/svg+xml</dc:format>
        <dc:type
           rdf:resource="http://purl.org/dc/dcmitype/StillImage" />
        <dc:title></dc:title>
      </cc:Work>
    </rdf:RDF>
  </metadata>
  <g
     inkscape:label="Layer 1"
     inkscape:groupmode="layer"
     id="layer1"
     transform="translate(463.38152,-400.98389)">
    <rect
       y="400.98389"
       x="-463.38153"
       height="150.8125"
       width="201.08333"
       id="rect840"
       style="fill:url(#linearGradient848);fill-opacity:1;stroke-width:1;stroke-linecap:round;stroke-linejoin:round;stroke-dasharray:1, 2" />
    <circle
       r="14.434832"
       cy="453.89386"
       cx="-364.71252"
       id="path1165"
       style="fill:#ffffff;fill-opacity:1;stroke-width:1.14661;stroke-linecap:round;stroke-linejoin:round;stroke-dasharray:1.14661, 2.29323" />
    <g
       transform="translate(-81.310288)"
       id="g1162">
      <g
         id="g1074"
         transform="matrix(0.99731922,0,0,0.99731922,-226.15934,288.57912)">
        <g
           transform="matrix(1.3283938,0,0,1.3283938,59.051633,26.650262)"
           id="g1040">
          <path
             style="fill:#e97500;fill-opacity:1;stroke-width:0.0723935"
             d="m -89.959826,119.25047 c -5.012663,-0.60522 -9.300665,-3.23077 -11.824964,-7.24042 -0.44245,-0.70279 -1.1235,-2.17208 -1.372,-2.95996 -0.41844,-1.32664 -0.48541,-1.74862 -0.48541,-3.05864 0,-0.66693 -0.0237,-1.2126 -0.0527,-1.21259 -0.029,1e-5 -2.05336,1.63706 -4.49855,3.63788 -2.4452,2.00082 -4.653,3.76099 -4.90623,3.91148 -0.67658,0.40209 -1.1331,0.52253 -1.98066,0.52253 -0.6309,0 -0.77621,-0.0245 -1.13079,-0.19076 -0.84607,-0.39672 -1.35001,-1.0938 -1.41986,-1.96405 -0.0767,-0.95558 0.27592,-1.84374 1.05332,-2.65298 0.3141,-0.32695 3.27738,-2.64198 8.44711,-6.5992 4.37981,-3.352552 8.03558,-6.161055 8.12394,-6.241109 0.08836,-0.08005 0.142633,-0.174701 0.120618,-0.210328 -0.023,-0.03722 -2.049278,-0.0609 -4.757648,-0.05561 -4.27696,0.0083 -4.75141,-0.0022 -5.07957,-0.114678 -0.54052,-0.184898 -0.95217,-0.502339 -1.19866,-0.924321 -0.19744,-0.338008 -0.2173,-0.4272 -0.19665,-0.882751 0.0287,-0.63145 0.22207,-1.050276 0.71093,-1.539142 0.19783,-0.197835 0.54943,-0.460829 0.78132,-0.584415 0.87331,-0.465476 0.48171,-0.446418 9.17304,-0.446418 8.818661,0 10.57939,-0.03385 10.441003,-0.200554 -0.04811,-0.05799 -1.35905,-1.139979 -2.913239,-2.404495 -1.554189,-1.264516 -2.895287,-2.3766 -2.980213,-2.471299 -0.263504,-0.293814 -0.388534,-0.620267 -0.388534,-1.014451 0,-1.539665 2.283017,-2.519712 3.942923,-1.692619 0.349069,0.173932 14.027253,10.63398 15.211581,11.632671 2.489744,2.099498 4.185937,4.951382 4.821199,8.106119 0.142931,0.7098 0.16568,1.04456 0.166536,2.45093 8.65e-4,1.42078 -0.02053,1.73521 -0.167422,2.46139 -0.83949,4.14963 -3.428225,7.6488 -7.307835,9.87792 -1.811762,1.041 -4.266956,1.8233 -6.474743,2.06306 -0.812885,0.0883 -3.116145,0.0864 -3.857803,-0.003 z m 3.567655,-6.90409 c 2.106306,-0.31637 4.068549,-1.28033 5.504684,-2.70421 2.265429,-2.24609 3.075262,-5.18726 2.255988,-8.1934 -0.193949,-0.71165 -0.840199,-2.006081 -1.318868,-2.64168 -2.819936,-3.744417 -8.259116,-4.93908 -12.615627,-2.770897 -2.653975,1.320861 -4.455458,3.64534 -4.928961,6.359947 -0.169458,0.97148 -0.108683,2.3904 0.142956,3.33779 0.80829,3.04304 3.312657,5.4556 6.607839,6.36562 1.276061,0.35241 2.998575,0.4501 4.351989,0.24683 z"
             id="path861-5"
             sodipodi:nodetypes="ssssssssssssssscsssssssssssssssssssssssssss" />
          <path
             id="path959-2"
             d="m -88.456388,108.97539 c -2.220301,-0.23339 -4.050776,-1.47761 -4.949027,-3.36399 -1.265156,-2.6569 -0.0163,-5.788022 2.842898,-7.127906 0.920798,-0.431501 1.717478,-0.6027 2.81069,-0.60401 1.107468,-0.0017 1.900461,0.175306 2.86353,0.637812 1.544463,0.741714 2.591869,1.933934 3.084188,3.510624 0.242284,0.77596 0.242284,2.0474 0,2.82335 -0.718161,2.29995 -2.720613,3.85865 -5.296799,4.12303 -0.406257,0.0417 -0.759631,0.0714 -0.785277,0.066 -0.02568,-0.005 -0.282242,-0.0346 -0.570203,-0.0649 z"
             style="fill:#50504d;fill-opacity:1;stroke-width:0.0723935" />
        </g>
        <path
           sodipodi:nodetypes="sscccsssssssccsssccsscccsssssssssssssssssssssssssss"
           d="m -57.228859,128.81995 c -3.496779,-0.0291 -7.02788,0.63283 -9.967126,1.99087 -2.712268,1.25314 -4.202193,2.32277 -6.372776,4.5733 l -1.873648,1.94234 -2.095282,-0.29398 c -3.870703,-0.54361 -8.745348,0.19186 -12.472623,1.8819 -5.007944,2.27068 -9.07951,6.81084 -10.552326,11.7666 -0.49325,1.65965 -0.67418,6.23211 -0.30035,7.58522 0.18037,0.65295 0.0408,0.81307 -1.85532,2.14381 -3.56373,2.50081 -5.91844,5.58372 -7.10266,9.29955 -0.97183,3.04938 -0.97117,6.81234 0,9.84531 2.0385,6.3604 7.82828,11.2297 15.238244,12.81518 2.118023,0.45316 4.320958,0.4782 37.835536,0.43038 l 35.586418,-0.0513 2.329717,-0.73078 c 1.66486,-0.52223 6.985728,-3.02819 9.7555724,-5.96434 2.8904845,-3.06406 4.7060865,-7.47354 4.7060865,-11.42869 0,-5.32494 -3.2435429,-11.11703 -8.0064559,-14.29779 l -1.641042,-1.09617 -0.02485,-3.74635 c -0.02673,-4.02806 -0.233732,-5.00518 -1.663923,-7.8673 -3.634861,-7.27399 -13.042017,-11.83177 -21.850943,-10.58617 l -2.108083,0.29852 -1.423111,-1.598 c -1.615489,-1.81358 -3.892458,-3.51225 -6.378262,-4.75831 -2.803743,-1.40544 -6.267045,-2.12501 -9.763824,-2.15385 z m -0.694161,4.26469 c 5.634541,-0.0897 11.291963,2.24608 14.261124,6.41671 2.234771,3.13904 1.924848,2.92532 3.532085,2.44328 3.605369,-1.08135 8.209477,-0.96362 11.748313,0.30036 2.692716,0.96179 4.592667,2.17424 6.469832,4.12919 3.641331,3.79202 4.641242,8.35239 2.866338,13.06785 -0.362858,0.96404 -0.659371,1.79085 -0.659371,1.83703 0,0.0464 1.104984,0.62458 2.455186,1.28573 6.064166,2.96958 9.260072,8.27925 8.3700177,13.90488 -0.8207554,5.1878 -5.3323547,9.72739 -11.4863557,11.55598 -1.483409,0.44083 -3.860903,0.47469 -36.248555,0.52659 -36.27378,0.0582 -36.434133,0.0539 -39.509539,-1.06597 -4.027115,-1.46635 -7.343895,-4.32359 -8.968955,-7.72716 -0.97581,-2.04375 -0.99841,-2.15998 -0.99817,-5.13374 1.9e-4,-2.77744 0.0643,-3.18048 0.73903,-4.62188 1.61333,-3.44651 4.05942,-5.78879 7.994594,-7.65663 1.089745,-0.5173 1.981675,-1.01754 1.981675,-1.11173 0,-0.0942 -0.308844,-1.01965 -0.686799,-2.0559 -1.295627,-3.55206 -0.836369,-7.54926 1.239924,-10.78493 1.900936,-2.96231 5.706419,-5.55769 9.685992,-6.60627 2.771345,-0.73022 6.86687,-0.74058 9.599018,-0.0239 2.108082,0.55307 2.547882,0.52569 2.77383,-0.17034 0.308,-0.94871 2.7321,-3.80436 4.110857,-4.84253 0.800359,-0.60264 2.292207,-1.49607 3.315045,-1.98538 2.297318,-1.09898 4.853733,-1.64053 7.414884,-1.68132 z"
           style="fill:#93b966;stroke-width:0.264583"
           id="path1052" />
      </g>
      <g
         id="g1068"
         transform="matrix(0.35570117,0,0,0.35570117,-319.71219,462.87772)">
        <path
           style="fill:#265786;stroke-width:0.167478"
           d="m 189.73684,99.875344 c -0.0439,-0.11518 -0.0604,-6.1255 -0.0367,-13.35636 l 0.0432,-13.14701 h 4.35444 4.35441 l 0.0548,0.50243 c 0.089,0.81644 0.32799,0.89571 0.81697,0.27092 0.65118,-0.83206 2.7351,-2.43158 3.93739,-3.02217 1.50894,-0.7412 3.24475,-1.06613 4.9421,-0.92509 0.76973,0.064 1.45463,0.20761 1.55257,0.32559 0.11317,0.13645 0.1592,1.47602 0.12997,3.7825 l -0.0453,3.57134 -2.17721,0.0294 c -2.4038,0.0324 -3.38222,0.22183 -4.80376,0.92996 -1.87741,0.93521 -3.18354,2.66993 -3.85176,5.11566 -0.33434,1.22371 -0.36288,1.80097 -0.43103,8.72134 l -0.073,7.410896 h -4.34368 c -3.32067,0 -4.36249,-0.0493 -4.42358,-0.209356 z"
           id="path957-9" />
        <path
           style="fill:#265786;stroke-width:0.167478"
           d="m 80.002583,86.731124 0.0429,-13.35915 h 4.35443 4.35444 l 0.0507,0.87925 c 0.0278,0.48359 0.12989,0.87926 0.2266,0.87926 0.0968,0 0.5639,-0.3511 1.03799,-0.78024 2.04579,-1.85176 4.54988,-3.10874 7.30525,-3.66706 1.09709,-0.2223 1.92165,-0.26628 3.681897,-0.19641 2.54885,0.10119 4.48342,0.56548 6.28317,1.50796 1.34281,0.70319 3.38924,2.75842 3.9853,4.00245 1.01345,2.11515 1.01265,2.10507 1.08319,13.58107 l 0.0647,10.512046 -4.40653,-0.0447 -4.40655,-0.0446 -0.10403,-8.457626 c -0.11004,-8.95557 -0.18343,-9.81802 -0.96517,-11.35034 -0.18723,-0.36701 -0.68172,-0.96771 -1.09889,-1.33491 -0.97471,-0.85798 -2.217317,-1.21623 -4.207107,-1.21295 -4.12163,0.007 -6.84876,1.7774 -7.98195,5.18225 -0.34829,1.04646 -0.36881,1.45702 -0.45656,9.13465 l -0.092,8.038926 -4.3973,0.0446 -4.3973,0.0447 z"
           id="path955-1" />
        <path
           style="fill:#265786;stroke-width:0.167478"
           d="m 31.842473,99.975804 c -0.0629,-0.0629 -0.11448,-8.23984 -0.11448,-18.17092 v -18.05651 l 0.37682,-0.0923 c 0.20727,-0.0507 2.18559,-0.0711 4.39631,-0.045 l 4.01947,0.0471 v 18.17136 18.171346 l -4.28188,0.0447 c -2.35504,0.0244 -4.33336,-0.007 -4.39631,-0.0698 z"
           id="path953-2" />
        <path
           id="path951-7"
           style="fill:#265786;stroke-width:0.167478"
           d="m 170.4509,70.130274 c -0.49874,-0.002 -1.0154,0.007 -1.5513,0.0265 -5.20303,0.19179 -8.87948,1.54453 -11.86092,4.36451 -2.21247,2.09264 -3.55731,4.59931 -4.14748,7.73085 -0.42612,2.26115 -0.27021,5.99701 0.33517,8.03487 0.83004,2.79408 2.42784,5.26948 4.49089,6.95703 2.23281,1.82644 6.18539,3.335146 9.58434,3.657546 2.14799,0.20381 2.77886,0.20545 4.89291,0.0183 3.7281,-0.33002 6.50256,-1.258366 9.175,-3.070536 1.2175,-0.82561 2.93129,-2.46286 2.92951,-2.79765 -9.3e-4,-0.13946 -1.51798,-1.11686 -3.55956,-2.29398 -3.48983,-2.01215 -3.56124,-2.04412 -3.80772,-1.70423 -2.1219,2.92607 -3.85217,3.77988 -7.35814,3.63191 -1.33884,-0.0565 -2.01068,-0.1711 -2.75918,-0.46978 -1.35974,-0.54257 -2.76544,-1.86981 -3.34252,-3.15571 -0.47458,-1.05749 -0.86224,-2.75921 -0.6914,-3.03575 0.0661,-0.10686 4.43643,-0.16575 12.3069,-0.16575 11.83951,0 12.20816,-0.009 12.30598,-0.31777 0.14131,-0.44521 -0.18527,-4.22846 -0.48993,-5.6768 -0.95933,-4.56049 -3.62204,-7.989 -7.7107,-9.92775 -2.61072,-1.23795 -5.25065,-1.79245 -8.74185,-1.80588 z m -0.2207,5.99457 c 1.40795,0.022 2.85075,0.32143 3.9744,0.86539 1.55173,0.75118 2.9509,2.63827 3.09161,4.16946 l 0.054,0.58608 -7.18139,0.0439 -7.18139,0.0439 0.10897,-0.68132 c 0.36119,-2.25867 2.18638,-4.10191 4.71342,-4.76013 0.74369,-0.1937 1.57559,-0.28061 2.42035,-0.2674 z" />
        <path
           id="path947-0"
           style="fill:#265786;stroke-width:0.167478"
           d="m 150.18697,61.397594 c -0.23529,0 -8.0209,2.02061 -8.38379,2.17584 l -0.37729,0.16118 v 5.16763 c 0,2.84212 -0.0426,5.21116 -0.0952,5.26379 -0.0527,0.0527 -0.59918,-0.28668 -1.2143,-0.75367 -2.169,-1.64666 -4.52854,-2.41699 -7.90118,-2.57878 -7.04338,-0.33801 -12.90042,2.57391 -15.7181,7.81418 -1.07019,1.9903 -1.55483,3.88009 -1.65478,6.44786 -0.0984,2.53128 0.10338,4.10561 0.7784,6.06783 1.21697,3.53756 3.97933,6.57195 7.43505,8.16858 1.50397,0.694886 3.78368,1.363336 5.39108,1.580596 1.80898,0.2445 5.45485,0.0764 7.11362,-0.32784 1.66997,-0.40696 3.42285,-1.222876 4.65481,-2.167606 0.48545,-0.37228 0.95327,-0.67766 1.03939,-0.67766 0.086,0 0.17876,0.5092 0.20605,1.13097 l 0.0494,1.130046 4.39656,0.0449 4.39565,0.0449 V 80.743994 c 0,-10.64057 -0.052,-19.34634 -0.11538,-19.34634 z m -17.31337,16.415 c 3.90356,-0.007 6.84663,1.85021 7.96804,5.02752 1.06235,3.01009 0.39391,6.77992 -1.58336,8.92499 -0.86002,0.93302 -2.67223,1.89869 -4.15297,2.21248 -3.06078,0.64861 -6.36463,-0.10057 -8.25924,-1.87273 -1.6771,-1.56874 -2.36803,-3.34869 -2.36449,-6.08797 0.004,-2.73544 0.69459,-4.52609 2.33793,-6.06325 1.54541,-1.44554 3.49915,-2.13573 6.05409,-2.14104 z" />
        <path
           id="path943-9"
           style="fill:#265786;stroke-width:0.167478"
           d="m 60.283143,70.106464 c -10.09233,0 -16.5684,5.16083 -17.31702,13.80051 -0.65118,7.51535 2.91283,13.45911 9.50009,15.84356 1.53579,0.555906 3.18377,0.941856 5.02569,1.176746 1.53333,0.19554 5.32492,0.0577 7.13652,-0.25916 3.54401,-0.61988 6.7607,-2.212206 9.02482,-4.467986 0.53725,-0.53528 0.94656,-1.06741 0.90934,-1.18225 -0.0765,-0.23568 -6.7458,-4.14473 -7.07149,-4.14473 -0.11551,0 -0.48533,0.41414 -0.82144,0.92034 -1.45984,2.1987 -4.3945,3.33336 -7.57975,2.92952 -3.15119,-0.39954 -5.34414,-2.3882 -5.94419,-5.39017 -0.32533,-1.62742 -1.5987,-1.47437 12.26477,-1.47437 h 12.25562 l -0.0962,-2.38647 c -0.39697,-9.86491 -6.58558,-15.36554 -17.2868,-15.36554 z m 0.16758,6.02754 c 1.48394,-0.001 2.96557,0.31919 4.14748,0.96246 1.54317,0.83989 2.8111,2.62617 3.00369,4.23081 l 0.0504,0.4185 -7.15941,0.043 -7.16033,0.0439 v -0.41392 c 0,-1.38184 1.44869,-3.49598 2.95607,-4.31323 1.19138,-0.64571 2.67819,-0.97002 4.16213,-0.97163 z" />
        <path
           id="path939-3"
           style="fill:#265786;stroke-width:0.167478"
           d="m -5.8686167,61.521224 c -0.0654,-0.006 -0.10486,-0.004 -0.11447,0.005 -0.0769,0.077 -0.12046,8.76504 -0.0971,19.30697 l 0.043,19.166856 4.39565,0.0449 4.39656,0.0449 0.002,-0.966116 c 0.004,-1.48241 0.12012,-1.53939 1.32052,-0.65569 1.75678,1.29326 3.94437,2.138186 6.2967697,2.432256 h 9.4e-4 c 5.82122,0.72771 11.51795,-0.988256 14.99099,-4.515606 3.00391,-3.05095 4.48009,-7.4837 4.01011,-12.04317 -0.29847,-2.89551 -1.03631,-4.9785 -2.52749,-7.1356 -2.97149,-4.29837 -8.57766,-6.69851 -14.88202,-6.37094 -3.3187797,0.17245 -5.9304897,1.0303 -7.8215097,2.57054 -0.51194,0.41698 -1.01894,0.70489 -1.15202,0.65385 -0.19853,-0.0761 -0.2381,-0.95297 -0.2381,-5.28851 0,-2.85839 -0.0401,-5.19694 -0.0888,-5.19694 -0.0486,0 -1.98282998,-0.49179 -4.29858,-1.09342 -2.02628,-0.52641 -3.77839,-0.92086 -4.2363,-0.95971 z m 16.9626297,16.3051 c 0.93699,-0.0301 1.86295,0.0448 2.67493,0.23627 3.88583,0.91616 5.97223,3.69996 5.9616,7.95429 -0.007,2.71163 -0.69151,4.47192 -2.34893,6.03944 -1.0334,0.97735 -2.23405,1.57558 -3.8526,1.91851 -1.06831,0.22648 -3.05902,0.29851 -3.8242097,0.1392 -4.53967,-0.94544 -6.78304,-3.63975 -6.78304,-8.14752 0,-3.25829 1.43825,-5.91613 3.87642,-7.16307 1.14226,-0.58419 2.73416,-0.92692 4.2958297,-0.97712 z" />
      </g>
      <g
         transform="matrix(0.70729176,0,0,0.70729176,10.242684,129.82772)"
         id="g1028">
        <path
           id="path1136"
           style="font-style:normal;font-variant:normal;font-weight:bold;font-stretch:normal;font-size:15.5507px;line-height:1.25;font-family:FreeSans;-inkscape-font-specification:'FreeSans Bold';text-align:center;word-spacing:0px;text-anchor:middle;fill:#50504d;fill-opacity:1;stroke-width:0.293084"
           d="m -467.69524,529.97431 v 3.04809 h -1.75851 v -8.54637 h 3.77494 q 1.33647,0 2.03987,0.67996 0.71513,0.67996 0.71513,1.96953 0,1.3013 -0.70341,2.07505 -0.7034,0.77374 -1.87574,0.77374 z m 0,-1.46542 h 1.64128 q 1.37164,0 1.37164,-1.27785 0,-0.65652 -0.33998,-0.97305 -0.32825,-0.31653 -1.03166,-0.31653 h -1.64128 z" />
        <path
           id="path1138"
           style="font-style:normal;font-variant:normal;font-weight:bold;font-stretch:normal;font-size:15.5507px;line-height:1.25;font-family:FreeSans;-inkscape-font-specification:'FreeSans Bold';text-align:center;word-spacing:0px;text-anchor:middle;fill:#50504d;fill-opacity:1;stroke-width:0.293084"
           d="m -458.86753,526.58625 q 1.48886,0 2.30951,0.9027 0.83236,0.89098 0.83236,2.49708 0,1.52405 -0.84409,2.41503 -0.84408,0.89098 -2.28606,0.89098 -1.46542,0 -2.29779,-0.89098 -0.83236,-0.90271 -0.83236,-2.46192 0,-1.55921 0.83236,-2.45019 0.83237,-0.9027 2.28607,-0.9027 z m 0.0118,1.32474 q -0.66823,0 -1.07856,0.56272 -0.41031,0.56273 -0.41031,1.46543 0,0.9027 0.41031,1.46543 0.41033,0.56272 1.07856,0.56272 0.65651,0 1.06683,-0.551 0.42204,-0.56272 0.42204,-1.4537 0,-0.93787 -0.41032,-1.48888 -0.3986,-0.56272 -1.07855,-0.56272 z" />
        <path
           id="path1140"
           style="font-style:normal;font-variant:normal;font-weight:bold;font-stretch:normal;font-size:15.5507px;line-height:1.25;font-family:FreeSans;-inkscape-font-specification:'FreeSans Bold';text-align:center;word-spacing:0px;text-anchor:middle;fill:#50504d;fill-opacity:1;stroke-width:0.293084"
           d="m -452.79483,526.69176 v 6.33064 h -1.64127 v -6.33064 z m 0,-2.21573 v 1.46543 h -1.64127 v -1.46543 z" />
        <path
           id="path1142"
           style="font-style:normal;font-variant:normal;font-weight:bold;font-stretch:normal;font-size:15.5507px;line-height:1.25;font-family:FreeSans;-inkscape-font-specification:'FreeSans Bold';text-align:center;word-spacing:0px;text-anchor:middle;fill:#50504d;fill-opacity:1;stroke-width:0.293084"
           d="m -451.21218,526.69176 h 1.64128 v 0.91442 q 0.67996,-1.01993 1.89918,-1.01993 1.00821,0 1.55921,0.57444 0.56274,0.57445 0.56274,1.61783 v 4.24388 h -1.64128 v -3.9039 q 0,-1.13717 -1.0551,-1.13717 -0.59791,0 -0.96133,0.33998 -0.36343,0.33998 -0.36343,0.90271 v 3.79838 h -1.64128 z" />
        <path
           id="path1144"
           style="font-style:normal;font-variant:normal;font-weight:bold;font-stretch:normal;font-size:15.5507px;line-height:1.25;font-family:FreeSans;-inkscape-font-specification:'FreeSans Bold';text-align:center;word-spacing:0px;text-anchor:middle;fill:#50504d;fill-opacity:1;stroke-width:0.293084"
           d="m -441.17696,526.82071 v 1.09028 h -0.91442 v 3.44669 q 0,0.42204 0.10551,0.56272 0.10551,0.12896 0.43377,0.12896 0.12896,0 0.37514,-0.0352 v 1.1489 q -0.39859,0.12896 -0.94959,0.12896 -1.60611,0 -1.60611,-1.48888 v -3.89217 h -0.80891 v -1.09028 h 0.80891 v -1.69989 h 1.64128 v 1.69989 z" />
        <path
           id="path1146"
           style="font-style:normal;font-variant:normal;font-weight:bold;font-stretch:normal;font-size:15.5507px;line-height:1.25;font-family:FreeSans;-inkscape-font-specification:'FreeSans Bold';text-align:center;word-spacing:0px;text-anchor:middle;fill:#50504d;fill-opacity:1;stroke-width:0.293084"
           d="m -431.29413,527.37172 q -0.32826,-1.53577 -1.82885,-1.53577 -1.04338,0 -1.62956,0.79719 -0.58617,0.79719 -0.58617,2.21573 0,1.39508 0.56273,2.18055 0.57445,0.78547 1.59438,0.78547 0.82063,0 1.31302,-0.44549 0.49237,-0.44549 0.57444,-1.26613 h 1.71162 q -0.0821,1.46543 -1.06683,2.33296 -0.98477,0.85581 -2.57915,0.85581 -1.78196,0 -2.82534,-1.19579 -1.04339,-1.20751 -1.04339,-3.27083 0,-2.07504 1.05511,-3.28255 1.05511,-1.20751 2.86052,-1.20751 1.51231,0 2.47363,0.80891 0.97304,0.80891 1.09028,2.22745 z" />
        <path
           id="path1148"
           style="font-style:normal;font-variant:normal;font-weight:bold;font-stretch:normal;font-size:15.5507px;line-height:1.25;font-family:FreeSans;-inkscape-font-specification:'FreeSans Bold';text-align:center;word-spacing:0px;text-anchor:middle;fill:#50504d;fill-opacity:1;stroke-width:0.293084"
           d="m -426.7103,524.47603 v 8.54637 h -1.64127 v -8.54637 z" />
        <path
           id="path1150"
           style="font-style:normal;font-variant:normal;font-weight:bold;font-stretch:normal;font-size:15.5507px;line-height:1.25;font-family:FreeSans;-inkscape-font-specification:'FreeSans Bold';text-align:center;word-spacing:0px;text-anchor:middle;fill:#50504d;fill-opacity:1;stroke-width:0.293084"
           d="m -422.36093,526.58625 q 1.48888,0 2.30952,0.9027 0.83236,0.89098 0.83236,2.49708 0,1.52405 -0.84409,2.41503 -0.84408,0.89098 -2.28606,0.89098 -1.46543,0 -2.29779,-0.89098 -0.83237,-0.90271 -0.83237,-2.46192 0,-1.55921 0.83237,-2.45019 0.83236,-0.9027 2.28606,-0.9027 z m 0.0117,1.32474 q -0.66823,0 -1.07855,0.56272 -0.41032,0.56273 -0.41032,1.46543 0,0.9027 0.41032,1.46543 0.41032,0.56272 1.07855,0.56272 0.65651,0 1.06683,-0.551 0.42204,-0.56272 0.42204,-1.4537 0,-0.93787 -0.41031,-1.48888 -0.3986,-0.56272 -1.07856,-0.56272 z" />
        <path
           id="path1152"
           style="font-style:normal;font-variant:normal;font-weight:bold;font-stretch:normal;font-size:15.5507px;line-height:1.25;font-family:FreeSans;-inkscape-font-specification:'FreeSans Bold';text-align:center;word-spacing:0px;text-anchor:middle;fill:#50504d;fill-opacity:1;stroke-width:0.293084"
           d="m -412.32571,533.0224 h -1.64128 v -0.7503 q -0.67996,1.01994 -1.8992,1.01994 -1.00821,0 -1.57093,-0.57445 -0.551,-0.57445 -0.551,-1.61783 v -4.408 h 1.64127 v 4.06802 q 0,1.13717 1.05512,1.13717 0.59789,0 0.96131,-0.33997 0.36343,-0.33998 0.36343,-0.90271 v -3.96251 h 1.64127 z" />
        <path
           id="path1154"
           style="font-style:normal;font-variant:normal;font-weight:bold;font-stretch:normal;font-size:15.5507px;line-height:1.25;font-family:FreeSans;-inkscape-font-specification:'FreeSans Bold';text-align:center;word-spacing:0px;text-anchor:middle;fill:#50504d;fill-opacity:1;stroke-width:0.293084"
           d="m -408.43354,533.29204 q -1.17234,0 -1.92264,-0.96132 -0.73857,-0.96132 -0.73857,-2.37985 0,-1.43026 0.76201,-2.39158 0.76203,-0.97304 1.8992,-0.97304 1.1489,0 1.74678,0.92615 v -3.03637 h 1.64128 v 8.54637 h -1.64128 v -0.64479 q -0.60961,0.91443 -1.74678,0.91443 z m 0.36342,-5.33416 q -0.60962,0 -0.99649,0.56273 -0.38687,0.551 -0.38687,1.43026 0,0.86753 0.38687,1.41853 0.38687,0.551 0.99649,0.551 0.60962,0 0.99649,-0.53928 0.38687,-0.53928 0.38687,-1.40681 0,-0.9027 -0.38687,-1.4537 -0.37514,-0.56273 -0.99649,-0.56273 z" />
        <path
           id="path1156"
           style="font-style:normal;font-variant:normal;font-weight:bold;font-stretch:normal;font-size:15.5507px;line-height:1.25;font-family:FreeSans;-inkscape-font-specification:'FreeSans Bold';text-align:center;word-spacing:0px;text-anchor:middle;fill:#50504d;fill-opacity:1;stroke-width:0.293084"
           d="m -398.32799,524.47603 v 7.08095 h 4.09147 v 1.46542 h -5.84998 v -8.54637 z" />
        <path
           id="path1158"
           style="font-style:normal;font-variant:normal;font-weight:bold;font-stretch:normal;font-size:15.5507px;line-height:1.25;font-family:FreeSans;-inkscape-font-specification:'FreeSans Bold';text-align:center;word-spacing:0px;text-anchor:middle;fill:#50504d;fill-opacity:1;stroke-width:0.293084"
           d="m -391.30567,526.69176 v 6.33064 h -1.64128 v -6.33064 z m 0,-2.21573 v 1.46543 h -1.64128 v -1.46543 z" />
        <path
           id="path1160"
           style="font-style:normal;font-variant:normal;font-weight:bold;font-stretch:normal;font-size:15.5507px;line-height:1.25;font-family:FreeSans;-inkscape-font-specification:'FreeSans Bold';text-align:center;word-spacing:0px;text-anchor:middle;fill:#50504d;fill-opacity:1;stroke-width:0.293084"
           d="m -386.33496,526.58625 q 1.13717,0 1.89919,0.9496 0.76203,0.93786 0.76203,2.40329 0,1.43026 -0.76203,2.39158 -0.76203,0.96132 -1.89919,0.96132 -1.16062,0 -1.7468,-0.91443 v 0.64479 h -1.64128 v -8.54637 h 1.64128 v 3.03637 q 0.58618,-0.92615 1.7468,-0.92615 z m 0.63305,1.93436 q -0.38687,-0.56273 -0.99649,-0.56273 -0.60961,0 -0.99648,0.55101 -0.38688,0.53928 -0.38688,1.40681 0,0.9027 0.37515,1.4537 0.38688,0.551 1.00821,0.551 0.60962,0 0.99649,-0.551 0.38688,-0.551 0.38688,-1.41853 0,-0.87926 -0.38688,-1.43026 z" />
        <path
           id="path1162"
           style="font-style:normal;font-variant:normal;font-weight:bold;font-stretch:normal;font-size:15.5507px;line-height:1.25;font-family:FreeSans;-inkscape-font-specification:'FreeSans Bold';text-align:center;word-spacing:0px;text-anchor:middle;fill:#50504d;fill-opacity:1;stroke-width:0.293084"
           d="m -382.44281,526.69176 h 1.64128 v 1.24268 q 0.25792,-0.64479 0.72685,-0.99649 0.46893,-0.3517 1.03166,-0.3517 0.10551,0 0.1993,0.0117 v 1.66473 q -0.2931,-0.0469 -0.51583,-0.0469 -1.44198,0 -1.44198,1.44197 v 3.36462 h -1.64128 z" />
        <path
           id="path1164"
           style="font-style:normal;font-variant:normal;font-weight:bold;font-stretch:normal;font-size:15.5507px;line-height:1.25;font-family:FreeSans;-inkscape-font-specification:'FreeSans Bold';text-align:center;word-spacing:0px;text-anchor:middle;fill:#50504d;fill-opacity:1;stroke-width:0.293084"
           d="m -376.2177,533.29204 q -0.86753,0 -1.39508,-0.51583 -0.52756,-0.52755 -0.52756,-1.38336 0,-1.67645 1.86403,-1.99298 l 0.6565,-0.11724 q 0.0234,0 0.23447,-0.0235 0.21102,-0.0351 0.26964,-0.0469 0.0587,-0.0234 0.22275,-0.0587 0.17585,-0.0351 0.24619,-0.0821 0.0703,-0.0469 0.16412,-0.11724 0.10552,-0.0821 0.14069,-0.17585 0.0351,-0.10551 0.0351,-0.23446 0,-0.63307 -0.94959,-0.63307 -0.60962,0 -0.85581,0.18758 -0.2462,0.18757 -0.30481,0.67995 h -1.58267 q 0.15241,-2.19227 2.70811,-2.19227 2.59088,0 2.59088,1.94609 v 3.51702 q 0,0.43376 0.37514,0.77374 v 0.1993 h -1.78196 q -0.18757,-0.23447 -0.18757,-0.63306 -0.86753,0.9027 -1.92264,0.9027 z m 1.91091,-2.81362 v -0.44549 q -0.22274,0.10551 -0.69168,0.1993 l -0.56272,0.10551 q -0.51583,0.10551 -0.72685,0.30481 -0.21102,0.19929 -0.21102,0.56272 0,0.35171 0.23447,0.56272 0.24619,0.1993 0.65651,0.1993 0.62134,0 0.96132,-0.38687 0.33997,-0.38687 0.33997,-1.102 z" />
        <path
           id="path1166"
           style="font-style:normal;font-variant:normal;font-weight:bold;font-stretch:normal;font-size:15.5507px;line-height:1.25;font-family:FreeSans;-inkscape-font-specification:'FreeSans Bold';text-align:center;word-spacing:0px;text-anchor:middle;fill:#50504d;fill-opacity:1;stroke-width:0.293084"
           d="m -371.2118,526.69176 h 1.64128 v 1.24268 q 0.25791,-0.64479 0.72685,-0.99649 0.46893,-0.3517 1.03165,-0.3517 0.10552,0 0.1993,0.0117 v 1.66473 q -0.29308,-0.0469 -0.51583,-0.0469 -1.44197,0 -1.44197,1.44197 v 3.36462 h -1.64128 z" />
        <path
           id="path1168"
           style="font-style:normal;font-variant:normal;font-weight:bold;font-stretch:normal;font-size:15.5507px;line-height:1.25;font-family:FreeSans;-inkscape-font-specification:'FreeSans Bold';text-align:center;word-spacing:0px;text-anchor:middle;fill:#50504d;fill-opacity:1;stroke-width:0.293084"
           d="m -364.90462,533.32721 v -0.0469 l -2.35641,-6.58855 h 1.8054 l 1.39509,4.6073 1.31303,-4.6073 h 1.68817 l -2.60261,7.49125 q 0,0.0118 -0.0469,0.15241 -0.0469,0.1524 -0.0821,0.1993 -0.0235,0.0587 -0.0938,0.1993 -0.0587,0.1524 -0.12897,0.21102 -0.0703,0.0703 -0.18757,0.18757 -0.11723,0.12896 -0.26964,0.18758 -0.14068,0.0703 -0.32826,0.14068 -0.18757,0.0703 -0.43376,0.0938 -0.2462,0.0351 -0.53929,0.0351 -0.25791,0 -0.58616,-0.0469 v -1.23096 q 0.25791,0.0703 0.43377,0.0703 0.43376,0 0.72684,-0.30481 0.29309,-0.30481 0.29309,-0.7503 z" />
      </g>
      <g
         transform="matrix(0.83612362,0,0,0.83612362,28.267417,53.66551)"
         id="g1046">
        <path
           id="path1170"
           style="font-style:normal;font-variant:normal;font-weight:bold;font-stretch:normal;font-size:15.5507px;line-height:1.25;font-family:FreeSans;-inkscape-font-specification:'FreeSans Bold';text-align:center;word-spacing:0px;text-anchor:middle;fill:#50504d;fill-opacity:1;stroke-width:0.388766"
           d="m -435.82078,568.57576 v 4.04318 h -2.33261 v -11.33646 h 5.00733 q 1.77278,0 2.70582,0.90194 0.94859,0.90194 0.94859,2.61252 0,1.72613 -0.93304,2.75247 -0.93304,1.02635 -2.48811,1.02635 z m 0,-1.94384 h 2.17709 q 1.81944,0 1.81944,-1.69503 0,-0.87084 -0.45097,-1.2907 -0.43542,-0.41987 -1.36847,-0.41987 h -2.17709 z" />
        <path
           id="path1172"
           style="font-style:normal;font-variant:normal;font-weight:bold;font-stretch:normal;font-size:15.5507px;line-height:1.25;font-family:FreeSans;-inkscape-font-specification:'FreeSans Bold';text-align:center;word-spacing:0px;text-anchor:middle;fill:#50504d;fill-opacity:1;stroke-width:0.388766"
           d="m -420.55003,565.1235 q -0.43543,-2.03714 -2.42591,-2.03714 -1.38401,0 -2.16154,1.05745 -0.77754,1.05745 -0.77754,2.93908 0,1.85053 0.74644,2.89243 0.76198,1.0419 2.11489,1.0419 1.08855,0 1.74168,-0.59093 0.65313,-0.59093 0.76198,-1.67947 h 2.27041 q -0.10886,1.94383 -1.41512,3.09458 -1.30626,1.13521 -3.42115,1.13521 -2.36371,0 -3.74772,-1.58618 -1.38401,-1.60172 -1.38401,-4.33864 0,-2.75247 1.39956,-4.3542 1.39956,-1.60172 3.79437,-1.60172 2.00604,0 3.2812,1.073 1.29071,1.073 1.44621,2.95463 z" />
        <path
           id="path1174"
           style="font-style:normal;font-variant:normal;font-weight:bold;font-stretch:normal;font-size:15.5507px;line-height:1.25;font-family:FreeSans;-inkscape-font-specification:'FreeSans Bold';text-align:center;word-spacing:0px;text-anchor:middle;fill:#50504d;fill-opacity:1;stroke-width:0.388766"
           d="m -414.08095,561.28248 v 9.39262 h 5.42719 v 1.94384 h -7.7598 v -11.33646 z" />
        <path
           id="path1176"
           style="font-style:normal;font-variant:normal;font-weight:bold;font-stretch:normal;font-size:15.5507px;line-height:1.25;font-family:FreeSans;-inkscape-font-specification:'FreeSans Bold';text-align:center;word-spacing:0px;text-anchor:middle;fill:#50504d;fill-opacity:1;stroke-width:0.388766"
           d="m -400.443,564.22156 v 8.39738 h -2.1771 v -8.39738 z m 0,-2.93908 v 1.94384 h -2.1771 v -1.94384 z" />
        <path
           id="path1178"
           style="font-style:normal;font-variant:normal;font-weight:bold;font-stretch:normal;font-size:15.5507px;line-height:1.25;font-family:FreeSans;-inkscape-font-specification:'FreeSans Bold';text-align:center;word-spacing:0px;text-anchor:middle;fill:#50504d;fill-opacity:1;stroke-width:0.388766"
           d="m -398.34367,564.22156 h 2.16154 v 1.0419 q 0.54428,-0.63758 1.05745,-0.90194 0.52873,-0.27991 1.24406,-0.27991 1.64837,0 2.28595,1.24405 0.93304,-1.24405 2.45701,-1.24405 1.25961,0 1.95939,0.68423 0.71533,0.68423 0.71533,1.91273 v 5.94037 h -2.1771 v -5.59825 q 0,-0.49762 -0.32656,-0.79309 -0.31102,-0.29546 -0.85529,-0.29546 -0.69978,0 -1.1041,0.43542 -0.38877,0.43542 -0.38877,1.21295 v 5.03843 h -2.1771 v -5.59825 q 0,-0.49762 -0.32656,-0.79309 -0.31101,-0.29546 -0.85529,-0.29546 -0.69978,0 -1.1041,0.43542 -0.38877,0.43542 -0.38877,1.21295 v 5.03843 h -2.1771 z" />
        <path
           id="path1180"
           style="font-style:normal;font-variant:normal;font-weight:bold;font-stretch:normal;font-size:15.5507px;line-height:1.25;font-family:FreeSans;-inkscape-font-specification:'FreeSans Bold';text-align:center;word-spacing:0px;text-anchor:middle;fill:#50504d;fill-opacity:1;stroke-width:0.388766"
           d="m -379.93166,564.08161 q 1.58617,0 2.55032,1.27515 0.96414,1.27516 0.96414,3.1879 0,1.91273 -1.01079,3.18789 -0.99525,1.25961 -2.50367,1.25961 -1.55507,0 -2.3326,-1.36846 v 4.38529 h -2.1771 v -11.78743 h 2.1771 v 1.24406 q 0.77753,-1.38401 2.3326,-1.38401 z m 0.82419,2.56586 q -0.49762,-0.74643 -1.32181,-0.74643 -0.82419,0 -1.33736,0.73088 -0.49762,0.73088 -0.49762,1.91274 0,1.18185 0.49762,1.91273 0.51317,0.71533 1.33736,0.71533 0.80864,0 1.32181,-0.73088 0.51317,-0.73088 0.51317,-1.86608 0,-1.19741 -0.51317,-1.92829 z" />
        <path
           id="path1182"
           style="font-style:normal;font-variant:normal;font-weight:bold;font-stretch:normal;font-size:15.5507px;line-height:1.25;font-family:FreeSans;-inkscape-font-specification:'FreeSans Bold';text-align:center;word-spacing:0px;text-anchor:middle;fill:#50504d;fill-opacity:1;stroke-width:0.388766"
           d="m -371.03668,564.08161 q 1.97494,0 3.06349,1.1974 1.1041,1.18185 1.1041,3.3123 0,2.02159 -1.11965,3.20344 -1.11966,1.18186 -3.03239,1.18186 -1.94384,0 -3.04794,-1.18186 -1.1041,-1.1974 -1.1041,-3.26564 0,-2.06825 1.1041,-3.2501 1.1041,-1.1974 3.03239,-1.1974 z m 0.0156,1.75722 q -0.88639,0 -1.43067,0.74644 -0.54427,0.74643 -0.54427,1.94384 0,1.1974 0.54427,1.94383 0.54428,0.74644 1.43067,0.74644 0.87084,0 1.41511,-0.73089 0.55983,-0.74643 0.55983,-1.92828 0,-1.24406 -0.54428,-1.97494 -0.52873,-0.74644 -1.43066,-0.74644 z" />
        <path
           id="path1184"
           style="font-style:normal;font-variant:normal;font-weight:bold;font-stretch:normal;font-size:15.5507px;line-height:1.25;font-family:FreeSans;-inkscape-font-specification:'FreeSans Bold';text-align:center;word-spacing:0px;text-anchor:middle;fill:#50504d;fill-opacity:1;stroke-width:0.388766"
           d="m -365.2363,564.22156 h 2.1771 v 1.64838 q 0.34212,-0.85529 0.96414,-1.32181 0.62203,-0.46652 1.36847,-0.46652 0.13995,0 0.26436,0.0155 v 2.2082 q -0.38877,-0.0622 -0.68423,-0.0622 -1.91274,0 -1.91274,1.91274 v 4.46305 h -2.1771 z" />
        <path
           id="path1186"
           style="font-style:normal;font-variant:normal;font-weight:bold;font-stretch:normal;font-size:15.5507px;line-height:1.25;font-family:FreeSans;-inkscape-font-specification:'FreeSans Bold';text-align:center;word-spacing:0px;text-anchor:middle;fill:#50504d;fill-opacity:1;stroke-width:0.388766"
           d="m -355.36163,564.39262 v 1.44621 h -1.21295 v 4.57191 q 0,0.55983 0.13995,0.74643 0.13996,0.17106 0.57538,0.17106 0.17106,0 0.49762,-0.0466 v 1.52397 q -0.52873,0.17106 -1.25961,0.17106 -2.13045,0 -2.13045,-1.97494 v -5.16284 h -1.07299 v -1.44621 h 1.07299 v -2.25485 h 2.1771 v 2.25485 z" />
        <path
           id="path1188"
           style="font-style:normal;font-variant:normal;font-weight:bold;font-stretch:normal;font-size:15.5507px;line-height:1.25;font-family:FreeSans;-inkscape-font-specification:'FreeSans Bold';text-align:center;word-spacing:0px;text-anchor:middle;fill:#50504d;fill-opacity:1;stroke-width:0.388766"
           d="m -351.66057,561.51574 h 1.04189 l -3.20344,11.32091 h -1.0419 z" />
        <path
           id="path1190"
           style="font-style:normal;font-variant:normal;font-weight:bold;font-stretch:normal;font-size:15.5507px;line-height:1.25;font-family:FreeSans;-inkscape-font-specification:'FreeSans Bold';text-align:center;word-spacing:0px;text-anchor:middle;fill:#50504d;fill-opacity:1;stroke-width:0.388766"
           d="m -346.06233,564.08161 q 0.54428,0 1.05745,0.1244 0.51317,0.12441 1.0419,0.45097 0.54427,0.32657 0.93304,0.83974 0.40432,0.49762 0.65313,1.33736 0.24881,0.82419 0.24881,1.89718 0,0.18661 -0.0156,0.37322 h -5.62935 q 0.0156,0.48207 0.0778,0.83974 0.0777,0.34211 0.24881,0.68423 0.18661,0.32657 0.52873,0.51317 0.35766,0.17106 0.88639,0.17106 1.24405,0 1.66392,-1.05745 h 2.146 q -0.35767,1.24406 -1.41512,1.99049 -1.05744,0.73089 -2.47256,0.73089 -1.78833,0 -2.81467,-1.15076 -1.02635,-1.1663 -1.02635,-3.18789 0,-2.11489 1.0419,-3.32785 1.04189,-1.2285 2.84577,-1.2285 z m 1.66393,3.57666 q -0.0777,-0.91749 -0.51317,-1.41512 -0.41987,-0.49762 -1.18186,-0.49762 -1.43066,0 -1.64837,1.91274 z" />
        <path
           id="path1192"
           style="font-style:normal;font-variant:normal;font-weight:bold;font-stretch:normal;font-size:15.5507px;line-height:1.25;font-family:FreeSans;-inkscape-font-specification:'FreeSans Bold';text-align:center;word-spacing:0px;text-anchor:middle;fill:#50504d;fill-opacity:1;stroke-width:0.388766"
           d="m -336.00105,568.38915 2.79913,4.22979 h -2.61252 l -1.41512,-2.61252 -1.43067,2.61252 h -2.61252 l 2.79913,-4.22979 -2.73692,-4.16759 h 2.61251 l 1.36847,2.53477 1.35291,-2.53477 h 2.61251 z" />
        <path
           id="path1194"
           style="font-style:normal;font-variant:normal;font-weight:bold;font-stretch:normal;font-size:15.5507px;line-height:1.25;font-family:FreeSans;-inkscape-font-specification:'FreeSans Bold';text-align:center;word-spacing:0px;text-anchor:middle;fill:#50504d;fill-opacity:1;stroke-width:0.388766"
           d="m -327.44817,564.08161 q 1.58616,0 2.55032,1.27515 0.96413,1.27516 0.96413,3.1879 0,1.91273 -1.01078,3.18789 -0.99525,1.25961 -2.50367,1.25961 -1.55507,0 -2.33261,-1.36846 v 4.38529 h -2.1771 v -11.78743 h 2.1771 v 1.24406 q 0.77754,-1.38401 2.33261,-1.38401 z m 0.82418,2.56586 q -0.49761,-0.74643 -1.32181,-0.74643 -0.82419,0 -1.33736,0.73088 -0.49762,0.73088 -0.49762,1.91274 0,1.18185 0.49762,1.91273 0.51317,0.71533 1.33736,0.71533 0.80864,0 1.32181,-0.73088 0.51317,-0.73088 0.51317,-1.86608 0,-1.19741 -0.51317,-1.92829 z" />
        <path
           id="path1196"
           style="font-style:normal;font-variant:normal;font-weight:bold;font-stretch:normal;font-size:15.5507px;line-height:1.25;font-family:FreeSans;-inkscape-font-specification:'FreeSans Bold';text-align:center;word-spacing:0px;text-anchor:middle;fill:#50504d;fill-opacity:1;stroke-width:0.388766"
           d="m -318.55319,564.08161 q 1.97494,0 3.06349,1.1974 1.1041,1.18185 1.1041,3.3123 0,2.02159 -1.11965,3.20344 -1.11966,1.18186 -3.03239,1.18186 -1.94384,0 -3.04794,-1.18186 -1.1041,-1.1974 -1.1041,-3.26564 0,-2.06825 1.1041,-3.2501 1.1041,-1.1974 3.03239,-1.1974 z m 0.0156,1.75722 q -0.88639,0 -1.43067,0.74644 -0.54427,0.74643 -0.54427,1.94384 0,1.1974 0.54427,1.94383 0.54428,0.74644 1.43067,0.74644 0.87084,0 1.41511,-0.73089 0.55983,-0.74643 0.55983,-1.92828 0,-1.24406 -0.54428,-1.97494 -0.52872,-0.74644 -1.43066,-0.74644 z" />
        <path
           id="path1198"
           style="font-style:normal;font-variant:normal;font-weight:bold;font-stretch:normal;font-size:15.5507px;line-height:1.25;font-family:FreeSans;-inkscape-font-specification:'FreeSans Bold';text-align:center;word-spacing:0px;text-anchor:middle;fill:#50504d;fill-opacity:1;stroke-width:0.388766"
           d="m -312.7528,564.22156 h 2.1771 v 1.64838 q 0.34211,-0.85529 0.96414,-1.32181 0.62203,-0.46652 1.36846,-0.46652 0.13996,0 0.26437,0.0155 v 2.2082 q -0.38877,-0.0622 -0.68424,-0.0622 -1.91273,0 -1.91273,1.91274 v 4.46305 h -2.1771 z" />
        <path
           id="path1200"
           style="font-style:normal;font-variant:normal;font-weight:bold;font-stretch:normal;font-size:15.5507px;line-height:1.25;font-family:FreeSans;-inkscape-font-specification:'FreeSans Bold';text-align:center;word-spacing:0px;text-anchor:middle;fill:#50504d;fill-opacity:1;stroke-width:0.388766"
           d="m -302.87814,564.39262 v 1.44621 h -1.21295 v 4.57191 q 0,0.55983 0.13995,0.74643 0.13996,0.17106 0.57538,0.17106 0.17106,0 0.49762,-0.0466 v 1.52397 q -0.52872,0.17106 -1.25961,0.17106 -2.13044,0 -2.13044,-1.97494 v -5.16284 h -1.073 v -1.44621 h 1.073 v -2.25485 h 2.1771 v 2.25485 z" />
      </g>
    </g>
  </g>
</svg>
