<?xml version="1.0" encoding="UTF-8" standalone="no"?>
<!-- Created with Inkscape (http://www.inkscape.org/) -->

<svg
   xmlns:dc="http://purl.org/dc/elements/1.1/"
   xmlns:cc="http://creativecommons.org/ns#"
   xmlns:rdf="http://www.w3.org/1999/02/22-rdf-syntax-ns#"
   xmlns:svg="http://www.w3.org/2000/svg"
   xmlns="http://www.w3.org/2000/svg"
   xmlns:sodipodi="http://sodipodi.sourceforge.net/DTD/sodipodi-0.dtd"
   xmlns:inkscape="http://www.inkscape.org/namespaces/inkscape"
   width="146.74403mm"
   height="97.560066mm"
   viewBox="0 0 519.95917 345.68529"
   id="svg4350"
   version="1.1"
   inkscape:version="0.91 r13725"
   sodipodi:docname="key_template.svg">
  <defs
     id="defs4352" />
  <sodipodi:namedview
     id="base"
     pagecolor="#ffffff"
     bordercolor="#666666"
     borderopacity="1.0"
     inkscape:pageopacity="0.0"
     inkscape:pageshadow="2"
     inkscape:zoom="0.70710678"
     inkscape:cx="48.764697"
     inkscape:cy="63.713339"
     inkscape:document-units="px"
     inkscape:current-layer="layer1"
     showgrid="false"
     showguides="true"
     inkscape:snap-bbox="true"
     inkscape:bbox-paths="true"
     inkscape:bbox-nodes="true"
     inkscape:snap-bbox-edge-midpoints="true"
     inkscape:snap-bbox-midpoints="true"
     inkscape:object-paths="true"
     inkscape:snap-intersection-paths="true"
     inkscape:object-nodes="true"
     inkscape:snap-smooth-nodes="true"
     inkscape:snap-midpoints="true"
     inkscape:guide-bbox="true"
     inkscape:window-width="2560"
     inkscape:window-height="1440"
     inkscape:window-x="0"
     inkscape:window-y="0"
     inkscape:window-maximized="0"
     fit-margin-top="8"
     fit-margin-left="8"
     fit-margin-right="8"
     fit-margin-bottom="8" />
  <metadata
     id="metadata4355">
    <rdf:RDF>
      <cc:Work
         rdf:about="">
        <dc:format>image/svg+xml</dc:format>
        <dc:type
           rdf:resource="http://purl.org/dc/dcmitype/StillImage" />
        <dc:title></dc:title>
      </cc:Work>
    </rdf:RDF>
  </metadata>
  <g
     inkscape:label="Layer 1"
     inkscape:groupmode="layer"
     id="layer1"
     transform="translate(28.346435,-597.19667)">
    <path
       style="opacity:1;fill:#000000;fill-opacity:1;fill-rule:evenodd;stroke:#ffffff;stroke-width:0.10037628px;stroke-linecap:butt;stroke-linejoin:miter;stroke-opacity:0.16483519"
       d="m 138.601,625.59961 0,0.002 c -2.88924,0.0832 -6.6364,0.96436 -9.39453,2.44922 -3.15212,1.69695 -4.77707,3.36556 -6.76562,6.11524 -0.73575,1.01738 -1.25764,2.08908 -1.67188,3.18359 -0.33279,0.67335 -0.58712,1.25038 -0.71875,1.61719 -0.48549,1.35277 -0.99609,4.53906 -0.99609,4.53906 -0.0365,0.25294 -0.084,0.49502 -0.14258,0.73047 -0.72884,1.68269 -1.5249,2.90989 -2.88867,3.67773 -1.16599,0.65644 -2.34774,0.79239 -3.9336,0.53711 -0.14161,-0.0364 -0.28338,-0.0697 -0.42382,-0.11719 l -3.29883,-0.93164 -5.86328,-1.75195 c -2.34477,-0.82058 -4.646745,-0.72024 -4.867185,2.55078 l -0.17578,2.17578 c -0.001,0.39622 -0.22305,1.24805 -0.88532,1.24805 l -3.99945,0 -2.30273,0 -5.875,0 c -0.81031,0.0365 -1.61229,0.0444 -2.4961,0.93359 l -4.67187,4.5 c -0.53635,0.44318 -1.08464,0.86935 -1.93555,0.83008 l -5.10742,0 c -0.40463,0.009 -0.73184,-0.3999 -1.08984,-0.64258 l -1.74414,-1.56054 c -0.53977,-0.44381 -1.06988,-0.51168 -1.73438,0.11718 l -2.95508,2.67774 c -0.30164,0.26527 -0.549,0.6476 -1.19726,0.6543 l -4.88086,0.006 c -0.5597,0.0193 -1.00249,-0.1485 -1.36914,-0.43945 l -2.02539,-1.71484 c -0.49552,-0.43441 -1.02991,-0.43503 -1.60157,-0.008 l -2.68164,2.68164 c -0.4426,0.41287 -0.90595,0.75589 -1.6289,0.74219 l -4.95508,0 c -0.83707,0.0503 -1.1987,-0.43038 -1.67383,-0.7832 l -4.80664,-4.3457 c -0.8793,-0.69725 -1.53393,-0.91048 -2.46094,-0.41406 -0.18022,0.13886 -0.41482,0.16205 -0.66601,0.13671 l -5.60937,0 c -0.19347,0 -0.23233,-0.013 -0.38477,-0.17384 -0.68994,-0.84554 -1.70374,-0.64114 -2.23438,-0.0625 l -4.23633,3.61132 c -0.44087,0.38566 -1.03716,0.76611 -1.65625,0.76373 l -4.86718,0 c -0.64918,-0.003 -0.75896,-0.24292 -1.14649,-0.57429 -0.19457,-0.16649 -0.39703,-0.36984 -0.65234,-0.60743 -0.52742,-0.49032 -1.34548,-0.49641 -1.78906,-0.0469 -2.8507102,2.97693 -5.6213802,5.81386 -9.16211022,9.4668 -0.66958,0.58751 -0.913,1.59738 -0.92774,2.53515 -0.006,1.58656 0.72515,2.9005 1.76367002,4.42188 2.08659,3.01069 4.3664,7.55707 8.4394602,8.4043 l 83.00781,-0.008 0.48047,0.002 c 0.0129,-10e-6 0.0224,-0.002 0.0351,-0.002 l 3.51954,-0.0117 c 0.21762,0 0.32631,0.12575 0.32631,0.35545 -0.007,0.38356 -0.012,0.50025 -0.0195,0.90039 l 0.18554,2.17578 c 0.2376,3.26982 2.540415,3.35827 4.880855,2.5254 l 7.63282,-2.32618 1.41015,-0.40625 c 0.10329,-0.0355 0.20851,-0.0584 0.3125,-0.0879 1.69972,-0.31574 2.92875,-0.19608 4.15235,0.48438 1.1825,0.65764 1.93805,1.67188 2.5996,3.01367 0.15526,0.42637 0.27572,0.88466 0.34961,1.37891 0,0 0.52696,3.18299 1.01953,4.5332 0.19507,0.53476 0.64183,1.50471 1.24219,2.59375 0.34843,0.75003 0.75965,1.48731 1.27735,2.19531 2.00294,2.73922 3.63589,4.39773 6.79687,6.07813 3.161,1.68043 7.61249,2.56704 10.58985,2.38086 6.82733,-0.42915 14.12234,-5.23436 17.27734,-14.48047 l 0,-0.002 c 0.33255,-0.85397 0.75384,-1.63246 1.24023,-2.35351 1.12302,-1.52893 2.59403,-2.90626 4.82813,-4.10742 0.65562,-0.31693 1.33245,-0.60281 2.05273,-0.82422 3.74943,-1.15249 7.00749,-2.62914 10.0918,-5.15625 3.09582,-2.53684 5.86595,-7.19223 5.78711,-14.84571 -0.0115,-1.11105 -0.11089,-2.1558 -0.26563,-3.14843 -0.69656,-5.56034 -3.06001,-9.14018 -5.65039,-11.24024 -0.96426,-0.78164 -1.94655,-1.45115 -2.95312,-2.05078 -0.10576,-0.0647 -0.21351,-0.12836 -0.31641,-0.1875 -2.13369,-1.22942 -4.38503,-2.1218 -6.84961,-2.86523 -0.38157,-0.1151 -0.74707,-0.25255 -1.11133,-0.39453 -3.439,-1.62266 -5.24282,-3.61838 -6.60742,-5.9004 -0.15385,-0.30936 -0.30924,-0.61802 -0.43945,-0.94726 l 0,-0.002 c -3.20344,-9.22943 -10.52598,-13.99533 -17.35547,-14.38868 -0.37229,-0.0213 -0.76694,-0.0275 -1.17969,-0.0156 z m 23.70703,29.73828 c 1.99331,0.01 3.83888,0.52567 5.4336,1.42188 0.002,9.9e-4 0.004,8.9e-4 0.006,0.002 2.64905,1.53222 4.60813,4.14352 5.41797,7.21875 0.23566,0.95172 0.37042,1.94647 0.36523,2.97656 -0.0261,5.15922 -3.24662,9.66972 -7.84961,11.19727 -1.02537,0.31995 -2.116,0.5058 -3.25976,0.51758 -2.29572,0.0236 -4.43741,-0.6323 -6.24805,-1.76758 -0.11334,-0.0728 -0.22916,-0.14018 -0.33985,-0.2168 -0.0978,-0.0662 -0.1895,-0.1399 -0.28515,-0.20898 -2.02063,-1.49095 -3.55691,-3.62062 -4.32031,-6.07032 -0.0579,-0.19459 -0.11045,-0.39108 -0.15821,-0.58984 -0.0269,-0.10498 -0.0541,-0.21044 -0.0781,-0.31641 -0.15452,-0.73445 -0.24394,-1.49426 -0.25195,-2.27343 -0.0524,-5.10057 3.20835,-9.61468 7.77539,-11.26172 0.11181,-0.0382 0.22066,-0.0823 0.33398,-0.11719 0.025,-0.008 0.0511,-0.0154 0.0762,-0.0234 1.0716,-0.32145 2.20586,-0.49421 3.38281,-0.48828 z"
       id="path4149-0-6-0-61-8-6"
       inkscape:connector-curvature="0"
       sodipodi:nodetypes="ccssccccccccccccccccccccccccccccccccccccccccccccccccccccccccccccccccssccccccccccccscccccccccccccccccccscccccc"
       inkscape:export-xdpi="300.21286"
       inkscape:export-ydpi="300.21286" />
    <path
       style="opacity:1;fill:#000000;fill-opacity:1;fill-rule:evenodd;stroke:#ffffff;stroke-width:0.10037628px;stroke-linecap:butt;stroke-linejoin:miter;stroke-opacity:0.16483519"
       d="m 138.60099,728.50984 0,0.002 c -2.88924,0.0832 -6.6364,0.96436 -9.39453,2.44922 -3.15212,1.69695 -4.77707,3.36556 -6.76562,6.11524 -0.73575,1.01738 -1.25764,2.08908 -1.67188,3.18359 -0.33279,0.67335 -0.58712,1.25038 -0.71875,1.61719 -0.48549,1.35277 -0.99609,4.53906 -0.99609,4.53906 -0.0365,0.25294 -0.084,0.49502 -0.14258,0.73047 -0.72884,1.68269 -1.5249,2.90989 -2.88867,3.67773 -1.16599,0.65644 -2.34774,0.79239 -3.9336,0.53711 -0.14161,-0.0364 -0.28338,-0.0697 -0.42382,-0.11719 l -3.29883,-0.93164 -5.86328,-1.75195 c -2.34477,-0.82058 -4.646735,-0.72024 -4.867175,2.55078 l -0.17578,2.17578 c -0.001,0.39622 -0.22305,1.24805 -0.88532,1.24805 l -3.99945,0 -76.04661,0 c -0.14473,0.009 -0.3669,0.10314 -0.46063,0.1838 -2.67159,2.75488 -7.3293502,7.55873 -15.09041022,15.56415 -0.66958,0.58751 -0.913,1.59738 -0.92774,2.53515 -0.006,1.58656 0.72515,2.9005 1.76367002,4.42188 2.08659,3.01069 4.3664,7.55707 8.4394602,8.4043 l 83.00781,-0.008 0.48047,0.002 c 0.0129,-10e-6 0.0224,-0.002 0.0351,-0.002 l 3.51954,-0.0117 c 0.21762,0 0.32631,0.12575 0.32631,0.35545 -0.007,0.38356 -0.012,0.50025 -0.0195,0.90039 l 0.18554,2.17578 c 0.2376,3.26982 2.540405,3.35827 4.880845,2.5254 l 7.63282,-2.32618 1.41015,-0.40625 c 0.10329,-0.0355 0.20851,-0.0584 0.3125,-0.0879 1.69972,-0.31574 2.92875,-0.19608 4.15235,0.48438 1.1825,0.65764 1.93805,1.67188 2.5996,3.01367 0.15526,0.42637 0.27572,0.88466 0.34961,1.37891 0,0 0.52696,3.18299 1.01953,4.5332 0.19507,0.53476 0.64183,1.50471 1.24219,2.59375 0.34843,0.75003 0.75965,1.48731 1.27735,2.19531 2.00294,2.73922 3.63589,4.39773 6.79687,6.07813 3.161,1.68043 7.61249,2.56704 10.58985,2.38086 6.82733,-0.42915 14.12234,-5.23436 17.27734,-14.48047 l 0,-0.002 c 0.33255,-0.85397 0.75384,-1.63246 1.24023,-2.35351 1.12302,-1.52893 2.59403,-2.90626 4.82813,-4.10742 0.65562,-0.31693 1.33245,-0.60281 2.05273,-0.82422 3.74943,-1.15249 7.00749,-2.62914 10.0918,-5.15625 3.09582,-2.53684 5.86595,-7.19223 5.78711,-14.84571 -0.0115,-1.11105 -0.11089,-2.1558 -0.26563,-3.14843 -0.69656,-5.56034 -3.06001,-9.14018 -5.65039,-11.24024 -0.96426,-0.78164 -1.94655,-1.45115 -2.95312,-2.05078 -0.10576,-0.0647 -0.21351,-0.12836 -0.31641,-0.1875 -2.13369,-1.22942 -4.38503,-2.1218 -6.84961,-2.86523 -0.38157,-0.1151 -0.74707,-0.25255 -1.11133,-0.39453 -3.439,-1.62266 -5.24282,-3.61838 -6.60742,-5.9004 -0.15385,-0.30936 -0.30924,-0.61802 -0.43945,-0.94726 l 0,-0.002 c -3.20344,-9.22943 -10.52598,-13.99533 -17.35547,-14.38868 -0.37229,-0.0213 -0.76694,-0.0275 -1.17969,-0.0156 z m 23.70703,29.73828 c 1.99331,0.01 3.83888,0.52567 5.4336,1.42188 0.002,9.9e-4 0.004,8.9e-4 0.006,0.002 2.64905,1.53222 4.60813,4.14352 5.41797,7.21875 0.23566,0.95172 0.37042,1.94647 0.36523,2.97656 -0.0261,5.15922 -3.24662,9.66972 -7.84961,11.19727 -1.02537,0.31995 -2.116,0.5058 -3.25976,0.51758 -2.29572,0.0236 -4.43741,-0.6323 -6.24805,-1.76758 -0.11334,-0.0728 -0.22916,-0.14018 -0.33985,-0.2168 -0.0978,-0.0662 -0.1895,-0.1399 -0.28515,-0.20898 -2.02063,-1.49095 -3.55691,-3.62062 -4.32031,-6.07032 -0.0579,-0.19459 -0.11045,-0.39108 -0.15821,-0.58984 -0.0269,-0.10498 -0.0541,-0.21044 -0.0781,-0.31641 -0.15452,-0.73445 -0.24394,-1.49426 -0.25195,-2.27343 -0.0524,-5.10057 3.20835,-9.61468 7.77539,-11.26172 0.11181,-0.0382 0.22066,-0.0823 0.33398,-0.11719 0.025,-0.008 0.0511,-0.0154 0.0762,-0.0234 1.0716,-0.32145 2.20586,-0.49421 3.38281,-0.48828 z"
       id="path4149-0-6-0-61-8-6-1"
       inkscape:connector-curvature="0"
       sodipodi:nodetypes="ccsscccccccccccccccccccccccccccccccccccssccccccccccccscccccccccccccccccccscccccc"
       inkscape:export-xdpi="300.21286"
       inkscape:export-ydpi="300.21286" />
    <path
       style="opacity:1;fill:#333333;fill-opacity:1;fill-rule:evenodd;stroke:#ffffff;stroke-width:0.10037628px;stroke-linecap:butt;stroke-linejoin:miter;stroke-opacity:0.16483519"
       d="m 138.60098,831.55092 0,0.002 c -2.88924,0.0832 -6.6364,0.96436 -9.39453,2.44922 -3.15212,1.69695 -4.77707,3.36556 -6.76562,6.11524 -0.73575,1.01738 -1.25764,2.08908 -1.67188,3.18359 -0.33279,0.67335 -0.58712,1.25038 -0.71875,1.61719 -0.48549,1.35277 -0.99609,4.53906 -0.99609,4.53906 -0.0365,0.25294 -0.084,0.49502 -0.14258,0.73047 -0.72884,1.68269 -1.5249,2.90989 -2.88867,3.67773 -1.16599,0.65644 -2.34774,0.79239 -3.9336,0.53711 -0.14161,-0.0364 -0.28338,-0.0697 -0.42382,-0.11719 l -3.29883,-0.93164 -5.86328,-1.75195 c -2.34477,-0.82058 -4.646729,-0.72024 -4.867169,2.55078 l -0.17578,2.17578 c -0.001,0.39622 -0.22305,1.24805 -0.88532,1.24805 l -3.99945,0 -76.046605,0 c -0.14473,0.009 -0.3669,0.10314 -0.46063,0.1838 -2.67159,2.75488 -7.329351,7.55873 -15.09041121,15.56415 -0.66958,0.58751 -0.913,1.59738 -0.92774,2.53515 -0.006,1.58656 0.72515,2.9005 1.76367001,4.42188 2.08659,3.01069 4.3664,7.55707 8.4394612,8.4043 l 83.007805,-0.008 0.48047,0.002 c 0.0129,-10e-6 0.0224,-0.002 0.0351,-0.002 l 3.51954,-0.0117 c 0.21762,0 0.32631,0.12575 0.32631,0.35545 -0.007,0.38356 -0.012,0.50025 -0.0195,0.90039 l 0.18554,2.17578 c 0.2376,3.26982 2.540399,3.35827 4.880839,2.5254 l 7.63282,-2.32618 1.41015,-0.40625 c 0.10329,-0.0355 0.20851,-0.0584 0.3125,-0.0879 1.69972,-0.31574 2.92875,-0.19608 4.15235,0.48438 1.1825,0.65764 1.93805,1.67188 2.5996,3.01367 0.15526,0.42637 0.27572,0.88466 0.34962,1.37891 0,0 0.52696,3.18299 1.01953,4.5332 0.19506,0.53476 0.64183,1.50471 1.24219,2.59375 0.34843,0.75003 0.75964,1.48731 1.27735,2.19531 2.00294,2.73922 3.63589,4.39773 6.79687,6.07813 3.161,1.68043 7.61249,2.56704 10.58985,2.38086 6.82733,-0.42915 14.12234,-5.23436 17.27734,-14.48047 l 0,-0.002 c 0.33255,-0.85397 0.75384,-1.63246 1.24023,-2.35351 1.12302,-1.52893 2.59403,-2.90626 4.82813,-4.10742 0.65562,-0.31693 1.33245,-0.60281 2.05273,-0.82422 3.74943,-1.15249 7.00749,-2.62914 10.0918,-5.15625 3.09582,-2.53684 5.86595,-7.19223 5.78711,-14.84571 -0.0115,-1.11105 -0.11089,-2.1558 -0.26563,-3.14843 -0.69656,-5.56034 -3.06001,-9.14018 -5.65039,-11.24024 -0.96426,-0.78164 -1.94655,-1.45115 -2.95312,-2.05078 -0.10576,-0.0647 -0.21351,-0.12836 -0.31641,-0.1875 -2.13369,-1.22942 -4.38503,-2.1218 -6.84961,-2.86523 -0.38157,-0.1151 -0.74707,-0.25255 -1.11133,-0.39453 -3.439,-1.62266 -5.24282,-3.61838 -6.60742,-5.9004 -0.15385,-0.30936 -0.30924,-0.61802 -0.43945,-0.94726 l 0,-0.002 c -3.20344,-9.22943 -10.52598,-13.99533 -17.35547,-14.38868 -0.37229,-0.0213 -0.76694,-0.0275 -1.17969,-0.0156 z m 23.70703,29.73828 c 1.99331,0.01 3.83888,0.52567 5.4336,1.42188 0.002,9.9e-4 0.004,8.9e-4 0.006,0.002 2.64905,1.53222 4.60813,4.14352 5.41797,7.21875 0.23566,0.95172 0.37042,1.94647 0.36523,2.97656 -0.0261,5.15922 -3.24662,9.66972 -7.84961,11.19727 -1.02537,0.31995 -2.116,0.5058 -3.25976,0.51758 -2.29572,0.0236 -4.43741,-0.6323 -6.24805,-1.76758 -0.11334,-0.0728 -0.22916,-0.14018 -0.33985,-0.2168 -0.0978,-0.0662 -0.1895,-0.1399 -0.28515,-0.20898 -2.02063,-1.49095 -3.55691,-3.62062 -4.32031,-6.07032 -0.0579,-0.19459 -0.11045,-0.39108 -0.15821,-0.58984 -0.0269,-0.10498 -0.0541,-0.21044 -0.0781,-0.31641 -0.15452,-0.73445 -0.24394,-1.49426 -0.25195,-2.27343 -0.0524,-5.10057 3.20835,-9.61468 7.77539,-11.26172 0.11181,-0.0382 0.22066,-0.0823 0.33398,-0.11719 0.025,-0.008 0.0511,-0.0154 0.0762,-0.0234 1.0716,-0.32145 2.20586,-0.49421 3.38281,-0.48828 z"
       id="path4149-0-6-0-61-8-6-1-9"
       inkscape:connector-curvature="0"
       sodipodi:nodetypes="ccsscccccccccccccccccccccccccccccccccccssccccccccccccscccccccccccccccccccscccccc"
       inkscape:export-xdpi="300.21286"
       inkscape:export-ydpi="300.21286" />
    <path
       style="opacity:1;fill:#b3b3b3;fill-opacity:1;fill-rule:evenodd;stroke:#ffffff;stroke-width:0.10037628px;stroke-linecap:butt;stroke-linejoin:miter;stroke-opacity:0.16483519"
       d="m 138.60099,831.55092 0,0.002 c -2.88924,0.0832 -6.6364,0.96436 -9.39453,2.44922 -3.15212,1.69695 -4.77707,3.36556 -6.76562,6.11524 -0.73575,1.01738 -1.25764,2.08908 -1.67188,3.18359 -0.33279,0.67335 -0.58712,1.25038 -0.71875,1.61719 -0.48549,1.35277 -0.99609,4.53906 -0.99609,4.53906 -0.0365,0.25294 -0.084,0.49502 -0.14258,0.73047 -0.72884,1.68269 -1.5249,2.90989 -2.88867,3.67773 -1.16599,0.65644 -2.34774,0.79239 -3.9336,0.53711 -0.14161,-0.0364 -0.28338,-0.0697 -0.42382,-0.11719 l -3.29883,-0.93164 -5.86328,-1.75195 c -2.34477,-0.82058 -4.646739,-0.72024 -4.867179,2.55078 l -0.17578,2.17578 c -0.001,0.39622 -0.22305,1.24805 -0.88532,1.24805 l -3.99945,0 -2.30273,0 -5.875,0 c -0.81031,0.0365 -1.61229,0.0444 -2.4961,0.93359 l -4.67187,4.5 c -0.53635,0.44318 -1.08464,0.86935 -1.93555,0.83008 l -5.10742,0 c -0.40463,0.009 -0.73184,-0.3999 -1.08984,-0.64258 l -1.74414,-1.56054 c -0.53977,-0.44381 -1.06988,-0.51168 -1.73438,0.11718 l -2.95508,2.67774 c -0.30164,0.26527 -0.549,0.6476 -1.19726,0.6543 l -4.88086,0.006 c -0.5597,0.0193 -1.00249,-0.1485 -1.36914,-0.43945 l -2.02539,-1.71484 c -0.49552,-0.43441 -1.02991,-0.43503 -1.60157,-0.008 l -2.68164,2.68164 c -0.4426,0.41287 -0.90595,0.75589 -1.6289,0.74219 l -4.95508,0 c -0.83707,0.0503 -1.1987,-0.43038 -1.67383,-0.7832 l -4.80664,-4.3457 c -0.8793,-0.69725 -1.53393,-0.91048 -2.46094,-0.41406 -0.18022,0.13886 -0.41482,0.16205 -0.66601,0.13671 l -5.60937,0 c -0.19347,0 -0.23233,-0.013 -0.38477,-0.17384 -0.68994,-0.84554 -1.70374,-0.64114 -2.23438,-0.0625 l -4.23633,3.61132 c -0.44087,0.38566 -1.03716,0.76611 -1.65625,0.76373 l -4.86718,0 c -0.64918,-0.003 -0.75896,-0.24292 -1.14649,-0.57429 -0.19457,-0.16649 -0.39703,-0.36984 -0.65234,-0.60743 -0.52742,-0.49032 -1.34548,-0.49641 -1.78906,-0.0469 -2.8507112,2.97693 -5.6213812,5.81386 -9.16211121,9.4668 -0.66958,0.58751 -0.913,1.59738 -0.92774,2.53515 -0.006,1.58656 0.72515,2.9005 1.76367001,4.42188 2.08659,3.01069 4.3664,7.55707 8.4394612,8.4043 l 83.00781,-0.008 0.48047,0.002 c 0.0129,-10e-6 0.0224,-0.002 0.0351,-0.002 l 3.51954,-0.0117 c 0.21762,0 0.32631,0.12575 0.32631,0.35545 -0.007,0.38356 -0.012,0.50025 -0.0195,0.90039 l 0.18554,2.17578 c 0.2376,3.26982 2.540409,3.35827 4.880849,2.5254 l 7.63282,-2.32618 1.41015,-0.40625 c 0.10329,-0.0355 0.20851,-0.0584 0.3125,-0.0879 1.69972,-0.31574 2.92875,-0.19608 4.15235,0.48438 1.1825,0.65764 1.93805,1.67188 2.5996,3.01367 0.15526,0.42637 0.27572,0.88466 0.34961,1.37891 0,0 0.52696,3.18299 1.01953,4.5332 0.19507,0.53476 0.64183,1.50471 1.24219,2.59375 0.34843,0.75003 0.75965,1.48731 1.27735,2.19531 2.00294,2.73922 3.63589,4.39773 6.79687,6.07813 3.161,1.68043 7.61249,2.56704 10.58985,2.38086 6.82733,-0.42915 14.12234,-5.23436 17.27734,-14.48047 l 0,-0.002 c 0.33255,-0.85397 0.75384,-1.63246 1.24023,-2.35351 1.12302,-1.52893 2.59403,-2.90626 4.82813,-4.10742 0.65562,-0.31693 1.33245,-0.60281 2.05273,-0.82422 3.74943,-1.15249 7.00749,-2.62914 10.0918,-5.15625 3.09582,-2.53684 5.86595,-7.19223 5.78711,-14.84571 -0.0115,-1.11105 -0.11089,-2.1558 -0.26563,-3.14843 -0.69656,-5.56034 -3.06001,-9.14018 -5.65039,-11.24024 -0.96426,-0.78164 -1.94655,-1.45115 -2.95312,-2.05078 -0.10576,-0.0647 -0.21351,-0.12836 -0.31641,-0.1875 -2.13369,-1.22942 -4.38503,-2.1218 -6.84961,-2.86523 -0.38157,-0.1151 -0.74707,-0.25255 -1.11133,-0.39453 -3.439,-1.62266 -5.24282,-3.61838 -6.60742,-5.9004 -0.15385,-0.30936 -0.30924,-0.61802 -0.43945,-0.94726 l 0,-0.002 c -3.20344,-9.22943 -10.52598,-13.99533 -17.35547,-14.38868 -0.37229,-0.0213 -0.76694,-0.0275 -1.17969,-0.0156 z m 23.70703,29.73828 c 1.99331,0.01 3.83888,0.52567 5.4336,1.42188 0.002,9.9e-4 0.004,8.9e-4 0.006,0.002 2.64905,1.53222 4.60813,4.14352 5.41797,7.21875 0.23566,0.95172 0.37042,1.94647 0.36523,2.97656 -0.0261,5.15922 -3.24662,9.66972 -7.84961,11.19727 -1.02537,0.31995 -2.116,0.5058 -3.25976,0.51758 -2.29572,0.0236 -4.43741,-0.6323 -6.24805,-1.76758 -0.11334,-0.0728 -0.22916,-0.14018 -0.33985,-0.2168 -0.0978,-0.0662 -0.1895,-0.1399 -0.28515,-0.20898 -2.02063,-1.49095 -3.55691,-3.62062 -4.32031,-6.07032 -0.0579,-0.19459 -0.11045,-0.39108 -0.15821,-0.58984 -0.0269,-0.10498 -0.0541,-0.21044 -0.0781,-0.31641 -0.15452,-0.73445 -0.24394,-1.49426 -0.25195,-2.27343 -0.0524,-5.10057 3.20835,-9.61468 7.77539,-11.26172 0.11181,-0.0382 0.22066,-0.0823 0.33398,-0.11719 0.025,-0.008 0.0511,-0.0154 0.0762,-0.0234 1.0716,-0.32145 2.20586,-0.49421 3.38281,-0.48828 z"
       id="path4149-0-6-0-61-8-6-4"
       inkscape:connector-curvature="0"
       sodipodi:nodetypes="ccssccccccccccccccccccccccccccccccccccccccccccccccccccccccccccccccccssccccccccccccscccccccccccccccccccscccccc"
       inkscape:export-xdpi="300.21286"
       inkscape:export-ydpi="300.21286" />
    <text
       xml:space="preserve"
       style="font-style:normal;font-variant:normal;font-weight:500;font-stretch:normal;font-size:40px;line-height:125%;font-family:'URW Palladio L';-inkscape-font-specification:'URW Palladio L Medium';letter-spacing:0px;word-spacing:0px;fill:#000000;fill-opacity:1;stroke:none;stroke-width:1px;stroke-linecap:butt;stroke-linejoin:miter;stroke-opacity:1"
       x="201.49866"
       y="678.09882"
       id="text4749"
       sodipodi:linespacing="125%"><tspan
         sodipodi:role="line"
         id="tspan4751"
         x="201.49866"
         y="678.09882">Target key</tspan></text>
    <text
       xml:space="preserve"
       style="font-style:normal;font-variant:normal;font-weight:500;font-stretch:normal;font-size:40px;line-height:125%;font-family:'URW Palladio L';-inkscape-font-specification:'URW Palladio L Medium';letter-spacing:0px;word-spacing:0px;fill:#000000;fill-opacity:1;stroke:none;stroke-width:1px;stroke-linecap:butt;stroke-linejoin:miter;stroke-opacity:1"
       x="197.45567"
       y="781.00903"
       id="text4749-9"
       sodipodi:linespacing="125%"><tspan
         sodipodi:role="line"
         id="tspan4751-2"
         x="197.45567"
         y="781.00903">Blank template</tspan></text>
    <text
       xml:space="preserve"
       style="font-style:normal;font-variant:normal;font-weight:500;font-stretch:normal;font-size:40px;line-height:125%;font-family:'URW Palladio L';-inkscape-font-specification:'URW Palladio L Medium';letter-spacing:0px;word-spacing:0px;fill:#000000;fill-opacity:1;stroke:none;stroke-width:1px;stroke-linecap:butt;stroke-linejoin:miter;stroke-opacity:1"
       x="197.45567"
       y="887.92706"
       id="text4749-9-8"
       sodipodi:linespacing="125%"><tspan
         sodipodi:role="line"
         id="tspan4751-2-3"
         x="197.45567"
         y="887.92706">Difference</tspan></text>
  </g>
</svg>
