<?xml version="1.0" encoding="UTF-8" standalone="no"?>
<!-- Created with Inkscape (http://www.inkscape.org/) -->

<svg
   xmlns:dc="http://purl.org/dc/elements/1.1/"
   xmlns:cc="http://creativecommons.org/ns#"
   xmlns:rdf="http://www.w3.org/1999/02/22-rdf-syntax-ns#"
   xmlns:svg="http://www.w3.org/2000/svg"
   xmlns="http://www.w3.org/2000/svg"
   xmlns:xlink="http://www.w3.org/1999/xlink"
   xmlns:sodipodi="http://sodipodi.sourceforge.net/DTD/sodipodi-0.dtd"
   xmlns:inkscape="http://www.inkscape.org/namespaces/inkscape"
   width="420mm"
   height="297mm"
   viewBox="0 0 1488.189 1052.3622"
   id="svg2"
   version="1.1"
   inkscape:version="0.91 r13725"
   sodipodi:docname="Checkerboard-A3-25mm-15x10.svg">
  <defs
     id="defs4" />
  <sodipodi:namedview
     id="base"
     pagecolor="#ffffff"
     bordercolor="#666666"
     borderopacity="1.0"
     inkscape:pageopacity="0.0"
     inkscape:pageshadow="2"
     inkscape:zoom="0.37631549"
     inkscape:cx="758.92443"
     inkscape:cy="522.83429"
     inkscape:document-units="mm"
     inkscape:current-layer="layer1"
     showgrid="false"
     inkscape:snap-bbox="true"
     inkscape:bbox-nodes="true"
     inkscape:window-width="1521"
     inkscape:window-height="1367"
     inkscape:window-x="1013"
     inkscape:window-y="47"
     inkscape:window-maximized="0" />
  <metadata
     id="metadata7">
    <rdf:RDF>
      <cc:Work
         rdf:about="">
        <dc:format>image/svg+xml</dc:format>
        <dc:type
           rdf:resource="http://purl.org/dc/dcmitype/StillImage" />
        <dc:title></dc:title>
      </cc:Work>
    </rdf:RDF>
  </metadata>
  <g
     inkscape:label="Layer 1"
     inkscape:groupmode="layer"
     id="layer1"
     transform="translate(0,-3.464567e-6)">
    <g
       id="g5563"
       transform="translate(-17.716571,-26.574826)">
      <rect
         y="65.551186"
         x="53.149616"
         height="88.58268"
         width="88.58268"
         id="rect8751"
         style="opacity:1;fill:#000000;fill-opacity:1;stroke:none;stroke-width:0.1;stroke-linecap:round;stroke-linejoin:round;stroke-miterlimit:4;stroke-dasharray:none;stroke-dashoffset:0;stroke-opacity:1" />
      <rect
         y="65.551186"
         x="141.7323"
         height="88.58268"
         width="88.58268"
         id="rect8751-6"
         style="opacity:1;fill:#ffffff;fill-opacity:1;stroke:none;stroke-width:0.1;stroke-linecap:round;stroke-linejoin:round;stroke-miterlimit:4;stroke-dasharray:none;stroke-dashoffset:0;stroke-opacity:1" />
      <use
         height="100%"
         width="100%"
         transform="translate(177.16536,0)"
         id="use11322"
         xlink:href="#rect8751"
         y="0"
         x="0" />
      <use
         height="100%"
         width="100%"
         transform="translate(177.16536,0)"
         id="use11324"
         xlink:href="#rect8751-6"
         y="0"
         x="0" />
      <use
         height="100%"
         width="100%"
         transform="matrix(-1,0,0,1,460.62995,88.58268)"
         id="use11326"
         xlink:href="#rect8751"
         y="0"
         x="0" />
      <use
         height="100%"
         width="100%"
         transform="matrix(-1,0,0,1,460.62995,88.58268)"
         id="use11328"
         xlink:href="#rect8751-6"
         y="0"
         x="0" />
      <use
         height="100%"
         width="100%"
         transform="matrix(-1,0,0,1,460.62995,88.582679)"
         id="use11330"
         xlink:href="#use11322"
         y="0"
         x="0" />
      <use
         height="100%"
         width="100%"
         transform="matrix(-1,0,0,1,460.62995,88.582679)"
         id="use11332"
         xlink:href="#use11324"
         y="0"
         x="0" />
      <use
         height="100%"
         width="100%"
         transform="translate(177.16536,0)"
         id="use11334"
         xlink:href="#use11322"
         y="0"
         x="0" />
      <use
         height="100%"
         width="100%"
         transform="translate(177.16536,2.9152693e-7)"
         id="use11336"
         xlink:href="#use11328"
         y="0"
         x="0" />
      <use
         height="100%"
         width="100%"
         transform="translate(0,177.16536)"
         id="use11338"
         xlink:href="#rect8751"
         y="0"
         x="0" />
      <use
         height="100%"
         width="100%"
         transform="translate(-4.5243488e-7,177.16536)"
         id="use11340"
         xlink:href="#rect8751-6"
         y="0"
         x="0" />
      <use
         height="100%"
         width="100%"
         transform="translate(3.3491863e-7,177.16536)"
         id="use11342"
         xlink:href="#use11322"
         y="0"
         x="0" />
      <use
         height="100%"
         width="100%"
         transform="translate(4.4635428e-8,177.16536)"
         id="use11344"
         xlink:href="#use11324"
         y="0"
         x="0" />
      <use
         height="100%"
         width="100%"
         transform="translate(-1.680111e-7,177.16536)"
         id="use11346"
         xlink:href="#use11334"
         y="0"
         x="0" />
      <use
         height="100%"
         width="100%"
         transform="translate(3.1489913e-7,177.16536)"
         id="use11507"
         xlink:href="#use11326"
         y="0"
         x="0" />
      <use
         height="100%"
         width="100%"
         transform="translate(-3.9481768e-7,177.16536)"
         id="use11509"
         xlink:href="#use11328"
         y="0"
         x="0" />
      <use
         height="100%"
         width="100%"
         transform="translate(-1.8217116e-7,177.16536)"
         id="use11511"
         xlink:href="#use11330"
         y="0"
         x="0" />
      <use
         height="100%"
         width="100%"
         transform="translate(1.0811205e-7,177.16536)"
         id="use11513"
         xlink:href="#use11332"
         y="0"
         x="0" />
      <use
         height="100%"
         width="100%"
         transform="translate(1.022526e-7,177.16536)"
         id="use11515"
         xlink:href="#use11336"
         y="0"
         x="0" />
      <use
         height="100%"
         width="100%"
         transform="translate(177.16536,0)"
         id="use11597"
         xlink:href="#use11324"
         y="0"
         x="0" />
      <use
         height="100%"
         width="100%"
         transform="translate(177.16536,2.9152716e-7)"
         id="use11599"
         xlink:href="#use11326"
         y="0"
         x="0" />
      <use
         height="100%"
         width="100%"
         transform="translate(177.16536,-4.1694602e-7)"
         id="use11601"
         xlink:href="#use11344"
         y="0"
         x="0" />
      <use
         height="100%"
         width="100%"
         transform="translate(177.16536,-2.1140272e-7)"
         id="use11603"
         xlink:href="#use11507"
         y="0"
         x="0" />
      <use
         height="100%"
         width="100%"
         transform="translate(177.16536,0)"
         id="use11781"
         xlink:href="#use11334"
         y="0"
         x="0" />
      <use
         height="100%"
         width="100%"
         transform="translate(177.16536,-1.654812e-7)"
         id="use11783"
         xlink:href="#use11336"
         y="0"
         x="0" />
      <use
         height="100%"
         width="100%"
         transform="translate(177.16536,1.2604596e-7)"
         id="use11785"
         xlink:href="#use11346"
         y="0"
         x="0" />
      <use
         height="100%"
         width="100%"
         transform="translate(177.16536,3.3158926e-7)"
         id="use11787"
         xlink:href="#use11515"
         y="0"
         x="0" />
      <use
         height="100%"
         width="100%"
         transform="translate(0,177.16536)"
         id="use11789"
         xlink:href="#use11338"
         y="0"
         x="0" />
      <use
         height="100%"
         width="100%"
         transform="translate(3.8541344e-7,177.16536)"
         id="use11791"
         xlink:href="#use11340"
         y="0"
         x="0" />
      <use
         height="100%"
         width="100%"
         transform="translate(1.7276697e-7,177.16536)"
         id="use11793"
         xlink:href="#use11342"
         y="0"
         x="0" />
      <use
         height="100%"
         width="100%"
         transform="translate(-1.1751622e-7,177.16536)"
         id="use11795"
         xlink:href="#use11344"
         y="0"
         x="0" />
      <use
         height="100%"
         width="100%"
         transform="translate(-3.3016275e-7,177.16536)"
         id="use11797"
         xlink:href="#use11346"
         y="0"
         x="0" />
      <use
         height="100%"
         width="100%"
         transform="translate(3.7955411e-7,177.16536)"
         id="use11799"
         xlink:href="#use11601"
         y="0"
         x="0" />
      <use
         height="100%"
         width="100%"
         transform="translate(-4.8330924e-6,177.16536)"
         id="use11801"
         xlink:href="#use11785"
         y="0"
         x="0" />
      <use
         height="100%"
         width="100%"
         transform="translate(177.16536,0)"
         id="use11913"
         xlink:href="#use11597"
         y="0"
         x="0" />
      <use
         height="100%"
         width="100%"
         transform="translate(177.16536,-1.654812e-7)"
         id="use11915"
         xlink:href="#use11599"
         y="0"
         x="0" />
      <use
         height="100%"
         width="100%"
         transform="translate(177.16536,1.2604596e-7)"
         id="use11917"
         xlink:href="#use11601"
         y="0"
         x="0" />
      <use
         height="100%"
         width="100%"
         transform="translate(177.16536,3.3158904e-7)"
         id="use11919"
         xlink:href="#use11603"
         y="0"
         x="0" />
      <use
         height="100%"
         width="100%"
         transform="translate(177.16536,-3.7688369e-7)"
         id="use11921"
         xlink:href="#use11799"
         y="0"
         x="0" />
      <use
         height="100%"
         width="100%"
         transform="translate(177.16536,0)"
         id="use12043"
         xlink:href="#use11781"
         y="0"
         x="0" />
      <use
         height="100%"
         width="100%"
         transform="translate(177.16536,3.7751056e-7)"
         id="use12045"
         xlink:href="#use11783"
         y="0"
         x="0" />
      <use
         height="100%"
         width="100%"
         transform="translate(177.16536,-3.3096239e-7)"
         id="use12047"
         xlink:href="#use11785"
         y="0"
         x="0" />
      <use
         height="100%"
         width="100%"
         transform="translate(177.16536,-1.2541909e-7)"
         id="use12049"
         xlink:href="#use11787"
         y="0"
         x="0" />
      <use
         height="100%"
         width="100%"
         transform="translate(177.16535,1.6610784e-7)"
         id="use12051"
         xlink:href="#use11801"
         y="0"
         x="0" />
      <use
         height="100%"
         width="100%"
         transform="translate(1.5274736e-7,177.16536)"
         id="use12053"
         xlink:href="#use11507"
         y="0"
         x="0" />
      <use
         height="100%"
         width="100%"
         transform="translate(4.4303057e-7,177.16536)"
         id="use12055"
         xlink:href="#use11509"
         y="0"
         x="0" />
      <use
         height="100%"
         width="100%"
         transform="translate(-3.4432292e-7,177.16536)"
         id="use12057"
         xlink:href="#use11511"
         y="0"
         x="0" />
      <use
         height="100%"
         width="100%"
         transform="translate(-5.4039717e-8,177.16536)"
         id="use12059"
         xlink:href="#use11513"
         y="0"
         x="0" />
      <use
         height="100%"
         width="100%"
         transform="translate(-5.9899051e-8,177.16536)"
         id="use12061"
         xlink:href="#use11515"
         y="0"
         x="0" />
      <use
         height="100%"
         width="100%"
         transform="translate(1.6498178e-6,177.16536)"
         id="use12063"
         xlink:href="#use11603"
         y="0"
         x="0" />
      <use
         height="100%"
         width="100%"
         transform="translate(-3.5628288e-6,177.16535)"
         id="use12065"
         xlink:href="#use11787"
         y="0"
         x="0" />
      <use
         height="100%"
         width="100%"
         transform="translate(1.146888e-6,177.16536)"
         id="use12067"
         xlink:href="#use11919"
         y="0"
         x="0" />
      <use
         height="100%"
         width="100%"
         transform="translate(-4.0657585e-6,177.16536)"
         id="use12069"
         xlink:href="#use12049"
         y="0"
         x="0" />
      <use
         height="100%"
         width="100%"
         transform="translate(177.16536,0)"
         id="use12219"
         xlink:href="#use11913"
         y="0"
         x="0" />
      <use
         height="100%"
         width="100%"
         transform="translate(177.16536,3.7751079e-7)"
         id="use12221"
         xlink:href="#use11915"
         y="0"
         x="0" />
      <use
         height="100%"
         width="100%"
         transform="translate(177.16536,-3.3096217e-7)"
         id="use12223"
         xlink:href="#use11917"
         y="0"
         x="0" />
      <use
         height="100%"
         width="100%"
         transform="translate(177.16536,-1.2541909e-7)"
         id="use12225"
         xlink:href="#use11919"
         y="0"
         x="0" />
      <use
         height="100%"
         width="100%"
         transform="translate(177.16536,1.6610807e-7)"
         id="use12227"
         xlink:href="#use11921"
         y="0"
         x="0" />
      <use
         height="100%"
         width="100%"
         transform="translate(177.16536,3.7165137e-7)"
         id="use12229"
         xlink:href="#use12067"
         y="0"
         x="0" />
      <use
         height="100%"
         width="100%"
         transform="translate(0,177.16536)"
         id="use12231"
         xlink:href="#use11789"
         y="0"
         x="0" />
      <use
         height="100%"
         width="100%"
         transform="translate(2.2326176e-7,177.16536)"
         id="use12233"
         xlink:href="#use11791"
         y="0"
         x="0" />
      <use
         height="100%"
         width="100%"
         transform="translate(1.0615267e-8,177.16536)"
         id="use12235"
         xlink:href="#use11793"
         y="0"
         x="0" />
      <use
         height="100%"
         width="100%"
         transform="translate(-2.7966799e-7,177.16536)"
         id="use12237"
         xlink:href="#use11795"
         y="0"
         x="0" />
      <use
         height="100%"
         width="100%"
         transform="translate(-4.923144e-7,177.16536)"
         id="use12239"
         xlink:href="#use11797"
         y="0"
         x="0" />
      <use
         height="100%"
         width="100%"
         transform="translate(2.1740246e-7,177.16536)"
         id="use12241"
         xlink:href="#use11799"
         y="0"
         x="0" />
      <use
         height="100%"
         width="100%"
         transform="translate(3.0047558e-6,177.16536)"
         id="use12243"
         xlink:href="#use11801"
         y="0"
         x="0" />
      <use
         height="100%"
         width="100%"
         transform="translate(1.7144727e-6,177.16536)"
         id="use12245"
         xlink:href="#use11921"
         y="0"
         x="0" />
      <use
         height="100%"
         width="100%"
         transform="translate(3.5018262e-6,177.16536)"
         id="use12247"
         xlink:href="#use12051"
         y="0"
         x="0" />
      <use
         height="100%"
         width="100%"
         transform="translate(2.2115431e-6,177.16536)"
         id="use12249"
         xlink:href="#use12227"
         y="0"
         x="0" />
      <use
         height="100%"
         width="100%"
         transform="translate(354.33072,0)"
         id="use4894"
         xlink:href="#use11781"
         y="0"
         x="0" />
      <use
         height="100%"
         width="100%"
         transform="translate(354.33072,3.7751056e-7)"
         id="use4896"
         xlink:href="#use11783"
         y="0"
         x="0" />
      <use
         height="100%"
         width="100%"
         transform="translate(354.33072,-3.3096217e-7)"
         id="use4898"
         xlink:href="#use11785"
         y="0"
         x="0" />
      <use
         height="100%"
         width="100%"
         transform="translate(354.33072,-1.2541886e-7)"
         id="use4900"
         xlink:href="#use11787"
         y="0"
         x="0" />
      <use
         height="100%"
         width="100%"
         transform="translate(354.33071,1.6610807e-7)"
         id="use4902"
         xlink:href="#use11801"
         y="0"
         x="0" />
      <use
         height="100%"
         width="100%"
         transform="translate(354.33072,0)"
         id="use4904"
         xlink:href="#use11913"
         y="0"
         x="0" />
      <use
         height="100%"
         width="100%"
         transform="translate(354.33072,3.7751079e-7)"
         id="use4906"
         xlink:href="#use11915"
         y="0"
         x="0" />
      <use
         height="100%"
         width="100%"
         transform="translate(354.33072,-3.3096217e-7)"
         id="use4908"
         xlink:href="#use11917"
         y="0"
         x="0" />
      <use
         height="100%"
         width="100%"
         transform="translate(354.33072,-1.2541886e-7)"
         id="use4910"
         xlink:href="#use11919"
         y="0"
         x="0" />
      <use
         height="100%"
         width="100%"
         transform="translate(354.33072,1.6610807e-7)"
         id="use4912"
         xlink:href="#use11921"
         y="0"
         x="0" />
      <use
         height="100%"
         width="100%"
         transform="translate(354.33072,0)"
         id="use4914"
         xlink:href="#use12043"
         y="0"
         x="0" />
      <use
         height="100%"
         width="100%"
         transform="translate(354.33072,-7.9497568e-8)"
         id="use4916"
         xlink:href="#use12045"
         y="0"
         x="0" />
      <use
         height="100%"
         width="100%"
         transform="translate(354.33072,2.1202959e-7)"
         id="use4918"
         xlink:href="#use12047"
         y="0"
         x="0" />
      <use
         height="100%"
         width="100%"
         transform="translate(354.33072,4.1757289e-7)"
         id="use4920"
         xlink:href="#use12049"
         y="0"
         x="0" />
      <use
         height="100%"
         width="100%"
         transform="translate(354.33072,-2.9090006e-7)"
         id="use4922"
         xlink:href="#use12051"
         y="0"
         x="0" />
      <use
         height="100%"
         width="100%"
         transform="translate(354.33072,3.7165137e-7)"
         id="use4924"
         xlink:href="#use12065"
         y="0"
         x="0" />
      <use
         height="100%"
         width="100%"
         transform="translate(354.33072,3.7165137e-7)"
         id="use4926"
         xlink:href="#use12067"
         y="0"
         x="0" />
      <use
         height="100%"
         width="100%"
         transform="translate(354.33071,-8.535676e-8)"
         id="use4928"
         xlink:href="#use12069"
         y="0"
         x="0" />
      <use
         height="100%"
         width="100%"
         transform="translate(354.33072,-3.3368215e-6)"
         id="use4942"
         xlink:href="#use12243"
         y="0"
         x="0" />
      <use
         height="100%"
         width="100%"
         transform="translate(354.33072,4.6631785e-6)"
         id="use4944"
         xlink:href="#use12245"
         y="0"
         x="0" />
      <use
         height="100%"
         width="100%"
         transform="translate(354.33072,2.0617017e-7)"
         id="use4946"
         xlink:href="#use12247"
         y="0"
         x="0" />
      <use
         height="100%"
         width="100%"
         transform="translate(1.5274736e-7,354.33072)"
         id="use4950"
         xlink:href="#use11507"
         y="0"
         x="0" />
      <use
         height="100%"
         width="100%"
         transform="translate(4.4303057e-7,354.33072)"
         id="use4952"
         xlink:href="#use11509"
         y="0"
         x="0" />
      <use
         height="100%"
         width="100%"
         transform="translate(-3.4432292e-7,354.33072)"
         id="use4954"
         xlink:href="#use11511"
         y="0"
         x="0" />
      <use
         height="100%"
         width="100%"
         transform="translate(-5.4039717e-8,354.33072)"
         id="use4956"
         xlink:href="#use11513"
         y="0"
         x="0" />
      <use
         height="100%"
         width="100%"
         transform="translate(-5.9899051e-8,354.33072)"
         id="use4958"
         xlink:href="#use11515"
         y="0"
         x="0" />
      <use
         height="100%"
         width="100%"
         transform="translate(6.4981781e-7,354.33072)"
         id="use4960"
         xlink:href="#use11603"
         y="0"
         x="0" />
      <use
         height="100%"
         width="100%"
         transform="translate(2.4371712e-6,354.33071)"
         id="use4962"
         xlink:href="#use11787"
         y="0"
         x="0" />
      <use
         height="100%"
         width="100%"
         transform="translate(0,354.33072)"
         id="use4964"
         xlink:href="#use11789"
         y="0"
         x="0" />
      <use
         height="100%"
         width="100%"
         transform="translate(2.2326176e-7,354.33072)"
         id="use4966"
         xlink:href="#use11791"
         y="0"
         x="0" />
      <use
         height="100%"
         width="100%"
         transform="translate(1.0615267e-8,354.33072)"
         id="use4968"
         xlink:href="#use11793"
         y="0"
         x="0" />
      <use
         height="100%"
         width="100%"
         transform="translate(-2.7966793e-7,354.33072)"
         id="use4970"
         xlink:href="#use11795"
         y="0"
         x="0" />
      <use
         height="100%"
         width="100%"
         transform="translate(-4.923144e-7,354.33072)"
         id="use4972"
         xlink:href="#use11797"
         y="0"
         x="0" />
      <use
         height="100%"
         width="100%"
         transform="translate(2.1740246e-7,354.33072)"
         id="use4974"
         xlink:href="#use11799"
         y="0"
         x="0" />
      <use
         height="100%"
         width="100%"
         transform="translate(-4.9952441e-6,354.33072)"
         id="use4976"
         xlink:href="#use11801"
         y="0"
         x="0" />
      <use
         height="100%"
         width="100%"
         transform="translate(1.4688791e-7,354.33072)"
         id="use4978"
         xlink:href="#use11919"
         y="0"
         x="0" />
      <use
         height="100%"
         width="100%"
         transform="translate(-2.2855273e-6,354.33071)"
         id="use4980"
         xlink:href="#use11921"
         y="0"
         x="0" />
      <use
         height="100%"
         width="100%"
         transform="translate(1.9342415e-6,354.33072)"
         id="use4982"
         xlink:href="#use12049"
         y="0"
         x="0" />
      <use
         height="100%"
         width="100%"
         transform="translate(4.5018262e-6,354.33072)"
         id="use4984"
         xlink:href="#use12051"
         y="0"
         x="0" />
      <use
         height="100%"
         width="100%"
         transform="translate(-3.5604157e-7,354.33072)"
         id="use5004"
         xlink:href="#use12225"
         y="0"
         x="0" />
      <use
         height="100%"
         width="100%"
         transform="translate(-2.788457e-6,354.33072)"
         id="use5006"
         xlink:href="#use12227"
         y="0"
         x="0" />
      <use
         height="100%"
         width="100%"
         transform="translate(1.4313119e-6,354.33072)"
         id="use5030"
         xlink:href="#use4900"
         y="0"
         x="0" />
      <use
         height="100%"
         width="100%"
         transform="translate(3.9988966e-6,354.33072)"
         id="use5032"
         xlink:href="#use4902"
         y="0"
         x="0" />
      <use
         height="100%"
         width="100%"
         transform="translate(-8.5897128e-7,354.33071)"
         id="use5034"
         xlink:href="#use4910"
         y="0"
         x="0" />
      <use
         height="100%"
         width="100%"
         transform="translate(-3.2913867e-6,354.33071)"
         id="use5036"
         xlink:href="#use4912"
         y="0"
         x="0" />
      <use
         height="100%"
         width="100%"
         transform="translate(9.2838232e-7,354.33072)"
         id="use5038"
         xlink:href="#use4920"
         y="0"
         x="0" />
      <use
         height="100%"
         width="100%"
         transform="translate(3.4959668e-6,354.33072)"
         id="use5040"
         xlink:href="#use4922"
         y="0"
         x="0" />
      <use
         height="100%"
         width="100%"
         transform="translate(354.33072,-7.5502157e-7)"
         id="use5355"
         xlink:href="#use12219"
         y="0"
         x="0" />
      <use
         height="100%"
         width="100%"
         transform="translate(354.33072,-7.5502157e-7)"
         id="use5357"
         xlink:href="#use12221"
         y="0"
         x="0" />
      <use
         height="100%"
         width="100%"
         transform="translate(354.33072,-7.5502157e-7)"
         id="use5359"
         xlink:href="#use12223"
         y="0"
         x="0" />
      <use
         height="100%"
         width="100%"
         transform="translate(354.33072,-7.5502157e-7)"
         id="use5361"
         xlink:href="#use12225"
         y="0"
         x="0" />
      <use
         height="100%"
         width="100%"
         transform="translate(354.33072,-7.5502157e-7)"
         id="use5363"
         xlink:href="#use12227"
         y="0"
         x="0" />
      <use
         height="100%"
         width="100%"
         transform="translate(354.33072,-7.5502157e-7)"
         id="use5365"
         xlink:href="#use12229"
         y="0"
         x="0" />
      <use
         height="100%"
         width="100%"
         transform="translate(354.33072,-7.5502157e-7)"
         id="use5367"
         xlink:href="#use12249"
         y="0"
         x="0" />
      <use
         height="100%"
         width="100%"
         transform="translate(354.33072,-7.5502157e-7)"
         id="use5369"
         xlink:href="#use4894"
         y="0"
         x="0" />
      <use
         height="100%"
         width="100%"
         transform="translate(354.33072,-7.5502157e-7)"
         id="use5371"
         xlink:href="#use4896"
         y="0"
         x="0" />
      <use
         height="100%"
         width="100%"
         transform="translate(354.33072,-7.5502157e-7)"
         id="use5373"
         xlink:href="#use4898"
         y="0"
         x="0" />
      <use
         height="100%"
         width="100%"
         transform="translate(354.33072,-7.5502157e-7)"
         id="use5375"
         xlink:href="#use4900"
         y="0"
         x="0" />
      <use
         height="100%"
         width="100%"
         transform="translate(354.33072,-7.5502157e-7)"
         id="use5377"
         xlink:href="#use4902"
         y="0"
         x="0" />
      <use
         height="100%"
         width="100%"
         transform="translate(354.33072,-7.5502157e-7)"
         id="use5379"
         xlink:href="#use4904"
         y="0"
         x="0" />
      <use
         height="100%"
         width="100%"
         transform="translate(354.33072,-7.5502157e-7)"
         id="use5381"
         xlink:href="#use4906"
         y="0"
         x="0" />
      <use
         height="100%"
         width="100%"
         transform="translate(354.33072,-7.5502157e-7)"
         id="use5383"
         xlink:href="#use4908"
         y="0"
         x="0" />
      <use
         height="100%"
         width="100%"
         transform="translate(354.33072,-7.5502157e-7)"
         id="use5385"
         xlink:href="#use4910"
         y="0"
         x="0" />
      <use
         height="100%"
         width="100%"
         transform="translate(354.33072,-7.5502157e-7)"
         id="use5387"
         xlink:href="#use4912"
         y="0"
         x="0" />
      <use
         height="100%"
         width="100%"
         transform="translate(354.33072,-7.5502157e-7)"
         id="use5399"
         xlink:href="#use4924"
         y="0"
         x="0" />
      <use
         height="100%"
         width="100%"
         transform="translate(354.33072,-7.5502157e-7)"
         id="use5401"
         xlink:href="#use4926"
         y="0"
         x="0" />
      <use
         height="100%"
         width="100%"
         transform="translate(354.33072,-7.5502157e-7)"
         id="use5405"
         xlink:href="#use4942"
         y="0"
         x="0" />
      <use
         height="100%"
         width="100%"
         transform="translate(354.33072,-7.5502157e-7)"
         id="use5407"
         xlink:href="#use4944"
         y="0"
         x="0" />
      <use
         height="100%"
         width="100%"
         transform="translate(354.33072,-7.5502157e-7)"
         id="use5411"
         xlink:href="#use5004"
         y="0"
         x="0" />
      <use
         height="100%"
         width="100%"
         transform="translate(354.33072,-7.5502157e-7)"
         id="use5413"
         xlink:href="#use5006"
         y="0"
         x="0" />
      <use
         height="100%"
         width="100%"
         transform="translate(354.33072,-7.5502157e-7)"
         id="use5415"
         xlink:href="#use5030"
         y="0"
         x="0" />
      <use
         height="100%"
         width="100%"
         transform="translate(354.33072,-7.5502157e-7)"
         id="use5417"
         xlink:href="#use5032"
         y="0"
         x="0" />
      <use
         height="100%"
         width="100%"
         transform="translate(354.33072,-7.5502157e-7)"
         id="use5419"
         xlink:href="#use5034"
         y="0"
         x="0" />
      <use
         height="100%"
         width="100%"
         transform="translate(354.33072,-7.5502157e-7)"
         id="use5421"
         xlink:href="#use5036"
         y="0"
         x="0" />
      <use
         height="100%"
         width="100%"
         transform="translate(5.7406054e-6,354.33073)"
         id="use5427"
         xlink:href="#use12053"
         y="0"
         x="0" />
      <use
         height="100%"
         width="100%"
         transform="translate(5.7406054e-6,354.33073)"
         id="use5429"
         xlink:href="#use12055"
         y="0"
         x="0" />
      <use
         height="100%"
         width="100%"
         transform="translate(5.7406054e-6,354.33073)"
         id="use5431"
         xlink:href="#use12057"
         y="0"
         x="0" />
      <use
         height="100%"
         width="100%"
         transform="translate(5.7406054e-6,354.33073)"
         id="use5433"
         xlink:href="#use12059"
         y="0"
         x="0" />
      <use
         height="100%"
         width="100%"
         transform="translate(5.7406054e-6,354.33073)"
         id="use5435"
         xlink:href="#use12061"
         y="0"
         x="0" />
      <use
         height="100%"
         width="100%"
         transform="translate(5.7406054e-6,354.33073)"
         id="use5437"
         xlink:href="#use12063"
         y="0"
         x="0" />
      <use
         height="100%"
         width="100%"
         transform="translate(5.7406054e-6,354.33073)"
         id="use5439"
         xlink:href="#use12065"
         y="0"
         x="0" />
      <use
         height="100%"
         width="100%"
         transform="translate(5.7406054e-6,354.33073)"
         id="use5441"
         xlink:href="#use12067"
         y="0"
         x="0" />
      <use
         height="100%"
         width="100%"
         transform="translate(5.7406054e-6,354.33073)"
         id="use5443"
         xlink:href="#use12069"
         y="0"
         x="0" />
      <use
         height="100%"
         width="100%"
         transform="translate(5.7406054e-6,354.33073)"
         id="use5445"
         xlink:href="#use12229"
         y="0"
         x="0" />
      <use
         height="100%"
         width="100%"
         transform="translate(5.7406054e-6,354.33073)"
         id="use5447"
         xlink:href="#use12231"
         y="0"
         x="0" />
      <use
         height="100%"
         width="100%"
         transform="translate(5.7406054e-6,354.33073)"
         id="use5449"
         xlink:href="#use12233"
         y="0"
         x="0" />
      <use
         height="100%"
         width="100%"
         transform="translate(5.7406054e-6,354.33073)"
         id="use5451"
         xlink:href="#use12235"
         y="0"
         x="0" />
      <use
         height="100%"
         width="100%"
         transform="translate(5.7406054e-6,354.33073)"
         id="use5453"
         xlink:href="#use12237"
         y="0"
         x="0" />
      <use
         height="100%"
         width="100%"
         transform="translate(5.7406054e-6,354.33073)"
         id="use5455"
         xlink:href="#use12239"
         y="0"
         x="0" />
      <use
         height="100%"
         width="100%"
         transform="translate(5.7406054e-6,354.33073)"
         id="use5457"
         xlink:href="#use12241"
         y="0"
         x="0" />
      <use
         height="100%"
         width="100%"
         transform="translate(5.7406054e-6,354.33073)"
         id="use5459"
         xlink:href="#use12243"
         y="0"
         x="0" />
      <use
         height="100%"
         width="100%"
         transform="translate(5.7406054e-6,354.33073)"
         id="use5461"
         xlink:href="#use12245"
         y="0"
         x="0" />
      <use
         height="100%"
         width="100%"
         transform="translate(5.7406054e-6,354.33073)"
         id="use5463"
         xlink:href="#use12247"
         y="0"
         x="0" />
      <use
         height="100%"
         width="100%"
         transform="translate(5.7406054e-6,354.33073)"
         id="use5465"
         xlink:href="#use12249"
         y="0"
         x="0" />
      <use
         height="100%"
         width="100%"
         transform="translate(5.7406054e-6,354.33073)"
         id="use5467"
         xlink:href="#use4924"
         y="0"
         x="0" />
      <use
         height="100%"
         width="100%"
         transform="translate(5.7406054e-6,354.33073)"
         id="use5469"
         xlink:href="#use4926"
         y="0"
         x="0" />
      <use
         height="100%"
         width="100%"
         transform="translate(5.7406054e-6,354.33073)"
         id="use5471"
         xlink:href="#use4928"
         y="0"
         x="0" />
      <use
         height="100%"
         width="100%"
         transform="translate(5.7406054e-6,354.33073)"
         id="use5473"
         xlink:href="#use4942"
         y="0"
         x="0" />
      <use
         height="100%"
         width="100%"
         transform="translate(5.7406054e-6,354.33073)"
         id="use5475"
         xlink:href="#use4944"
         y="0"
         x="0" />
      <use
         height="100%"
         width="100%"
         transform="translate(5.7406054e-6,354.33073)"
         id="use5477"
         xlink:href="#use4946"
         y="0"
         x="0" />
      <use
         height="100%"
         width="100%"
         transform="translate(5.7406054e-6,354.33073)"
         id="use5531"
         xlink:href="#use5365"
         y="0"
         x="0" />
      <use
         height="100%"
         width="100%"
         transform="translate(5.7406054e-6,354.33073)"
         id="use5533"
         xlink:href="#use5367"
         y="0"
         x="0" />
      <use
         height="100%"
         width="100%"
         transform="translate(5.7406054e-6,354.33073)"
         id="use5535"
         xlink:href="#use5399"
         y="0"
         x="0" />
      <use
         height="100%"
         width="100%"
         transform="translate(5.7406054e-6,354.33073)"
         id="use5537"
         xlink:href="#use5401"
         y="0"
         x="0" />
      <use
         height="100%"
         width="100%"
         transform="translate(5.7406054e-6,354.33073)"
         id="use5541"
         xlink:href="#use5405"
         y="0"
         x="0" />
      <use
         height="100%"
         width="100%"
         transform="translate(5.7406054e-6,354.33073)"
         id="use5543"
         xlink:href="#use5407"
         y="0"
         x="0" />
    </g>
  </g>
</svg>
