<?xml version="1.0" encoding="UTF-8" standalone="no"?>
<!-- Created with Inkscape (http://www.inkscape.org/) -->

<svg
   xmlns:dc="http://purl.org/dc/elements/1.1/"
   xmlns:cc="http://creativecommons.org/ns#"
   xmlns:rdf="http://www.w3.org/1999/02/22-rdf-syntax-ns#"
   xmlns:svg="http://www.w3.org/2000/svg"
   xmlns="http://www.w3.org/2000/svg"
   xmlns:xlink="http://www.w3.org/1999/xlink"
   xmlns:sodipodi="http://sodipodi.sourceforge.net/DTD/sodipodi-0.dtd"
   xmlns:inkscape="http://www.inkscape.org/namespaces/inkscape"
   width="841mm"
   height="594mm"
   viewBox="0 0 2979.9212 2104.7244"
   id="svg2"
   version="1.1"
   inkscape:version="0.91 r13725"
   sodipodi:docname="Checkerboard-A1-55mm-14x9.svg">
  <defs
     id="defs4" />
  <sodipodi:namedview
     id="base"
     pagecolor="#ffffff"
     bordercolor="#666666"
     borderopacity="1.0"
     inkscape:pageopacity="0.0"
     inkscape:pageshadow="2"
     inkscape:zoom="0.25"
     inkscape:cx="1604.0602"
     inkscape:cy="888.42415"
     inkscape:document-units="mm"
     inkscape:current-layer="layer1"
     showgrid="false"
     inkscape:snap-bbox="true"
     inkscape:bbox-nodes="true"
     inkscape:window-width="1521"
     inkscape:window-height="1367"
     inkscape:window-x="1013"
     inkscape:window-y="47"
     inkscape:window-maximized="0"
     inkscape:snap-page="true"
     showguides="false" />
  <metadata
     id="metadata7">
    <rdf:RDF>
      <cc:Work
         rdf:about="">
        <dc:format>image/svg+xml</dc:format>
        <dc:type
           rdf:resource="http://purl.org/dc/dcmitype/StillImage" />
        <dc:title></dc:title>
      </cc:Work>
    </rdf:RDF>
  </metadata>
  <g
     inkscape:label="Layer 1"
     inkscape:groupmode="layer"
     id="layer1"
     transform="translate(0,1052.3622)">
    <g
       id="g19252"
       transform="translate(28.346402,77.952709)">
      <rect
         y="-1052.3622"
         x="0"
         height="194.8819"
         width="194.8819"
         id="rect7484"
         style="opacity:0.93999999;fill:#000000;fill-opacity:1;stroke:none;stroke-width:1.79999995;stroke-linecap:round;stroke-linejoin:round;stroke-miterlimit:4;stroke-dasharray:none;stroke-dashoffset:0;stroke-opacity:1" />
      <rect
         y="-1052.3622"
         x="194.8819"
         height="194.8819"
         width="194.8819"
         id="rect7484-6"
         style="opacity:0.93999999;fill:#ffffff;fill-opacity:1;stroke:none;stroke-width:1.79999995;stroke-linecap:round;stroke-linejoin:round;stroke-miterlimit:4;stroke-dasharray:none;stroke-dashoffset:0;stroke-opacity:1" />
      <use
         height="100%"
         width="100%"
         transform="translate(389.76379,-1.640625e-6)"
         id="use14227"
         xlink:href="#rect7484"
         y="0"
         x="0" />
      <use
         transform="translate(389.76379,-1.640625e-6)"
         height="100%"
         width="100%"
         id="use14229"
         xlink:href="#rect7484-6"
         y="0"
         x="0" />
      <use
         height="100%"
         width="100%"
         transform="matrix(-1,0,0,1,389.76379,194.8819)"
         id="use14233"
         xlink:href="#rect7484"
         y="0"
         x="0" />
      <use
         height="100%"
         width="100%"
         transform="matrix(-1,0,0,1,389.76379,194.88189)"
         id="use14235"
         xlink:href="#rect7484-6"
         y="0"
         x="0" />
      <use
         height="100%"
         width="100%"
         transform="matrix(-1,0,0,1,779.52758,194.8819)"
         id="use14237"
         xlink:href="#rect7484"
         y="0"
         x="0" />
      <use
         height="100%"
         width="100%"
         transform="matrix(-1,0,0,1,779.52759,194.88189)"
         id="use14239"
         xlink:href="#rect7484-6"
         y="0"
         x="0" />
      <use
         height="100%"
         width="100%"
         transform="translate(-4.6047974e-8,389.76379)"
         id="use14243"
         xlink:href="#rect7484"
         y="0"
         x="0" />
      <use
         height="100%"
         width="100%"
         transform="translate(-4.6047974e-8,389.76379)"
         id="use14245"
         xlink:href="#rect7484-6"
         y="0"
         x="0" />
      <use
         height="100%"
         width="100%"
         transform="translate(389.76379,389.76379)"
         id="use14247"
         xlink:href="#rect7484"
         y="0"
         x="0" />
      <use
         height="100%"
         width="100%"
         transform="translate(389.76379,389.76379)"
         id="use14249"
         xlink:href="#rect7484-6"
         y="0"
         x="0" />
      <use
         height="100%"
         width="100%"
         transform="translate(779.52759,-1.640625e-6)"
         id="use15187"
         xlink:href="#rect7484"
         y="0"
         x="0" />
      <use
         height="100%"
         width="100%"
         transform="translate(779.52759,-1.640625e-6)"
         id="use15189"
         xlink:href="#use14235"
         y="0"
         x="0" />
      <use
         height="100%"
         width="100%"
         transform="translate(779.52759,-1.640625e-6)"
         id="use15191"
         xlink:href="#use14243"
         y="0"
         x="0" />
      <use
         height="100%"
         width="100%"
         transform="translate(-1.4604797e-7,389.76379)"
         id="use15693"
         xlink:href="#use14233"
         y="0"
         x="0" />
      <use
         height="100%"
         width="100%"
         transform="translate(2.5395203e-7,389.7638)"
         id="use15695"
         xlink:href="#use14235"
         y="0"
         x="0" />
      <use
         height="100%"
         width="100%"
         transform="translate(-2.4604797e-7,389.76379)"
         id="use15697"
         xlink:href="#use14237"
         y="0"
         x="0" />
      <use
         height="100%"
         width="100%"
         transform="translate(2.5395203e-7,389.7638)"
         id="use15699"
         xlink:href="#use14239"
         y="0"
         x="0" />
      <use
         height="100%"
         width="100%"
         transform="translate(1.5395203e-7,389.76379)"
         id="use15701"
         xlink:href="#use15189"
         y="0"
         x="0" />
      <use
         height="100%"
         width="100%"
         transform="translate(389.7638,-1.640625e-6)"
         id="use15802"
         xlink:href="#use14229"
         y="0"
         x="0" />
      <use
         height="100%"
         width="100%"
         transform="translate(389.7638,-1.640625e-6)"
         id="use15804"
         xlink:href="#use14237"
         y="0"
         x="0" />
      <use
         height="100%"
         width="100%"
         transform="translate(389.7638,-1.640625e-6)"
         id="use15806"
         xlink:href="#use14249"
         y="0"
         x="0" />
      <use
         height="100%"
         width="100%"
         transform="translate(389.7638,-1.640625e-6)"
         id="use15808"
         xlink:href="#use15697"
         y="0"
         x="0" />
      <use
         height="100%"
         width="100%"
         transform="translate(389.76379,-1.640625e-6)"
         id="use16162"
         xlink:href="#use15187"
         y="0"
         x="0" />
      <use
         height="100%"
         width="100%"
         transform="translate(389.76379,-1.640625e-6)"
         id="use16164"
         xlink:href="#use15189"
         y="0"
         x="0" />
      <use
         height="100%"
         width="100%"
         transform="translate(389.76379,-1.640625e-6)"
         id="use16166"
         xlink:href="#use15191"
         y="0"
         x="0" />
      <use
         height="100%"
         width="100%"
         transform="translate(389.76379,-1.640625e-6)"
         id="use16168"
         xlink:href="#use15701"
         y="0"
         x="0" />
      <use
         height="100%"
         width="100%"
         transform="translate(-4.6047974e-8,389.7638)"
         id="use16170"
         xlink:href="#use14243"
         y="0"
         x="0" />
      <use
         height="100%"
         width="100%"
         transform="translate(2.5395203e-7,389.7638)"
         id="use16172"
         xlink:href="#use14245"
         y="0"
         x="0" />
      <use
         height="100%"
         width="100%"
         transform="translate(3.5395203e-7,389.7638)"
         id="use16174"
         xlink:href="#use14247"
         y="0"
         x="0" />
      <use
         height="100%"
         width="100%"
         transform="translate(-1.4604797e-7,389.7638)"
         id="use16176"
         xlink:href="#use14249"
         y="0"
         x="0" />
      <use
         height="100%"
         width="100%"
         transform="translate(-3.4604797e-7,389.7638)"
         id="use16178"
         xlink:href="#use15191"
         y="0"
         x="0" />
      <use
         height="100%"
         width="100%"
         transform="translate(-2.4604797e-7,389.7638)"
         id="use16180"
         xlink:href="#use15806"
         y="0"
         x="0" />
      <use
         height="100%"
         width="100%"
         transform="translate(-1.446048e-6,389.7638)"
         id="use16182"
         xlink:href="#use16166"
         y="0"
         x="0" />
      <use
         height="100%"
         width="100%"
         transform="translate(389.76379,-1.640625e-6)"
         id="use16794"
         xlink:href="#use15802"
         y="0"
         x="0" />
      <use
         height="100%"
         width="100%"
         transform="translate(389.76379,-1.640625e-6)"
         id="use16796"
         xlink:href="#use15804"
         y="0"
         x="0" />
      <use
         height="100%"
         width="100%"
         transform="translate(389.76379,-1.640625e-6)"
         id="use16798"
         xlink:href="#use15806"
         y="0"
         x="0" />
      <use
         height="100%"
         width="100%"
         transform="translate(389.76379,-1.640625e-6)"
         id="use16800"
         xlink:href="#use15808"
         y="0"
         x="0" />
      <use
         height="100%"
         width="100%"
         transform="translate(389.7638,-1.640625e-6)"
         id="use16802"
         xlink:href="#use16180"
         y="0"
         x="0" />
      <use
         height="100%"
         width="100%"
         transform="translate(1.5395203e-7,389.76379)"
         id="use17161"
         xlink:href="#use15693"
         y="0"
         x="0" />
      <use
         height="100%"
         width="100%"
         transform="translate(-3.4604797e-7,389.76379)"
         id="use17163"
         xlink:href="#use15695"
         y="0"
         x="0" />
      <use
         height="100%"
         width="100%"
         transform="translate(1.5395203e-7,389.76379)"
         id="use17165"
         xlink:href="#use15697"
         y="0"
         x="0" />
      <use
         height="100%"
         width="100%"
         transform="translate(-4.4604797e-7,389.76379)"
         id="use17167"
         xlink:href="#use15699"
         y="0"
         x="0" />
      <use
         height="100%"
         width="100%"
         transform="translate(-4.4604797e-7,389.76379)"
         id="use17169"
         xlink:href="#use15701"
         y="0"
         x="0" />
      <use
         height="100%"
         width="100%"
         transform="translate(4.053952e-6,389.76379)"
         id="use17171"
         xlink:href="#use15808"
         y="0"
         x="0" />
      <use
         height="100%"
         width="100%"
         transform="translate(4.5395203e-7,389.76379)"
         id="use17173"
         xlink:href="#use16168"
         y="0"
         x="0" />
      <use
         height="100%"
         width="100%"
         transform="translate(-1.946048e-6,389.76379)"
         id="use17175"
         xlink:href="#use16800"
         y="0"
         x="0" />
      <use
         height="100%"
         width="100%"
         transform="translate(389.7638,-1.640625e-6)"
         id="use17325"
         xlink:href="#use16162"
         y="0"
         x="0" />
      <use
         height="100%"
         width="100%"
         transform="translate(389.7638,-1.640625e-6)"
         id="use17327"
         xlink:href="#use16164"
         y="0"
         x="0" />
      <use
         height="100%"
         width="100%"
         transform="translate(389.76379,-1.640625e-6)"
         id="use17329"
         xlink:href="#use16166"
         y="0"
         x="0" />
      <use
         height="100%"
         width="100%"
         transform="translate(389.7638,-1.640625e-6)"
         id="use17331"
         xlink:href="#use16168"
         y="0"
         x="0" />
      <use
         height="100%"
         width="100%"
         transform="translate(389.76379,-1.640625e-6)"
         id="use17333"
         xlink:href="#use16182"
         y="0"
         x="0" />
      <use
         height="100%"
         width="100%"
         transform="translate(389.76379,-1.640625e-6)"
         id="use17335"
         xlink:href="#use17173"
         y="0"
         x="0" />
      <use
         height="100%"
         width="100%"
         transform="translate(389.76379,-1.640625e-6)"
         id="use17807"
         xlink:href="#use16794"
         y="0"
         x="0" />
      <use
         height="100%"
         width="100%"
         transform="translate(389.7638,-1.640625e-6)"
         id="use17809"
         xlink:href="#use16796"
         y="0"
         x="0" />
      <use
         height="100%"
         width="100%"
         transform="translate(389.76379,-1.640625e-6)"
         id="use17811"
         xlink:href="#use16798"
         y="0"
         x="0" />
      <use
         height="100%"
         width="100%"
         transform="translate(389.76379,-1.640625e-6)"
         id="use17813"
         xlink:href="#use16800"
         y="0"
         x="0" />
      <use
         height="100%"
         width="100%"
         transform="translate(389.76379,-1.640625e-6)"
         id="use17815"
         xlink:href="#use16802"
         y="0"
         x="0" />
      <use
         height="100%"
         width="100%"
         transform="translate(389.76379,-1.640625e-6)"
         id="use17817"
         xlink:href="#use17175"
         y="0"
         x="0" />
      <use
         height="100%"
         width="100%"
         transform="translate(-4.6047974e-8,389.76379)"
         id="use17819"
         xlink:href="#use16170"
         y="0"
         x="0" />
      <use
         height="100%"
         width="100%"
         transform="translate(-3.4604797e-7,389.76379)"
         id="use17821"
         xlink:href="#use16172"
         y="0"
         x="0" />
      <use
         height="100%"
         width="100%"
         transform="translate(-3.4604797e-7,389.76379)"
         id="use17823"
         xlink:href="#use16174"
         y="0"
         x="0" />
      <use
         height="100%"
         width="100%"
         transform="translate(2.5395203e-7,389.76379)"
         id="use17825"
         xlink:href="#use16176"
         y="0"
         x="0" />
      <use
         height="100%"
         width="100%"
         transform="translate(5.3952026e-8,389.76379)"
         id="use17827"
         xlink:href="#use16178"
         y="0"
         x="0" />
      <use
         height="100%"
         width="100%"
         transform="translate(1.5395203e-7,389.76379)"
         id="use17829"
         xlink:href="#use16180"
         y="0"
         x="0" />
      <use
         height="100%"
         width="100%"
         transform="translate(-3.046048e-6,389.76379)"
         id="use17831"
         xlink:href="#use16182"
         y="0"
         x="0" />
      <use
         height="100%"
         width="100%"
         transform="translate(-3.846048e-6,389.76379)"
         id="use17833"
         xlink:href="#use16802"
         y="0"
         x="0" />
      <use
         height="100%"
         width="100%"
         transform="translate(9.5395203e-7,389.76379)"
         id="use17835"
         xlink:href="#use17333"
         y="0"
         x="0" />
      <use
         height="100%"
         width="100%"
         transform="translate(5.3952026e-8,389.76379)"
         id="use17837"
         xlink:href="#use17815"
         y="0"
         x="0" />
      <use
         height="100%"
         width="100%"
         transform="translate(389.76379,-1.640625e-6)"
         id="use18019"
         xlink:href="#use17325"
         y="0"
         x="0" />
      <use
         height="100%"
         width="100%"
         transform="translate(389.76379,-1.640625e-6)"
         id="use18021"
         xlink:href="#use17327"
         y="0"
         x="0" />
      <use
         height="100%"
         width="100%"
         transform="translate(389.7638,-1.640625e-6)"
         id="use18023"
         xlink:href="#use17329"
         y="0"
         x="0" />
      <use
         height="100%"
         width="100%"
         transform="translate(389.76379,-1.640625e-6)"
         id="use18025"
         xlink:href="#use17331"
         y="0"
         x="0" />
      <use
         height="100%"
         width="100%"
         transform="translate(389.7638,-1.640625e-6)"
         id="use18027"
         xlink:href="#use17333"
         y="0"
         x="0" />
      <use
         height="100%"
         width="100%"
         transform="translate(389.7638,-1.640625e-6)"
         id="use18029"
         xlink:href="#use17335"
         y="0"
         x="0" />
      <use
         height="100%"
         width="100%"
         transform="translate(389.76379,-1.640625e-6)"
         id="use18031"
         xlink:href="#use17835"
         y="0"
         x="0" />
      <use
         height="100%"
         width="100%"
         transform="translate(389.7638,-1.640625e-6)"
         id="use18249"
         xlink:href="#use17807"
         y="0"
         x="0" />
      <use
         height="100%"
         width="100%"
         transform="translate(389.76379,-1.640625e-6)"
         id="use18251"
         xlink:href="#use17809"
         y="0"
         x="0" />
      <use
         height="100%"
         width="100%"
         transform="translate(389.7638,-1.640625e-6)"
         id="use18253"
         xlink:href="#use17811"
         y="0"
         x="0" />
      <use
         height="100%"
         width="100%"
         transform="translate(389.7638,-1.640625e-6)"
         id="use18255"
         xlink:href="#use17813"
         y="0"
         x="0" />
      <use
         height="100%"
         width="100%"
         transform="translate(389.7638,-1.640625e-6)"
         id="use18257"
         xlink:href="#use17815"
         y="0"
         x="0" />
      <use
         height="100%"
         width="100%"
         transform="translate(389.7638,-1.640625e-6)"
         id="use18259"
         xlink:href="#use17817"
         y="0"
         x="0" />
      <use
         height="100%"
         width="100%"
         transform="translate(389.76379,-1.640625e-6)"
         id="use18261"
         xlink:href="#use17837"
         y="0"
         x="0" />
      <use
         height="100%"
         width="100%"
         transform="translate(-4.4604797e-7,389.7638)"
         id="use18263"
         xlink:href="#use17161"
         y="0"
         x="0" />
      <use
         height="100%"
         width="100%"
         transform="translate(5.3952026e-8,389.7638)"
         id="use18265"
         xlink:href="#use17163"
         y="0"
         x="0" />
      <use
         height="100%"
         width="100%"
         transform="translate(-4.4604797e-7,389.7638)"
         id="use18267"
         xlink:href="#use17165"
         y="0"
         x="0" />
      <use
         height="100%"
         width="100%"
         transform="translate(-4.6047974e-8,389.7638)"
         id="use18269"
         xlink:href="#use17167"
         y="0"
         x="0" />
      <use
         height="100%"
         width="100%"
         transform="translate(-4.6047974e-8,389.7638)"
         id="use18271"
         xlink:href="#use17169"
         y="0"
         x="0" />
      <use
         height="100%"
         width="100%"
         transform="translate(2.453952e-6,389.7638)"
         id="use18273"
         xlink:href="#use17171"
         y="0"
         x="0" />
      <use
         height="100%"
         width="100%"
         transform="translate(-1.146048e-6,389.7638)"
         id="use18275"
         xlink:href="#use17173"
         y="0"
         x="0" />
      <use
         height="100%"
         width="100%"
         transform="translate(-3.646048e-6,389.7638)"
         id="use18277"
         xlink:href="#use17175"
         y="0"
         x="0" />
      <use
         height="100%"
         width="100%"
         transform="translate(2.853952e-6,389.7638)"
         id="use18279"
         xlink:href="#use17335"
         y="0"
         x="0" />
      <use
         height="100%"
         width="100%"
         transform="translate(3.5395203e-7,389.7638)"
         id="use18281"
         xlink:href="#use17817"
         y="0"
         x="0" />
      <use
         height="100%"
         width="100%"
         transform="translate(-3.246048e-6,389.7638)"
         id="use18283"
         xlink:href="#use18029"
         y="0"
         x="0" />
      <use
         height="100%"
         width="100%"
         transform="translate(4.253952e-6,389.7638)"
         id="use18285"
         xlink:href="#use18259"
         y="0"
         x="0" />
      <use
         height="100%"
         width="100%"
         transform="translate(-4.6047974e-8,389.76379)"
         id="use18519"
         xlink:href="#use17819"
         y="0"
         x="0" />
      <use
         height="100%"
         width="100%"
         transform="translate(5.3952026e-8,389.76379)"
         id="use18521"
         xlink:href="#use17821"
         y="0"
         x="0" />
      <use
         height="100%"
         width="100%"
         transform="translate(5.3952026e-8,389.76379)"
         id="use18523"
         xlink:href="#use17823"
         y="0"
         x="0" />
      <use
         height="100%"
         width="100%"
         transform="translate(-4.4604797e-7,389.76379)"
         id="use18525"
         xlink:href="#use17825"
         y="0"
         x="0" />
      <use
         height="100%"
         width="100%"
         transform="translate(3.5395203e-7,389.7638)"
         id="use18527"
         xlink:href="#use17827"
         y="0"
         x="0" />
      <use
         height="100%"
         width="100%"
         transform="translate(-4.4604797e-7,389.76379)"
         id="use18529"
         xlink:href="#use17829"
         y="0"
         x="0" />
      <use
         height="100%"
         width="100%"
         transform="translate(-4.646048e-6,389.7638)"
         id="use18531"
         xlink:href="#use17831"
         y="0"
         x="0" />
      <use
         height="100%"
         width="100%"
         transform="translate(4.453952e-6,389.76379)"
         id="use18533"
         xlink:href="#use17833"
         y="0"
         x="0" />
      <use
         height="100%"
         width="100%"
         transform="translate(-7.4604797e-7,389.76379)"
         id="use18535"
         xlink:href="#use17835"
         y="0"
         x="0" />
      <use
         height="100%"
         width="100%"
         transform="translate(-1.546048e-6,389.76379)"
         id="use18537"
         xlink:href="#use17837"
         y="0"
         x="0" />
      <use
         height="100%"
         width="100%"
         transform="translate(3.253952e-6,389.76379)"
         id="use18539"
         xlink:href="#use18031"
         y="0"
         x="0" />
      <use
         height="100%"
         width="100%"
         transform="translate(2.353952e-6,389.76379)"
         id="use18541"
         xlink:href="#use18261"
         y="0"
         x="0" />
      <use
         height="100%"
         width="100%"
         transform="translate(389.76379,-1.640625e-6)"
         id="use18799"
         xlink:href="#use18019"
         y="0"
         x="0" />
      <use
         height="100%"
         width="100%"
         transform="translate(389.7638,-1.640625e-6)"
         id="use18801"
         xlink:href="#use18021"
         y="0"
         x="0" />
      <use
         height="100%"
         width="100%"
         transform="translate(389.76379,-1.640625e-6)"
         id="use18803"
         xlink:href="#use18023"
         y="0"
         x="0" />
      <use
         height="100%"
         width="100%"
         transform="translate(389.76379,-1.640625e-6)"
         id="use18805"
         xlink:href="#use18025"
         y="0"
         x="0" />
      <use
         height="100%"
         width="100%"
         transform="translate(389.76379,-1.640625e-6)"
         id="use18807"
         xlink:href="#use18027"
         y="0"
         x="0" />
      <use
         height="100%"
         width="100%"
         transform="translate(389.76379,-1.640625e-6)"
         id="use18809"
         xlink:href="#use18029"
         y="0"
         x="0" />
      <use
         height="100%"
         width="100%"
         transform="translate(389.7638,8.359375e-6)"
         id="use18811"
         xlink:href="#use18031"
         y="0"
         x="0" />
      <use
         height="100%"
         width="100%"
         transform="translate(389.76379,-1.640625e-6)"
         id="use18813"
         xlink:href="#use18249"
         y="0"
         x="0" />
      <use
         height="100%"
         width="100%"
         transform="translate(389.76379,-1.640625e-6)"
         id="use18815"
         xlink:href="#use18251"
         y="0"
         x="0" />
      <use
         height="100%"
         width="100%"
         transform="translate(389.76379,-1.640625e-6)"
         id="use18817"
         xlink:href="#use18253"
         y="0"
         x="0" />
      <use
         height="100%"
         width="100%"
         transform="translate(389.76379,-1.640625e-6)"
         id="use18819"
         xlink:href="#use18255"
         y="0"
         x="0" />
      <use
         height="100%"
         width="100%"
         transform="translate(389.76379,-1.640625e-6)"
         id="use18821"
         xlink:href="#use18257"
         y="0"
         x="0" />
      <use
         height="100%"
         width="100%"
         transform="translate(389.76379,-1.640625e-6)"
         id="use18823"
         xlink:href="#use18259"
         y="0"
         x="0" />
      <use
         height="100%"
         width="100%"
         transform="translate(389.7638,-1.640625e-6)"
         id="use18825"
         xlink:href="#use18261"
         y="0"
         x="0" />
      <use
         height="100%"
         width="100%"
         transform="translate(389.76379,-1.640625e-6)"
         id="use18827"
         xlink:href="#use18283"
         y="0"
         x="0" />
      <use
         height="100%"
         width="100%"
         transform="translate(389.7638,-1.640625e-6)"
         id="use18829"
         xlink:href="#use18285"
         y="0"
         x="0" />
      <use
         height="100%"
         width="100%"
         transform="translate(389.7638,-1.640625e-6)"
         id="use18831"
         xlink:href="#use18539"
         y="0"
         x="0" />
      <use
         height="100%"
         width="100%"
         transform="translate(389.7638,-1.640625e-6)"
         id="use18833"
         xlink:href="#use18541"
         y="0"
         x="0" />
      <use
         height="100%"
         width="100%"
         transform="translate(389.76379,-1.3027344e-5)"
         id="use19174"
         xlink:href="#use18799"
         y="0"
         x="0" />
      <use
         height="100%"
         width="100%"
         transform="translate(389.76379,-1.3027344e-5)"
         id="use19176"
         xlink:href="#use18801"
         y="0"
         x="0" />
      <use
         height="100%"
         width="100%"
         transform="translate(389.76379,-1.3027344e-5)"
         id="use19178"
         xlink:href="#use18803"
         y="0"
         x="0" />
      <use
         height="100%"
         width="100%"
         transform="translate(389.76379,-1.3027344e-5)"
         id="use19180"
         xlink:href="#use18805"
         y="0"
         x="0" />
      <use
         height="100%"
         width="100%"
         transform="translate(389.76379,-1.3027344e-5)"
         id="use19182"
         xlink:href="#use18807"
         y="0"
         x="0" />
      <use
         height="100%"
         width="100%"
         transform="translate(389.76379,-1.3027344e-5)"
         id="use19184"
         xlink:href="#use18809"
         y="0"
         x="0" />
      <use
         height="100%"
         width="100%"
         transform="translate(389.76379,-1.3027344e-5)"
         id="use19186"
         xlink:href="#use18811"
         y="0"
         x="0" />
      <use
         height="100%"
         width="100%"
         transform="translate(389.76379,-1.3027344e-5)"
         id="use19188"
         xlink:href="#use18827"
         y="0"
         x="0" />
      <use
         height="100%"
         width="100%"
         transform="translate(389.76379,-1.3027344e-5)"
         id="use19190"
         xlink:href="#use18831"
         y="0"
         x="0" />
      <use
         height="100%"
         width="100%"
         transform="translate(1.8745313e-5,389.7638)"
         id="use19192"
         xlink:href="#use18263"
         y="0"
         x="0" />
      <use
         height="100%"
         width="100%"
         transform="translate(1.8745313e-5,389.7638)"
         id="use19194"
         xlink:href="#use18265"
         y="0"
         x="0" />
      <use
         height="100%"
         width="100%"
         transform="translate(1.8745313e-5,389.7638)"
         id="use19196"
         xlink:href="#use18267"
         y="0"
         x="0" />
      <use
         height="100%"
         width="100%"
         transform="translate(1.8745313e-5,389.7638)"
         id="use19198"
         xlink:href="#use18269"
         y="0"
         x="0" />
      <use
         height="100%"
         width="100%"
         transform="translate(1.8745313e-5,389.7638)"
         id="use19200"
         xlink:href="#use18271"
         y="0"
         x="0" />
      <use
         height="100%"
         width="100%"
         transform="translate(1.8745313e-5,389.7638)"
         id="use19202"
         xlink:href="#use18273"
         y="0"
         x="0" />
      <use
         height="100%"
         width="100%"
         transform="translate(1.8745313e-5,389.7638)"
         id="use19204"
         xlink:href="#use18275"
         y="0"
         x="0" />
      <use
         height="100%"
         width="100%"
         transform="translate(1.8745313e-5,389.7638)"
         id="use19206"
         xlink:href="#use18277"
         y="0"
         x="0" />
      <use
         height="100%"
         width="100%"
         transform="translate(1.8745313e-5,389.7638)"
         id="use19208"
         xlink:href="#use18279"
         y="0"
         x="0" />
      <use
         height="100%"
         width="100%"
         transform="translate(1.8745313e-5,389.7638)"
         id="use19210"
         xlink:href="#use18281"
         y="0"
         x="0" />
      <use
         height="100%"
         width="100%"
         transform="translate(1.8745313e-5,389.7638)"
         id="use19212"
         xlink:href="#use18283"
         y="0"
         x="0" />
      <use
         height="100%"
         width="100%"
         transform="translate(1.8745313e-5,389.7638)"
         id="use19214"
         xlink:href="#use18285"
         y="0"
         x="0" />
      <use
         height="100%"
         width="100%"
         transform="translate(1.8745313e-5,389.7638)"
         id="use19216"
         xlink:href="#use18827"
         y="0"
         x="0" />
      <use
         height="100%"
         width="100%"
         transform="translate(1.8745313e-5,389.7638)"
         id="use19218"
         xlink:href="#use18829"
         y="0"
         x="0" />
      <use
         height="100%"
         width="100%"
         transform="translate(1.8745313e-5,389.7638)"
         id="use19220"
         xlink:href="#use19188"
         y="0"
         x="0" />
    </g>
  </g>
</svg>
