<?xml version="1.0" encoding="UTF-8" standalone="no"?>
<!-- Created with Inkscape (http://www.inkscape.org/) -->

<svg
   xmlns:dc="http://purl.org/dc/elements/1.1/"
   xmlns:cc="http://creativecommons.org/ns#"
   xmlns:rdf="http://www.w3.org/1999/02/22-rdf-syntax-ns#"
   xmlns:svg="http://www.w3.org/2000/svg"
   xmlns="http://www.w3.org/2000/svg"
   xmlns:sodipodi="http://sodipodi.sourceforge.net/DTD/sodipodi-0.dtd"
   xmlns:inkscape="http://www.inkscape.org/namespaces/inkscape"
   width="37.044445mm"
   height="37.044445mm"
   viewBox="0 0 131.25984 131.25984"
   id="svg2"
   version="1.1"
   inkscape:version="0.91 r13725"
   sodipodi:docname="GitHubLogo.svg">
  <defs
     id="defs4" />
  <sodipodi:namedview
     id="base"
     pagecolor="#ffffff"
     bordercolor="#666666"
     borderopacity="1.0"
     inkscape:pageopacity="0.0"
     inkscape:pageshadow="2"
     inkscape:zoom="1.4"
     inkscape:cx="291.53308"
     inkscape:cy="-130.78846"
     inkscape:document-units="px"
     inkscape:current-layer="layer1"
     showgrid="true"
     fit-margin-top="3"
     fit-margin-left="3"
     fit-margin-right="3"
     fit-margin-bottom="3"
     inkscape:window-width="2560"
     inkscape:window-height="1376"
     inkscape:window-x="0"
     inkscape:window-y="27"
     inkscape:window-maximized="1">
    <inkscape:grid
       type="xygrid"
       id="grid4147"
       originx="10.629921"
       originy="10.629914" />
  </sodipodi:namedview>
  <metadata
     id="metadata7">
    <rdf:RDF>
      <cc:Work
         rdf:about="">
        <dc:format>image/svg+xml</dc:format>
        <dc:type
           rdf:resource="http://purl.org/dc/dcmitype/StillImage" />
        <dc:title></dc:title>
      </cc:Work>
    </rdf:RDF>
  </metadata>
  <g
     inkscape:label="Layer 1"
     inkscape:groupmode="layer"
     id="layer1"
     transform="translate(10.629921,-931.73228)">
    <path
       style="fill:#9bd5e1;fill-opacity:1"
       d="m 0,1029.8622 0,-22.5 10.625,0 10.625,0 0,-10.625 0,-10.625 11.25,0 11.25,0 0,10.625 0,10.625 10.625,0 10.625,0 0,-10.625 0,-10.625 11.25,0 11.25,0 0,10.625 0,10.625 11.25,0 11.25,0 0,22.5 0,22.5 -55,0 -55,0 0,-22.5 z m 43.75,-10.625 0,-10.625 -10.625,0 -10.625,0 0,10.625 0,10.625 10.625,0 10.625,0 0,-10.625 z m 43.75,0 0,-10.625 -10.625,0 -10.625,0 0,10.625 0,10.625 10.625,0 10.625,0 0,-10.625 z m -66.25,-65.625 0,-11.25 33.125,0 33.125,0 0,11.25 0,11.25 -33.125,0 -33.125,0 0,-11.25 z"
       id="path4216"
       inkscape:connector-curvature="0" />
    <path
       style="fill:#000000"
       d=""
       id="path4214"
       inkscape:connector-curvature="0" />
  </g>
</svg>
