<?xml version="1.0" encoding="UTF-8" standalone="no"?>
<!-- Created with Inkscape (http://www.inkscape.org/) -->

<svg
   xmlns:dc="http://purl.org/dc/elements/1.1/"
   xmlns:cc="http://creativecommons.org/ns#"
   xmlns:rdf="http://www.w3.org/1999/02/22-rdf-syntax-ns#"
   xmlns:svg="http://www.w3.org/2000/svg"
   xmlns="http://www.w3.org/2000/svg"
   xmlns:xlink="http://www.w3.org/1999/xlink"
   xmlns:sodipodi="http://sodipodi.sourceforge.net/DTD/sodipodi-0.dtd"
   xmlns:inkscape="http://www.inkscape.org/namespaces/inkscape"
   width="420mm"
   height="297mm"
   viewBox="0 0 1488.189 1052.3622"
   id="svg2"
   version="1.1"
   inkscape:version="0.91 r13725"
   sodipodi:docname="Checkerboard-A3-40mm-8x6.svg">
  <defs
     id="defs4" />
  <sodipodi:namedview
     id="base"
     pagecolor="#ffffff"
     bordercolor="#666666"
     borderopacity="1.0"
     inkscape:pageopacity="0.0"
     inkscape:pageshadow="2"
     inkscape:zoom="0.25"
     inkscape:cx="797.18599"
     inkscape:cy="-129.57544"
     inkscape:document-units="mm"
     inkscape:current-layer="layer1"
     showgrid="false"
     inkscape:snap-bbox="true"
     inkscape:bbox-nodes="true"
     inkscape:window-width="1244"
     inkscape:window-height="1367"
     inkscape:window-x="1290"
     inkscape:window-y="47"
     inkscape:window-maximized="0"
     inkscape:snap-page="true" />
  <metadata
     id="metadata7">
    <rdf:RDF>
      <cc:Work
         rdf:about="">
        <dc:format>image/svg+xml</dc:format>
        <dc:type
           rdf:resource="http://purl.org/dc/dcmitype/StillImage" />
        <dc:title></dc:title>
      </cc:Work>
    </rdf:RDF>
  </metadata>
  <g
     inkscape:label="Layer 1"
     inkscape:groupmode="layer"
     id="layer1"
     transform="translate(0,-3.464567e-6)">
    <g
       id="g4464"
       transform="translate(38.723252,21.512952)">
      <rect
         y="8.6051559"
         x="67.575951"
         height="141.73228"
         width="141.73228"
         id="rect7484"
         style="opacity:0.93999999;fill:#000000;fill-opacity:1;stroke:none;stroke-width:1.79999995;stroke-linecap:round;stroke-linejoin:round;stroke-miterlimit:4;stroke-dasharray:none;stroke-dashoffset:0;stroke-opacity:1" />
      <rect
         y="8.6051559"
         x="209.30823"
         height="141.73228"
         width="141.73228"
         id="rect7484-6"
         style="opacity:0.93999999;fill:#ffffff;fill-opacity:1;stroke:none;stroke-width:1.79999995;stroke-linecap:round;stroke-linejoin:round;stroke-miterlimit:4;stroke-dasharray:none;stroke-dashoffset:0;stroke-opacity:1" />
      <use
         height="100%"
         width="100%"
         transform="translate(283.46457,0)"
         id="use7846"
         xlink:href="#rect7484"
         y="0"
         x="0" />
      <use
         height="100%"
         width="100%"
         transform="translate(283.46457,0)"
         id="use7848"
         xlink:href="#rect7484-6"
         y="0"
         x="0" />
      <use
         height="100%"
         width="100%"
         transform="translate(566.92914,0)"
         id="use7850"
         xlink:href="#rect7484"
         y="0"
         x="0" />
      <use
         height="100%"
         width="100%"
         transform="matrix(-1,0,0,1,418.61647,141.73228)"
         id="use7854"
         xlink:href="#rect7484"
         y="0"
         x="0" />
      <use
         height="100%"
         width="100%"
         transform="matrix(-1,0,0,1,418.61647,141.73228)"
         id="use7856"
         xlink:href="#rect7484-6"
         y="0"
         x="0" />
      <use
         height="100%"
         width="100%"
         transform="matrix(-1,0,0,1,702.08104,141.73228)"
         id="use7858"
         xlink:href="#rect7484"
         y="0"
         x="0" />
      <use
         height="100%"
         width="100%"
         transform="matrix(-1,0,0,1,702.08104,141.73228)"
         id="use7860"
         xlink:href="#rect7484-6"
         y="0"
         x="0" />
      <use
         height="100%"
         width="100%"
         transform="matrix(-1,0,0,1,985.54558,141.73228)"
         id="use7864"
         xlink:href="#rect7484-6"
         y="0"
         x="0" />
      <use
         height="100%"
         width="100%"
         transform="translate(0,283.46457)"
         id="use7866"
         xlink:href="#rect7484"
         y="0"
         x="0" />
      <use
         height="100%"
         width="100%"
         transform="translate(-2.2650804e-8,283.46457)"
         id="use7868"
         xlink:href="#rect7484-6"
         y="0"
         x="0" />
      <use
         height="100%"
         width="100%"
         transform="translate(283.46457,283.46457)"
         id="use7870"
         xlink:href="#rect7484"
         y="0"
         x="0" />
      <use
         height="100%"
         width="100%"
         transform="translate(283.46457,283.46457)"
         id="use7872"
         xlink:href="#rect7484-6"
         y="0"
         x="0" />
      <use
         height="100%"
         width="100%"
         transform="translate(566.92914,283.46457)"
         id="use7874"
         xlink:href="#rect7484"
         y="0"
         x="0" />
      <use
         height="100%"
         width="100%"
         transform="translate(4.5008492e-7,283.46457)"
         id="use7878"
         xlink:href="#use7854"
         y="0"
         x="0" />
      <use
         height="100%"
         width="100%"
         transform="translate(0,283.46457)"
         id="use7880"
         xlink:href="#use7856"
         y="0"
         x="0" />
      <use
         height="100%"
         width="100%"
         transform="translate(283.46457,283.46457)"
         id="use7882"
         xlink:href="#use7854"
         y="0"
         x="0" />
      <use
         height="100%"
         width="100%"
         transform="translate(283.46457,283.46457)"
         id="use7884"
         xlink:href="#use7856"
         y="0"
         x="0" />
      <use
         height="100%"
         width="100%"
         transform="translate(566.92914,283.46457)"
         id="use7888"
         xlink:href="#use7856"
         y="0"
         x="0" />
      <use
         height="100%"
         width="100%"
         transform="translate(283.46457,0)"
         id="use7970"
         xlink:href="#use7848"
         y="0"
         x="0" />
      <use
         height="100%"
         width="100%"
         transform="translate(283.46457,2.3788971e-8)"
         id="use7972"
         xlink:href="#use7858"
         y="0"
         x="0" />
      <use
         height="100%"
         width="100%"
         transform="translate(283.46457,3.340233e-8)"
         id="use7974"
         xlink:href="#use7872"
         y="0"
         x="0" />
      <use
         height="100%"
         width="100%"
         transform="translate(283.46457,3.2055777e-7)"
         id="use7976"
         xlink:href="#use7882"
         y="0"
         x="0" />
      <use
         height="100%"
         width="100%"
         transform="translate(283.46457,0)"
         id="use8242"
         xlink:href="#use7850"
         y="0"
         x="0" />
      <use
         height="100%"
         width="100%"
         transform="translate(283.46457,-3.9267434e-8)"
         id="use8244"
         xlink:href="#use7864"
         y="0"
         x="0" />
      <use
         height="100%"
         width="100%"
         transform="translate(283.46457,4.9931623e-7)"
         id="use8246"
         xlink:href="#use7874"
         y="0"
         x="0" />
      <use
         height="100%"
         width="100%"
         transform="translate(283.46457,0)"
         id="use8248"
         xlink:href="#use7888"
         y="0"
         x="0" />
      <use
         height="100%"
         width="100%"
         transform="translate(0,283.46457)"
         id="use8250"
         xlink:href="#use7866"
         y="0"
         x="0" />
      <use
         height="100%"
         width="100%"
         transform="translate(0,283.46457)"
         id="use8252"
         xlink:href="#use7868"
         y="0"
         x="0" />
      <use
         height="100%"
         width="100%"
         transform="translate(-3.4521637e-8,283.46457)"
         id="use8254"
         xlink:href="#use7870"
         y="0"
         x="0" />
      <use
         height="100%"
         width="100%"
         transform="translate(-3.7445317e-7,283.46457)"
         id="use8256"
         xlink:href="#use7872"
         y="0"
         x="0" />
      <use
         height="100%"
         width="100%"
         transform="translate(-8.9181221e-8,283.46457)"
         id="use8258"
         xlink:href="#use7874"
         y="0"
         x="0" />
      <use
         height="100%"
         width="100%"
         transform="translate(-4.2911284e-7,283.46457)"
         id="use8260"
         xlink:href="#use7974"
         y="0"
         x="0" />
      <use
         height="100%"
         width="100%"
         transform="translate(0,283.46457)"
         id="use8262"
         xlink:href="#use8246"
         y="0"
         x="0" />
      <use
         height="100%"
         width="100%"
         transform="translate(283.46457,0)"
         id="use8484"
         xlink:href="#use7970"
         y="0"
         x="0" />
      <use
         height="100%"
         width="100%"
         transform="translate(283.46457,0)"
         id="use8486"
         xlink:href="#use7972"
         y="0"
         x="0" />
      <use
         height="100%"
         width="100%"
         transform="translate(283.46457,4.309768e-7)"
         id="use8488"
         xlink:href="#use7974"
         y="0"
         x="0" />
      <use
         height="100%"
         width="100%"
         transform="translate(283.46457,-2.3775351e-7)"
         id="use8490"
         xlink:href="#use7976"
         y="0"
         x="0" />
      <use
         height="100%"
         width="100%"
         transform="translate(283.46457,-3.2082585e-7)"
         id="use8492"
         xlink:href="#use8260"
         y="0"
         x="0" />
      <use
         height="100%"
         width="100%"
         transform="translate(283.46457,0)"
         id="use8614"
         xlink:href="#use8242"
         y="0"
         x="0" />
      <use
         height="100%"
         width="100%"
         transform="translate(283.46457,-1.989315e-8)"
         id="use8616"
         xlink:href="#use8244"
         y="0"
         x="0" />
      <use
         height="100%"
         width="100%"
         transform="translate(283.46457,3.6280426e-7)"
         id="use8618"
         xlink:href="#use8246"
         y="0"
         x="0" />
      <use
         height="100%"
         width="100%"
         transform="translate(283.46457,-1.6958143e-7)"
         id="use8620"
         xlink:href="#use8248"
         y="0"
         x="0" />
      <use
         height="100%"
         width="100%"
         transform="translate(283.46457,3.0814476e-7)"
         id="use8622"
         xlink:href="#use8262"
         y="0"
         x="0" />
      <use
         height="100%"
         width="100%"
         transform="translate(4.5008492e-7,283.46457)"
         id="use8624"
         xlink:href="#use7878"
         y="0"
         x="0" />
      <use
         height="100%"
         width="100%"
         transform="translate(2.2965585e-8,283.46457)"
         id="use8626"
         xlink:href="#use7880"
         y="0"
         x="0" />
      <use
         height="100%"
         width="100%"
         transform="translate(-3.0171745e-7,283.46457)"
         id="use8628"
         xlink:href="#use7882"
         y="0"
         x="0" />
      <use
         height="100%"
         width="100%"
         transform="translate(-1.132144e-7,283.46457)"
         id="use8630"
         xlink:href="#use7884"
         y="0"
         x="0" />
      <use
         height="100%"
         width="100%"
         transform="translate(-1.6445497e-8,283.46457)"
         id="use8632"
         xlink:href="#use7888"
         y="0"
         x="0" />
      <use
         height="100%"
         width="100%"
         transform="translate(-2.9637671e-7,283.46457)"
         id="use8634"
         xlink:href="#use7976"
         y="0"
         x="0" />
      <use
         height="100%"
         width="100%"
         transform="translate(-1.1104767e-8,283.46457)"
         id="use8636"
         xlink:href="#use8248"
         y="0"
         x="0" />
      <use
         height="100%"
         width="100%"
         transform="translate(-4.8179075e-8,283.46457)"
         id="use8638"
         xlink:href="#use8490"
         y="0"
         x="0" />
      <use
         height="100%"
         width="100%"
         transform="translate(8.5663928e-8,283.46457)"
         id="use8640"
         xlink:href="#use8620"
         y="0"
         x="0" />
      <use
         height="100%"
         width="100%"
         transform="translate(0,283.46457)"
         id="use8790"
         xlink:href="#use8250"
         y="0"
         x="0" />
      <use
         height="100%"
         width="100%"
         transform="translate(2.2795547e-8,283.46457)"
         id="use8792"
         xlink:href="#use8252"
         y="0"
         x="0" />
      <use
         height="100%"
         width="100%"
         transform="translate(-4.4709538e-7,283.46457)"
         id="use8794"
         xlink:href="#use8254"
         y="0"
         x="0" />
      <use
         height="100%"
         width="100%"
         transform="translate(7.6654615e-8,283.46457)"
         id="use8796"
         xlink:href="#use8256"
         y="0"
         x="0" />
      <use
         height="100%"
         width="100%"
         transform="translate(3.5178831e-7,283.46457)"
         id="use8798"
         xlink:href="#use8258"
         y="0"
         x="0" />
      <use
         height="100%"
         width="100%"
         transform="translate(-1.2446156e-7,283.46457)"
         id="use8800"
         xlink:href="#use8260"
         y="0"
         x="0" />
      <use
         height="100%"
         width="100%"
         transform="translate(5.9244286e-8,283.46457)"
         id="use8802"
         xlink:href="#use8262"
         y="0"
         x="0" />
      <use
         height="100%"
         width="100%"
         transform="translate(3.2307888e-8,283.46457)"
         id="use8804"
         xlink:href="#use8492"
         y="0"
         x="0" />
      <use
         height="100%"
         width="100%"
         transform="translate(0,283.46457)"
         id="use8806"
         xlink:href="#use8622"
         y="0"
         x="0" />
    </g>
  </g>
</svg>
