<?xml version="1.0" encoding="UTF-8" standalone="no"?>
<!-- Created with Inkscape (http://www.inkscape.org/) -->

<svg
   xmlns:dc="http://purl.org/dc/elements/1.1/"
   xmlns:cc="http://creativecommons.org/ns#"
   xmlns:rdf="http://www.w3.org/1999/02/22-rdf-syntax-ns#"
   xmlns:svg="http://www.w3.org/2000/svg"
   xmlns="http://www.w3.org/2000/svg"
   xmlns:xlink="http://www.w3.org/1999/xlink"
   xmlns:sodipodi="http://sodipodi.sourceforge.net/DTD/sodipodi-0.dtd"
   xmlns:inkscape="http://www.inkscape.org/namespaces/inkscape"
   width="420mm"
   height="297mm"
   viewBox="0 0 1488.189 1052.3622"
   id="svg2"
   version="1.1"
   inkscape:version="0.91 r13725"
   sodipodi:docname="Checkerboard-A3-60mm-5x3.svg">
  <defs
     id="defs4" />
  <sodipodi:namedview
     id="base"
     pagecolor="#ffffff"
     bordercolor="#666666"
     borderopacity="1.0"
     inkscape:pageopacity="0.0"
     inkscape:pageshadow="2"
     inkscape:zoom="0.49497475"
     inkscape:cx="921.94654"
     inkscape:cy="740.83611"
     inkscape:document-units="mm"
     inkscape:current-layer="layer1"
     showgrid="false"
     inkscape:snap-bbox="true"
     inkscape:bbox-nodes="true"
     inkscape:window-width="1664"
     inkscape:window-height="1367"
     inkscape:window-x="307"
     inkscape:window-y="47"
     inkscape:window-maximized="0" />
  <metadata
     id="metadata7">
    <rdf:RDF>
      <cc:Work
         rdf:about="">
        <dc:format>image/svg+xml</dc:format>
        <dc:type
           rdf:resource="http://purl.org/dc/dcmitype/StillImage" />
        <dc:title></dc:title>
      </cc:Work>
    </rdf:RDF>
  </metadata>
  <g
     inkscape:label="Layer 1"
     inkscape:groupmode="layer"
     id="layer1"
     transform="translate(0,-3.464567e-6)">
    <g
       id="g11693"
       transform="translate(2.6420525,-0.46619621)">
      <rect
         y="101.45046"
         x="103.6572"
         height="212.59842"
         width="212.59842"
         id="rect8751"
         style="opacity:1;fill:#000000;fill-opacity:1;stroke:none;stroke-width:0.1;stroke-linecap:round;stroke-linejoin:round;stroke-miterlimit:4;stroke-dasharray:none;stroke-dashoffset:0;stroke-opacity:1" />
      <rect
         y="101.45046"
         x="316.25562"
         height="212.59842"
         width="212.59842"
         id="rect8751-6"
         style="opacity:1;fill:#ffffff;fill-opacity:1;stroke:none;stroke-width:0.1;stroke-linecap:round;stroke-linejoin:round;stroke-miterlimit:4;stroke-dasharray:none;stroke-dashoffset:0;stroke-opacity:1" />
      <use
         height="100%"
         width="100%"
         transform="translate(425.19684,1.9326313e-7)"
         id="use11322"
         xlink:href="#rect8751"
         y="0"
         x="0" />
      <use
         height="100%"
         width="100%"
         transform="translate(425.19683,1.9326313e-7)"
         id="use11324"
         xlink:href="#rect8751-6"
         y="0"
         x="0" />
      <use
         height="100%"
         width="100%"
         transform="matrix(-1,0,0,1,1057.7081,212.59842)"
         id="use11326"
         xlink:href="#rect8751"
         y="0"
         x="0" />
      <use
         height="100%"
         width="100%"
         transform="matrix(-1,0,0,1,1057.7081,212.59842)"
         id="use11328"
         xlink:href="#rect8751-6"
         y="0"
         x="0" />
      <use
         height="100%"
         width="100%"
         transform="matrix(-1,0,0,1,1057.7081,212.59842)"
         id="use11330"
         xlink:href="#use11322"
         y="0"
         x="0" />
      <use
         height="100%"
         width="100%"
         transform="matrix(-1,0,0,1,1057.708,212.59842)"
         id="use11332"
         xlink:href="#use11324"
         y="0"
         x="0" />
      <use
         height="100%"
         width="100%"
         transform="translate(425.19684,1.9326313e-7)"
         id="use11334"
         xlink:href="#use11322"
         y="0"
         x="0" />
      <use
         height="100%"
         width="100%"
         transform="translate(425.19684,1.9326313e-7)"
         id="use11336"
         xlink:href="#use11328"
         y="0"
         x="0" />
      <use
         height="100%"
         width="100%"
         transform="translate(-2.4093579e-7,425.19684)"
         id="use11338"
         xlink:href="#rect8751"
         y="0"
         x="0" />
      <use
         height="100%"
         width="100%"
         transform="translate(-2.4093579e-7,425.19684)"
         id="use11340"
         xlink:href="#rect8751-6"
         y="0"
         x="0" />
      <use
         height="100%"
         width="100%"
         transform="translate(-2.4093579e-7,425.19684)"
         id="use11342"
         xlink:href="#use11322"
         y="0"
         x="0" />
      <use
         height="100%"
         width="100%"
         transform="translate(7.5906421e-7,425.19684)"
         id="use11344"
         xlink:href="#use11324"
         y="0"
         x="0" />
      <use
         height="100%"
         width="100%"
         transform="translate(7.5906421e-7,425.19684)"
         id="use11346"
         xlink:href="#use11334"
         y="0"
         x="0" />
      <use
         height="100%"
         width="100%"
         transform="translate(-2.4093579e-7,425.19684)"
         id="use11507"
         xlink:href="#use11326"
         y="0"
         x="0" />
      <use
         height="100%"
         width="100%"
         transform="translate(7.5906421e-7,425.19684)"
         id="use11509"
         xlink:href="#use11328"
         y="0"
         x="0" />
      <use
         height="100%"
         width="100%"
         transform="translate(7.5906421e-7,425.19684)"
         id="use11511"
         xlink:href="#use11330"
         y="0"
         x="0" />
      <use
         height="100%"
         width="100%"
         transform="translate(-2.4093579e-7,425.19684)"
         id="use11513"
         xlink:href="#use11332"
         y="0"
         x="0" />
      <use
         height="100%"
         width="100%"
         transform="translate(-2.4093579e-7,425.19684)"
         id="use11515"
         xlink:href="#use11336"
         y="0"
         x="0" />
      <use
         height="100%"
         width="100%"
         transform="translate(425.19684,1.9326313e-7)"
         id="use11597"
         xlink:href="#use11324"
         y="0"
         x="0" />
      <use
         height="100%"
         width="100%"
         transform="translate(425.19683,-8.0673687e-7)"
         id="use11599"
         xlink:href="#use11326"
         y="0"
         x="0" />
      <use
         height="100%"
         width="100%"
         transform="translate(425.19684,1.9326313e-7)"
         id="use11601"
         xlink:href="#use11344"
         y="0"
         x="0" />
      <use
         height="100%"
         width="100%"
         transform="translate(425.19684,1.9326313e-7)"
         id="use11603"
         xlink:href="#use11507"
         y="0"
         x="0" />
    </g>
  </g>
</svg>
