<?xml version="1.0" encoding="UTF-8" standalone="no"?>
<!-- Created with Inkscape (http://www.inkscape.org/) -->

<svg
   xmlns:dc="http://purl.org/dc/elements/1.1/"
   xmlns:cc="http://creativecommons.org/ns#"
   xmlns:rdf="http://www.w3.org/1999/02/22-rdf-syntax-ns#"
   xmlns:svg="http://www.w3.org/2000/svg"
   xmlns="http://www.w3.org/2000/svg"
   xmlns:xlink="http://www.w3.org/1999/xlink"
   xmlns:sodipodi="http://sodipodi.sourceforge.net/DTD/sodipodi-0.dtd"
   xmlns:inkscape="http://www.inkscape.org/namespaces/inkscape"
   width="297mm"
   height="210mm"
   viewBox="0 0 1052.3622 744.09448"
   id="svg2"
   version="1.1"
   inkscape:version="0.91 r13725"
   sodipodi:docname="Checkerboard-A4-45mm-5x3.svg">
  <defs
     id="defs4" />
  <sodipodi:namedview
     id="base"
     pagecolor="#ffffff"
     bordercolor="#666666"
     borderopacity="1.0"
     inkscape:pageopacity="0.0"
     inkscape:pageshadow="2"
     inkscape:zoom="0.98994949"
     inkscape:cx="594.7281"
     inkscape:cy="354.71894"
     inkscape:document-units="mm"
     inkscape:current-layer="layer1"
     showgrid="false"
     inkscape:snap-bbox="true"
     inkscape:bbox-nodes="true"
     inkscape:window-width="2079"
     inkscape:window-height="1367"
     inkscape:window-x="455"
     inkscape:window-y="47"
     inkscape:window-maximized="0" />
  <metadata
     id="metadata7">
    <rdf:RDF>
      <cc:Work
         rdf:about="">
        <dc:format>image/svg+xml</dc:format>
        <dc:type
           rdf:resource="http://purl.org/dc/dcmitype/StillImage" />
        <dc:title></dc:title>
      </cc:Work>
    </rdf:RDF>
  </metadata>
  <g
     inkscape:label="Layer 1"
     inkscape:groupmode="layer"
     id="layer1"
     transform="translate(0,-308.26772)">
    <g
       id="g10084"
       transform="translate(8.0034871,14.53057)">
      <rect
         y="346.88675"
         x="39.831142"
         height="159.44882"
         width="159.44882"
         id="rect8751"
         style="opacity:1;fill:#000000;fill-opacity:1;stroke:none;stroke-width:0.1;stroke-linecap:round;stroke-linejoin:round;stroke-miterlimit:4;stroke-dasharray:none;stroke-dashoffset:0;stroke-opacity:1" />
      <rect
         y="346.88675"
         x="199.27997"
         height="159.44882"
         width="159.44882"
         id="rect8751-6"
         style="opacity:1;fill:#ffffff;fill-opacity:1;stroke:none;stroke-width:0.1;stroke-linecap:round;stroke-linejoin:round;stroke-miterlimit:4;stroke-dasharray:none;stroke-dashoffset:0;stroke-opacity:1" />
      <use
         height="100%"
         width="100%"
         transform="translate(318.89764,-4.614357e-7)"
         id="use9644"
         xlink:href="#rect8751"
         y="0"
         x="0" />
      <use
         height="100%"
         width="100%"
         transform="translate(318.89764,-4.614357e-7)"
         id="use9646"
         xlink:href="#rect8751-6"
         y="0"
         x="0" />
      <use
         height="100%"
         width="100%"
         transform="matrix(-1,0,0,1,717.45757,159.44883)"
         id="use9648"
         xlink:href="#rect8751"
         y="0"
         x="0" />
      <use
         height="100%"
         width="100%"
         transform="matrix(-1,0,0,1,717.45757,159.44883)"
         id="use9650"
         xlink:href="#rect8751-6"
         y="0"
         x="0" />
      <use
         height="100%"
         width="100%"
         transform="matrix(-1,0,0,1,717.45756,159.44883)"
         id="use9652"
         xlink:href="#use9644"
         y="0"
         x="0" />
      <use
         height="100%"
         width="100%"
         transform="matrix(-1,0,0,1,717.45757,159.44883)"
         id="use9654"
         xlink:href="#use9646"
         y="0"
         x="0" />
      <use
         height="100%"
         width="100%"
         transform="translate(4.5012335e-7,318.89765)"
         id="use9656"
         xlink:href="#rect8751"
         y="0"
         x="0" />
      <use
         height="100%"
         width="100%"
         transform="translate(4.5012335e-7,318.89765)"
         id="use9658"
         xlink:href="#rect8751-6"
         y="0"
         x="0" />
      <use
         height="100%"
         width="100%"
         transform="translate(-5.4987665e-7,318.89765)"
         id="use9660"
         xlink:href="#use9644"
         y="0"
         x="0" />
      <use
         height="100%"
         width="100%"
         transform="translate(4.5012335e-7,318.89765)"
         id="use9662"
         xlink:href="#use9646"
         y="0"
         x="0" />
      <use
         x="0"
         y="0"
         xlink:href="#rect8751"
         id="use10048"
         transform="translate(637.79529,-2.4614357e-6)"
         width="100%"
         height="100%" />
      <use
         x="0"
         y="0"
         xlink:href="#rect8751-6"
         id="use10050"
         transform="matrix(-1,0,0,1,1036.3552,159.44882)"
         width="100%"
         height="100%" />
      <use
         x="0"
         y="0"
         xlink:href="#use9644"
         id="use10052"
         transform="translate(318.89765,318.89765)"
         width="100%"
         height="100%" />
      <use
         height="100%"
         width="100%"
         transform="translate(318.89765,-2.4614357e-6)"
         id="use10066"
         xlink:href="#use9646"
         y="0"
         x="0" />
      <use
         height="100%"
         width="100%"
         transform="translate(318.89765,-2.4614357e-6)"
         id="use10068"
         xlink:href="#use9648"
         y="0"
         x="0" />
      <use
         height="100%"
         width="100%"
         transform="translate(318.89765,-2.4614357e-6)"
         id="use10070"
         xlink:href="#use9662"
         y="0"
         x="0" />
      <use
         height="100%"
         width="100%"
         transform="translate(1.3158864e-5,318.89764)"
         id="use10072"
         xlink:href="#use9648"
         y="0"
         x="0" />
      <use
         height="100%"
         width="100%"
         transform="translate(1.3158864e-5,318.89764)"
         id="use10074"
         xlink:href="#use9650"
         y="0"
         x="0" />
      <use
         height="100%"
         width="100%"
         transform="translate(1.3158864e-5,318.89764)"
         id="use10076"
         xlink:href="#use9652"
         y="0"
         x="0" />
      <use
         height="100%"
         width="100%"
         transform="translate(1.3158864e-5,318.89764)"
         id="use10078"
         xlink:href="#use9654"
         y="0"
         x="0" />
      <use
         height="100%"
         width="100%"
         transform="translate(1.3158864e-5,318.89764)"
         id="use10080"
         xlink:href="#use10050"
         y="0"
         x="0" />
      <use
         height="100%"
         width="100%"
         transform="translate(1.3158864e-5,318.89764)"
         id="use10082"
         xlink:href="#use10068"
         y="0"
         x="0" />
    </g>
  </g>
</svg>
