<?xml version="1.0" encoding="UTF-8" standalone="no"?>
<!-- Created with Inkscape (http://www.inkscape.org/) -->

<svg
   xmlns:dc="http://purl.org/dc/elements/1.1/"
   xmlns:cc="http://creativecommons.org/ns#"
   xmlns:rdf="http://www.w3.org/1999/02/22-rdf-syntax-ns#"
   xmlns:svg="http://www.w3.org/2000/svg"
   xmlns="http://www.w3.org/2000/svg"
   xmlns:xlink="http://www.w3.org/1999/xlink"
   xmlns:sodipodi="http://sodipodi.sourceforge.net/DTD/sodipodi-0.dtd"
   xmlns:inkscape="http://www.inkscape.org/namespaces/inkscape"
   width="594mm"
   height="420mm"
   viewBox="0 0 2104.7244 1488.189"
   id="svg2"
   version="1.1"
   inkscape:version="0.91 r13725"
   sodipodi:docname="Checkerboard-A2-40mm-13x9.svg">
  <defs
     id="defs4" />
  <sodipodi:namedview
     id="base"
     pagecolor="#ffffff"
     bordercolor="#666666"
     borderopacity="1.0"
     inkscape:pageopacity="0.0"
     inkscape:pageshadow="2"
     inkscape:zoom="0.35355339"
     inkscape:cx="1005.1522"
     inkscape:cy="540.1691"
     inkscape:document-units="mm"
     inkscape:current-layer="layer1"
     showgrid="false"
     inkscape:snap-bbox="true"
     inkscape:bbox-nodes="true"
     inkscape:window-width="1521"
     inkscape:window-height="1367"
     inkscape:window-x="1013"
     inkscape:window-y="47"
     inkscape:window-maximized="0" />
  <metadata
     id="metadata7">
    <rdf:RDF>
      <cc:Work
         rdf:about="">
        <dc:format>image/svg+xml</dc:format>
        <dc:type
           rdf:resource="http://purl.org/dc/dcmitype/StillImage" />
        <dc:title></dc:title>
      </cc:Work>
    </rdf:RDF>
  </metadata>
  <g
     inkscape:label="Layer 1"
     inkscape:groupmode="layer"
     id="layer1"
     transform="translate(0,435.82677)">
    <g
       id="g10036"
       transform="translate(44.291379,-8.8582405)">
      <rect
         y="-391.53546"
         x="15.944827"
         height="141.73228"
         width="141.73228"
         id="rect7484"
         style="opacity:0.93999999;fill:#000000;fill-opacity:1;stroke:none;stroke-width:1.79999995;stroke-linecap:round;stroke-linejoin:round;stroke-miterlimit:4;stroke-dasharray:none;stroke-dashoffset:0;stroke-opacity:1" />
      <rect
         y="-391.53546"
         x="157.67711"
         height="141.73228"
         width="141.73228"
         id="rect7484-6"
         style="opacity:0.93999999;fill:#ffffff;fill-opacity:1;stroke:none;stroke-width:1.79999995;stroke-linecap:round;stroke-linejoin:round;stroke-miterlimit:4;stroke-dasharray:none;stroke-dashoffset:0;stroke-opacity:1" />
      <use
         height="100%"
         width="100%"
         transform="translate(283.46457,0)"
         id="use7846"
         xlink:href="#rect7484"
         y="0"
         x="0" />
      <use
         height="100%"
         width="100%"
         transform="translate(283.46456,0)"
         id="use7848"
         xlink:href="#rect7484-6"
         y="0"
         x="0" />
      <use
         height="100%"
         width="100%"
         transform="translate(566.92914,0)"
         id="use7850"
         xlink:href="#rect7484"
         y="0"
         x="0" />
      <use
         height="100%"
         width="100%"
         transform="matrix(-1,0,0,1,315.35422,141.73228)"
         id="use7854"
         xlink:href="#rect7484"
         y="0"
         x="0" />
      <use
         height="100%"
         width="100%"
         transform="matrix(-1,0,0,1,315.35423,141.73228)"
         id="use7856"
         xlink:href="#rect7484-6"
         y="0"
         x="0" />
      <use
         height="100%"
         width="100%"
         transform="matrix(-1,0,0,1,598.81879,141.73228)"
         id="use7858"
         xlink:href="#rect7484"
         y="0"
         x="0" />
      <use
         height="100%"
         width="100%"
         transform="matrix(-1,0,0,1,598.8188,141.73228)"
         id="use7860"
         xlink:href="#rect7484-6"
         y="0"
         x="0" />
      <use
         height="100%"
         width="100%"
         transform="matrix(-1,0,0,1,882.28337,141.73228)"
         id="use7864"
         xlink:href="#rect7484-6"
         y="0"
         x="0" />
      <use
         height="100%"
         width="100%"
         transform="translate(0,283.46457)"
         id="use7866"
         xlink:href="#rect7484"
         y="0"
         x="0" />
      <use
         height="100%"
         width="100%"
         transform="translate(-4.4268341e-7,283.46457)"
         id="use7868"
         xlink:href="#rect7484-6"
         y="0"
         x="0" />
      <use
         height="100%"
         width="100%"
         transform="translate(283.46457,283.46457)"
         id="use7870"
         xlink:href="#rect7484"
         y="0"
         x="0" />
      <use
         height="100%"
         width="100%"
         transform="translate(283.46456,283.46457)"
         id="use7872"
         xlink:href="#rect7484-6"
         y="0"
         x="0" />
      <use
         height="100%"
         width="100%"
         transform="translate(566.92914,283.46457)"
         id="use7874"
         xlink:href="#rect7484"
         y="0"
         x="0" />
      <use
         height="100%"
         width="100%"
         transform="translate(2.354173e-7,283.46457)"
         id="use7878"
         xlink:href="#use7854"
         y="0"
         x="0" />
      <use
         height="100%"
         width="100%"
         transform="translate(-1.104268e-8,283.46457)"
         id="use7880"
         xlink:href="#use7856"
         y="0"
         x="0" />
      <use
         height="100%"
         width="100%"
         transform="translate(283.46457,283.46457)"
         id="use7882"
         xlink:href="#use7854"
         y="0"
         x="0" />
      <use
         height="100%"
         width="100%"
         transform="translate(283.46457,283.46457)"
         id="use7884"
         xlink:href="#use7856"
         y="0"
         x="0" />
      <use
         height="100%"
         width="100%"
         transform="translate(566.92914,283.46457)"
         id="use7888"
         xlink:href="#use7856"
         y="0"
         x="0" />
      <use
         height="100%"
         width="100%"
         transform="translate(283.46457,0)"
         id="use7970"
         xlink:href="#use7848"
         y="0"
         x="0" />
      <use
         height="100%"
         width="100%"
         transform="translate(283.46457,-1.0514668e-7)"
         id="use7972"
         xlink:href="#use7858"
         y="0"
         x="0" />
      <use
         height="100%"
         width="100%"
         transform="translate(283.46457,-8.3662599e-8)"
         id="use7974"
         xlink:href="#use7872"
         y="0"
         x="0" />
      <use
         height="100%"
         width="100%"
         transform="translate(283.46457,-6.2178515e-8)"
         id="use7976"
         xlink:href="#use7882"
         y="0"
         x="0" />
      <use
         height="100%"
         width="100%"
         transform="translate(283.46457,0)"
         id="use8242"
         xlink:href="#use7850"
         y="0"
         x="0" />
      <use
         height="100%"
         width="100%"
         transform="translate(283.46457,-1.0514668e-7)"
         id="use8244"
         xlink:href="#use7864"
         y="0"
         x="0" />
      <use
         height="100%"
         width="100%"
         transform="translate(283.46457,-8.3662599e-8)"
         id="use8246"
         xlink:href="#use7874"
         y="0"
         x="0" />
      <use
         height="100%"
         width="100%"
         transform="translate(283.46457,-6.2178515e-8)"
         id="use8248"
         xlink:href="#use7888"
         y="0"
         x="0" />
      <use
         height="100%"
         width="100%"
         transform="translate(0,283.46457)"
         id="use8250"
         xlink:href="#use7866"
         y="0"
         x="0" />
      <use
         height="100%"
         width="100%"
         transform="translate(-3.074519e-7,283.46457)"
         id="use8252"
         xlink:href="#use7868"
         y="0"
         x="0" />
      <use
         height="100%"
         width="100%"
         transform="translate(3.5382537e-7,283.46457)"
         id="use8254"
         xlink:href="#use7870"
         y="0"
         x="0" />
      <use
         height="100%"
         width="100%"
         transform="translate(-3.9971463e-7,283.46457)"
         id="use8256"
         xlink:href="#use7872"
         y="0"
         x="0" />
      <use
         height="100%"
         width="100%"
         transform="translate(3.9679409e-7,283.46457)"
         id="use8258"
         xlink:href="#use7874"
         y="0"
         x="0" />
      <use
         height="100%"
         width="100%"
         transform="translate(-3.6291598e-7,283.46457)"
         id="use8260"
         xlink:href="#use7974"
         y="0"
         x="0" />
      <use
         height="100%"
         width="100%"
         transform="translate(4.439763e-6,283.46457)"
         id="use8262"
         xlink:href="#use8246"
         y="0"
         x="0" />
      <use
         height="100%"
         width="100%"
         transform="translate(283.46457,0)"
         id="use8484"
         xlink:href="#use7970"
         y="0"
         x="0" />
      <use
         height="100%"
         width="100%"
         transform="translate(283.46457,4.8761558e-7)"
         id="use8486"
         xlink:href="#use7972"
         y="0"
         x="0" />
      <use
         height="100%"
         width="100%"
         transform="translate(283.46457,4.8175616e-7)"
         id="use8488"
         xlink:href="#use7974"
         y="0"
         x="0" />
      <use
         height="100%"
         width="100%"
         transform="translate(283.46457,4.7589629e-7)"
         id="use8490"
         xlink:href="#use7976"
         y="0"
         x="0" />
      <use
         height="100%"
         width="100%"
         transform="translate(283.46457,-4.752751e-7)"
         id="use8492"
         xlink:href="#use8260"
         y="0"
         x="0" />
      <use
         height="100%"
         width="100%"
         transform="translate(283.46457,0)"
         id="use8614"
         xlink:href="#use8242"
         y="0"
         x="0" />
      <use
         height="100%"
         width="100%"
         transform="translate(283.46456,4.8761558e-7)"
         id="use8616"
         xlink:href="#use8244"
         y="0"
         x="0" />
      <use
         height="100%"
         width="100%"
         transform="translate(283.46457,4.8175616e-7)"
         id="use8618"
         xlink:href="#use8246"
         y="0"
         x="0" />
      <use
         height="100%"
         width="100%"
         transform="translate(283.46456,4.7589629e-7)"
         id="use8620"
         xlink:href="#use8248"
         y="0"
         x="0" />
      <use
         height="100%"
         width="100%"
         transform="translate(283.46457,-4.752751e-7)"
         id="use8622"
         xlink:href="#use8262"
         y="0"
         x="0" />
      <use
         height="100%"
         width="100%"
         transform="translate(-3.3003465e-7,283.46457)"
         id="use8624"
         xlink:href="#use7878"
         y="0"
         x="0" />
      <use
         height="100%"
         width="100%"
         transform="translate(-4.7151411e-7,283.46457)"
         id="use8626"
         xlink:href="#use7880"
         y="0"
         x="0" />
      <use
         height="100%"
         width="100%"
         transform="translate(2.7838605e-7,283.46457)"
         id="use8628"
         xlink:href="#use7882"
         y="0"
         x="0" />
      <use
         height="100%"
         width="100%"
         transform="translate(3.1926113e-8,283.46457)"
         id="use8630"
         xlink:href="#use7884"
         y="0"
         x="0" />
      <use
         height="100%"
         width="100%"
         transform="translate(7.4895041e-8,283.46457)"
         id="use8632"
         xlink:href="#use7888"
         y="0"
         x="0" />
      <use
         height="100%"
         width="100%"
         transform="translate(-3.6786453e-6,283.46457)"
         id="use8634"
         xlink:href="#use7976"
         y="0"
         x="0" />
      <use
         height="100%"
         width="100%"
         transform="translate(-4.8821362e-6,283.46457)"
         id="use8636"
         xlink:href="#use8248"
         y="0"
         x="0" />
      <use
         height="100%"
         width="100%"
         transform="translate(4.3643237e-6,283.46457)"
         id="use8638"
         xlink:href="#use8490"
         y="0"
         x="0" />
      <use
         height="100%"
         width="100%"
         transform="translate(4.1608321e-6,283.46457)"
         id="use8640"
         xlink:href="#use8620"
         y="0"
         x="0" />
      <use
         height="100%"
         width="100%"
         transform="translate(0,283.46457)"
         id="use8790"
         xlink:href="#use8250"
         y="0"
         x="0" />
      <use
         height="100%"
         width="100%"
         transform="translate(3.521937e-7,283.46457)"
         id="use8792"
         xlink:href="#use8252"
         y="0"
         x="0" />
      <use
         height="100%"
         width="100%"
         transform="translate(-4.6065005e-7,283.46457)"
         id="use8794"
         xlink:href="#use8254"
         y="0"
         x="0" />
      <use
         height="100%"
         width="100%"
         transform="translate(-3.1917052e-7,283.46457)"
         id="use8796"
         xlink:href="#use8256"
         y="0"
         x="0" />
      <use
         height="100%"
         width="100%"
         transform="translate(-4.7236873e-7,283.46457)"
         id="use8798"
         xlink:href="#use8258"
         y="0"
         x="0" />
      <use
         height="100%"
         width="100%"
         transform="translate(-3.4322906e-7,283.46457)"
         id="use8800"
         xlink:href="#use8260"
         y="0"
         x="0" />
      <use
         height="100%"
         width="100%"
         transform="translate(5.1591275e-7,283.46457)"
         id="use8802"
         xlink:href="#use8262"
         y="0"
         x="0" />
      <use
         height="100%"
         width="100%"
         transform="translate(-2.3002604e-6,283.46457)"
         id="use8804"
         xlink:href="#use8492"
         y="0"
         x="0" />
      <use
         height="100%"
         width="100%"
         transform="translate(5.5888145e-7,283.46457)"
         id="use8806"
         xlink:href="#use8622"
         y="0"
         x="0" />
      <use
         height="100%"
         width="100%"
         transform="translate(283.46457,0)"
         id="use9130"
         xlink:href="#use8484"
         y="0"
         x="0" />
      <use
         height="100%"
         width="100%"
         transform="translate(283.46457,4.2347301e-7)"
         id="use9132"
         xlink:href="#use8486"
         y="0"
         x="0" />
      <use
         height="100%"
         width="100%"
         transform="translate(283.46457,-1.1265911e-7)"
         id="use9134"
         xlink:href="#use8488"
         y="0"
         x="0" />
      <use
         height="100%"
         width="100%"
         transform="translate(283.46457,3.5120729e-7)"
         id="use9136"
         xlink:href="#use8490"
         y="0"
         x="0" />
      <use
         height="100%"
         width="100%"
         transform="translate(283.46457,-1.243784e-7)"
         id="use9138"
         xlink:href="#use8492"
         y="0"
         x="0" />
      <use
         height="100%"
         width="100%"
         transform="translate(283.46457,3.9417569e-7)"
         id="use9140"
         xlink:href="#use8638"
         y="0"
         x="0" />
      <use
         height="100%"
         width="100%"
         transform="translate(283.46457,-1.0814092e-6)"
         id="use9142"
         xlink:href="#use8804"
         y="0"
         x="0" />
      <use
         height="100%"
         width="100%"
         transform="translate(283.46457,0)"
         id="use9324"
         xlink:href="#use8614"
         y="0"
         x="0" />
      <use
         height="100%"
         width="100%"
         transform="translate(283.46457,8.0377959e-8)"
         id="use9326"
         xlink:href="#use8616"
         y="0"
         x="0" />
      <use
         height="100%"
         width="100%"
         transform="translate(283.46457,4.7175035e-8)"
         id="use9328"
         xlink:href="#use8618"
         y="0"
         x="0" />
      <use
         height="100%"
         width="100%"
         transform="translate(283.46457,1.3971203e-8)"
         id="use9330"
         xlink:href="#use8620"
         y="0"
         x="0" />
      <use
         height="100%"
         width="100%"
         transform="translate(283.46457,4.1316071e-8)"
         id="use9332"
         xlink:href="#use8622"
         y="0"
         x="0" />
      <use
         height="100%"
         width="100%"
         transform="translate(283.46457,6.2799245e-8)"
         id="use9334"
         xlink:href="#use8640"
         y="0"
         x="0" />
      <use
         height="100%"
         width="100%"
         transform="translate(283.46457,4.0901436e-6)"
         id="use9336"
         xlink:href="#use8806"
         y="0"
         x="0" />
      <use
         height="100%"
         width="100%"
         transform="translate(-1.7218633e-7,283.46457)"
         id="use9338"
         xlink:href="#use8624"
         y="0"
         x="0" />
      <use
         height="100%"
         width="100%"
         transform="translate(-2.0868531e-7,283.46457)"
         id="use9340"
         xlink:href="#use8626"
         y="0"
         x="0" />
      <use
         height="100%"
         width="100%"
         transform="translate(1.3871586e-7,283.46457)"
         id="use9342"
         xlink:href="#use8628"
         y="0"
         x="0" />
      <use
         height="100%"
         width="100%"
         transform="translate(-4.7834965e-7,283.46457)"
         id="use9344"
         xlink:href="#use8630"
         y="0"
         x="0" />
      <use
         height="100%"
         width="100%"
         transform="translate(-4.8420877e-7,283.46457)"
         id="use9346"
         xlink:href="#use8632"
         y="0"
         x="0" />
      <use
         height="100%"
         width="100%"
         transform="translate(-1.8671435e-6,283.46457)"
         id="use9348"
         xlink:href="#use8634"
         y="0"
         x="0" />
      <use
         height="100%"
         width="100%"
         transform="translate(2.509932e-6,283.46457)"
         id="use9350"
         xlink:href="#use8636"
         y="0"
         x="0" />
      <use
         height="100%"
         width="100%"
         transform="translate(-4.8730029e-6,283.46457)"
         id="use9352"
         xlink:href="#use8638"
         y="0"
         x="0" />
      <use
         height="100%"
         width="100%"
         transform="translate(1.5040719e-6,283.46457)"
         id="use9354"
         xlink:href="#use8640"
         y="0"
         x="0" />
      <use
         height="100%"
         width="100%"
         transform="translate(1.7582519e-7,283.46457)"
         id="use9356"
         xlink:href="#use9140"
         y="0"
         x="0" />
      <use
         height="100%"
         width="100%"
         transform="translate(-3.4471e-6,283.46457)"
         id="use9358"
         xlink:href="#use9334"
         y="0"
         x="0" />
      <use
         height="100%"
         width="100%"
         transform="translate(283.46457,0)"
         id="use9640"
         xlink:href="#use9130"
         y="0"
         x="0" />
      <use
         height="100%"
         width="100%"
         transform="translate(283.46457,-4.7558615e-7)"
         id="use9642"
         xlink:href="#use9132"
         y="0"
         x="0" />
      <use
         height="100%"
         width="100%"
         transform="translate(283.46457,-1.171793e-8)"
         id="use9644"
         xlink:href="#use9134"
         y="0"
         x="0" />
      <use
         height="100%"
         width="100%"
         transform="translate(283.46457,4.5214847e-7)"
         id="use9646"
         xlink:href="#use9136"
         y="0"
         x="0" />
      <use
         height="100%"
         width="100%"
         transform="translate(283.46457,-2.3437224e-8)"
         id="use9648"
         xlink:href="#use9138"
         y="0"
         x="0" />
      <use
         height="100%"
         width="100%"
         transform="translate(283.46457,4.9511664e-7)"
         id="use9650"
         xlink:href="#use9140"
         y="0"
         x="0" />
      <use
         height="100%"
         width="100%"
         transform="translate(283.46457,-2.9804683e-6)"
         id="use9652"
         xlink:href="#use9142"
         y="0"
         x="0" />
      <use
         height="100%"
         width="100%"
         transform="translate(283.46456,0)"
         id="use9654"
         xlink:href="#use9324"
         y="0"
         x="0" />
      <use
         height="100%"
         width="100%"
         transform="translate(283.46457,1.8131868e-7)"
         id="use9656"
         xlink:href="#use9326"
         y="0"
         x="0" />
      <use
         height="100%"
         width="100%"
         transform="translate(283.46456,1.4811621e-7)"
         id="use9658"
         xlink:href="#use9328"
         y="0"
         x="0" />
      <use
         height="100%"
         width="100%"
         transform="translate(283.46457,1.1491238e-7)"
         id="use9660"
         xlink:href="#use9330"
         y="0"
         x="0" />
      <use
         height="100%"
         width="100%"
         transform="translate(283.46457,1.4225679e-7)"
         id="use9662"
         xlink:href="#use9332"
         y="0"
         x="0" />
      <use
         height="100%"
         width="100%"
         transform="translate(283.46457,1.6374042e-7)"
         id="use9664"
         xlink:href="#use9334"
         y="0"
         x="0" />
      <use
         height="100%"
         width="100%"
         transform="translate(283.46457,2.1910846e-6)"
         id="use9666"
         xlink:href="#use9336"
         y="0"
         x="0" />
      <use
         height="100%"
         width="100%"
         transform="translate(283.46457,-4.1308613e-7)"
         id="use9668"
         xlink:href="#use9356"
         y="0"
         x="0" />
      <use
         height="100%"
         width="100%"
         transform="translate(283.46457,2.5553754e-7)"
         id="use9670"
         xlink:href="#use9358"
         y="0"
         x="0" />
      <use
         height="100%"
         width="100%"
         transform="translate(0,283.46457)"
         id="use9672"
         xlink:href="#use8790"
         y="0"
         x="0" />
      <use
         height="100%"
         width="100%"
         transform="translate(-4.6518831e-7,283.46457)"
         id="use9674"
         xlink:href="#use8792"
         y="0"
         x="0" />
      <use
         height="100%"
         width="100%"
         transform="translate(-2.7803206e-7,283.46457)"
         id="use9676"
         xlink:href="#use8794"
         y="0"
         x="0" />
      <use
         height="100%"
         width="100%"
         transform="translate(-1.3655242e-7,283.46457)"
         id="use9678"
         xlink:href="#use8796"
         y="0"
         x="0" />
      <use
         height="100%"
         width="100%"
         transform="translate(-2.8975074e-7,283.46457)"
         id="use9680"
         xlink:href="#use8798"
         y="0"
         x="0" />
      <use
         height="100%"
         width="100%"
         transform="translate(-1.6061118e-7,283.46457)"
         id="use9682"
         xlink:href="#use8800"
         y="0"
         x="0" />
      <use
         height="100%"
         width="100%"
         transform="translate(6.9853084e-7,283.46457)"
         id="use9684"
         xlink:href="#use8802"
         y="0"
         x="0" />
      <use
         height="100%"
         width="100%"
         transform="translate(-2.1176425e-6,283.46457)"
         id="use9686"
         xlink:href="#use8804"
         y="0"
         x="0" />
      <use
         height="100%"
         width="100%"
         transform="translate(7.4149958e-7,283.46457)"
         id="use9688"
         xlink:href="#use8806"
         y="0"
         x="0" />
      <use
         height="100%"
         width="100%"
         transform="translate(-3.0258455e-6,283.46457)"
         id="use9690"
         xlink:href="#use9142"
         y="0"
         x="0" />
      <use
         height="100%"
         width="100%"
         transform="translate(-1.6670367e-7,283.46457)"
         id="use9692"
         xlink:href="#use9336"
         y="0"
         x="0" />
      <use
         height="100%"
         width="100%"
         transform="translate(-3.9340488e-6,283.46457)"
         id="use9694"
         xlink:href="#use9652"
         y="0"
         x="0" />
      <use
         height="100%"
         width="100%"
         transform="translate(-1.0749067e-6,283.46457)"
         id="use9696"
         xlink:href="#use9666"
         y="0"
         x="0" />
      <use
         height="100%"
         width="100%"
         transform="translate(283.46458,-5.0836525e-6)"
         id="use9972"
         xlink:href="#use9640"
         y="0"
         x="0" />
      <use
         height="100%"
         width="100%"
         transform="translate(283.46458,-5.0836525e-6)"
         id="use9974"
         xlink:href="#use9642"
         y="0"
         x="0" />
      <use
         height="100%"
         width="100%"
         transform="translate(283.46458,-5.0836525e-6)"
         id="use9976"
         xlink:href="#use9644"
         y="0"
         x="0" />
      <use
         height="100%"
         width="100%"
         transform="translate(283.46458,-5.0836525e-6)"
         id="use9978"
         xlink:href="#use9646"
         y="0"
         x="0" />
      <use
         height="100%"
         width="100%"
         transform="translate(283.46458,-5.0836525e-6)"
         id="use9980"
         xlink:href="#use9648"
         y="0"
         x="0" />
      <use
         height="100%"
         width="100%"
         transform="translate(283.46458,-5.0836525e-6)"
         id="use9982"
         xlink:href="#use9650"
         y="0"
         x="0" />
      <use
         height="100%"
         width="100%"
         transform="translate(283.46458,-5.0836525e-6)"
         id="use9984"
         xlink:href="#use9652"
         y="0"
         x="0" />
      <use
         height="100%"
         width="100%"
         transform="translate(283.46458,-5.0836525e-6)"
         id="use10000"
         xlink:href="#use9668"
         y="0"
         x="0" />
      <use
         height="100%"
         width="100%"
         transform="translate(283.46458,-5.0836525e-6)"
         id="use10004"
         xlink:href="#use9694"
         y="0"
         x="0" />
      <use
         height="100%"
         width="100%"
         transform="translate(-1.2642591e-5,283.46457)"
         id="use10008"
         xlink:href="#use9338"
         y="0"
         x="0" />
      <use
         height="100%"
         width="100%"
         transform="translate(-1.2642591e-5,283.46457)"
         id="use10010"
         xlink:href="#use9340"
         y="0"
         x="0" />
      <use
         height="100%"
         width="100%"
         transform="translate(-1.2642591e-5,283.46457)"
         id="use10012"
         xlink:href="#use9342"
         y="0"
         x="0" />
      <use
         height="100%"
         width="100%"
         transform="translate(-1.2642591e-5,283.46457)"
         id="use10014"
         xlink:href="#use9344"
         y="0"
         x="0" />
      <use
         height="100%"
         width="100%"
         transform="translate(-1.2642591e-5,283.46457)"
         id="use10016"
         xlink:href="#use9346"
         y="0"
         x="0" />
      <use
         height="100%"
         width="100%"
         transform="translate(-1.2642591e-5,283.46457)"
         id="use10018"
         xlink:href="#use9348"
         y="0"
         x="0" />
      <use
         height="100%"
         width="100%"
         transform="translate(-1.2642591e-5,283.46457)"
         id="use10020"
         xlink:href="#use9350"
         y="0"
         x="0" />
      <use
         height="100%"
         width="100%"
         transform="translate(-1.2642591e-5,283.46457)"
         id="use10022"
         xlink:href="#use9352"
         y="0"
         x="0" />
      <use
         height="100%"
         width="100%"
         transform="translate(-1.2642591e-5,283.46457)"
         id="use10024"
         xlink:href="#use9354"
         y="0"
         x="0" />
      <use
         height="100%"
         width="100%"
         transform="translate(-1.2642591e-5,283.46457)"
         id="use10026"
         xlink:href="#use9356"
         y="0"
         x="0" />
      <use
         height="100%"
         width="100%"
         transform="translate(-1.2642591e-5,283.46457)"
         id="use10028"
         xlink:href="#use9358"
         y="0"
         x="0" />
      <use
         height="100%"
         width="100%"
         transform="translate(-1.2642591e-5,283.46457)"
         id="use10030"
         xlink:href="#use9668"
         y="0"
         x="0" />
      <use
         height="100%"
         width="100%"
         transform="translate(-1.2642591e-5,283.46457)"
         id="use10032"
         xlink:href="#use9670"
         y="0"
         x="0" />
      <use
         height="100%"
         width="100%"
         transform="translate(-1.2642591e-5,283.46457)"
         id="use10034"
         xlink:href="#use10000"
         y="0"
         x="0" />
    </g>
  </g>
</svg>
