<?xml version="1.0" encoding="UTF-8" standalone="no"?>
<!-- Created with Inkscape (http://www.inkscape.org/) -->

<svg
   xmlns:dc="http://purl.org/dc/elements/1.1/"
   xmlns:cc="http://creativecommons.org/ns#"
   xmlns:rdf="http://www.w3.org/1999/02/22-rdf-syntax-ns#"
   xmlns:svg="http://www.w3.org/2000/svg"
   xmlns="http://www.w3.org/2000/svg"
   xmlns:xlink="http://www.w3.org/1999/xlink"
   xmlns:sodipodi="http://sodipodi.sourceforge.net/DTD/sodipodi-0.dtd"
   xmlns:inkscape="http://www.inkscape.org/namespaces/inkscape"
   width="297mm"
   height="210mm"
   viewBox="0 0 1052.3622 744.0945"
   id="svg2"
   version="1.1"
   inkscape:version="0.91 r13725"
   sodipodi:docname="Checkerboard-A4-25mm-8x6.svg">
  <defs
     id="defs4" />
  <sodipodi:namedview
     id="base"
     pagecolor="#ffffff"
     bordercolor="#666666"
     borderopacity="1.0"
     inkscape:pageopacity="0.0"
     inkscape:pageshadow="2"
     inkscape:zoom="0.5"
     inkscape:cx="548.60779"
     inkscape:cy="309.60348"
     inkscape:document-units="mm"
     inkscape:current-layer="layer1"
     showgrid="false"
     inkscape:snap-bbox="true"
     inkscape:bbox-nodes="true"
     inkscape:window-width="1244"
     inkscape:window-height="1367"
     inkscape:window-x="1290"
     inkscape:window-y="47"
     inkscape:window-maximized="0"
     inkscape:snap-page="true" />
  <metadata
     id="metadata7">
    <rdf:RDF>
      <cc:Work
         rdf:about="">
        <dc:format>image/svg+xml</dc:format>
        <dc:type
           rdf:resource="http://purl.org/dc/dcmitype/StillImage" />
        <dc:title></dc:title>
      </cc:Work>
    </rdf:RDF>
  </metadata>
  <g
     inkscape:label="Layer 1"
     inkscape:groupmode="layer"
     id="layer1"
     transform="translate(0,-308.26772)">
    <g
       id="g4298"
       transform="translate(79.724436,44.291331)">
      <rect
         y="325.98425"
         x="47.834618"
         height="88.582672"
         width="88.582672"
         id="rect7484"
         style="opacity:0.93999999;fill:#000000;fill-opacity:1;stroke:none;stroke-width:1.79999995;stroke-linecap:round;stroke-linejoin:round;stroke-miterlimit:4;stroke-dasharray:none;stroke-dashoffset:0;stroke-opacity:1" />
      <rect
         y="325.98425"
         x="136.4173"
         height="88.58268"
         width="88.58268"
         id="rect7484-6"
         style="opacity:0.93999999;fill:#ffffff;fill-opacity:1;stroke:none;stroke-width:1.79999995;stroke-linecap:round;stroke-linejoin:round;stroke-miterlimit:4;stroke-dasharray:none;stroke-dashoffset:0;stroke-opacity:1" />
      <use
         height="100%"
         width="100%"
         transform="translate(177.16536,0)"
         id="use7846"
         xlink:href="#rect7484"
         y="0"
         x="0" />
      <use
         height="100%"
         width="100%"
         transform="translate(177.16536,0)"
         id="use7848"
         xlink:href="#rect7484-6"
         y="0"
         x="0" />
      <use
         height="100%"
         width="100%"
         transform="translate(354.33072,0)"
         id="use7850"
         xlink:href="#rect7484"
         y="0"
         x="0" />
      <use
         height="100%"
         width="100%"
         transform="matrix(-1,0,0,1,272.83458,88.582683)"
         id="use7854"
         xlink:href="#rect7484"
         y="0"
         x="0" />
      <use
         height="100%"
         width="100%"
         transform="matrix(-1,0,0,1,272.83458,88.582679)"
         id="use7856"
         xlink:href="#rect7484-6"
         y="0"
         x="0" />
      <use
         height="100%"
         width="100%"
         transform="matrix(-1,0,0,1,449.99994,88.582683)"
         id="use7858"
         xlink:href="#rect7484"
         y="0"
         x="0" />
      <use
         height="100%"
         width="100%"
         transform="matrix(-1,0,0,1,449.99994,88.582679)"
         id="use7860"
         xlink:href="#rect7484-6"
         y="0"
         x="0" />
      <use
         height="100%"
         width="100%"
         transform="matrix(-1,0,0,1,627.1653,88.582679)"
         id="use7864"
         xlink:href="#rect7484-6"
         y="0"
         x="0" />
      <use
         height="100%"
         width="100%"
         transform="translate(0,177.16536)"
         id="use7866"
         xlink:href="#rect7484"
         y="0"
         x="0" />
      <use
         height="100%"
         width="100%"
         transform="translate(-3.4231797e-7,177.16536)"
         id="use7868"
         xlink:href="#rect7484-6"
         y="0"
         x="0" />
      <use
         height="100%"
         width="100%"
         transform="translate(177.16536,177.16536)"
         id="use7870"
         xlink:href="#rect7484"
         y="0"
         x="0" />
      <use
         height="100%"
         width="100%"
         transform="translate(177.16536,177.16536)"
         id="use7872"
         xlink:href="#rect7484-6"
         y="0"
         x="0" />
      <use
         height="100%"
         width="100%"
         transform="translate(354.33072,177.16536)"
         id="use7874"
         xlink:href="#rect7484"
         y="0"
         x="0" />
      <use
         height="100%"
         width="100%"
         transform="translate(-6.6683185e-8,177.16536)"
         id="use7878"
         xlink:href="#use7854"
         y="0"
         x="0" />
      <use
         height="100%"
         width="100%"
         transform="translate(-1.4700545e-7,177.16536)"
         id="use7880"
         xlink:href="#use7856"
         y="0"
         x="0" />
      <use
         height="100%"
         width="100%"
         transform="translate(177.16536,177.16536)"
         id="use7882"
         xlink:href="#use7854"
         y="0"
         x="0" />
      <use
         height="100%"
         width="100%"
         transform="translate(177.16536,177.16536)"
         id="use7884"
         xlink:href="#use7856"
         y="0"
         x="0" />
      <use
         height="100%"
         width="100%"
         transform="translate(354.33072,177.16536)"
         id="use7888"
         xlink:href="#use7856"
         y="0"
         x="0" />
      <use
         height="100%"
         width="100%"
         transform="translate(177.16536,0)"
         id="use7970"
         xlink:href="#use7848"
         y="0"
         x="0" />
      <use
         height="100%"
         width="100%"
         transform="translate(177.16536,-3.9943052e-7)"
         id="use7972"
         xlink:href="#use7858"
         y="0"
         x="0" />
      <use
         height="100%"
         width="100%"
         transform="translate(177.16536,3.4407549e-8)"
         id="use7974"
         xlink:href="#use7872"
         y="0"
         x="0" />
      <use
         height="100%"
         width="100%"
         transform="translate(177.16536,-4.0236e-7)"
         id="use7976"
         xlink:href="#use7882"
         y="0"
         x="0" />
      <use
         height="100%"
         width="100%"
         transform="translate(177.16536,0)"
         id="use8242"
         xlink:href="#use7850"
         y="0"
         x="0" />
      <use
         height="100%"
         width="100%"
         transform="translate(177.16536,2.8587215e-7)"
         id="use8244"
         xlink:href="#use7864"
         y="0"
         x="0" />
      <use
         height="100%"
         width="100%"
         transform="translate(177.16536,3.4910477e-7)"
         id="use8246"
         xlink:href="#use7874"
         y="0"
         x="0" />
      <use
         height="100%"
         width="100%"
         transform="translate(177.16536,-2.1705728e-7)"
         id="use8248"
         xlink:href="#use7888"
         y="0"
         x="0" />
      <use
         height="100%"
         width="100%"
         transform="translate(0,177.16536)"
         id="use8250"
         xlink:href="#use7866"
         y="0"
         x="0" />
      <use
         height="100%"
         width="100%"
         transform="translate(2.263505e-7,177.16536)"
         id="use8252"
         xlink:href="#use7868"
         y="0"
         x="0" />
      <use
         height="100%"
         width="100%"
         transform="translate(7.4430105e-8,177.16536)"
         id="use8254"
         xlink:href="#use7870"
         y="0"
         x="0" />
      <use
         height="100%"
         width="100%"
         transform="translate(1.5475236e-7,177.16536)"
         id="use8256"
         xlink:href="#use7872"
         y="0"
         x="0" />
      <use
         height="100%"
         width="100%"
         transform="translate(-4.2849959e-7,177.16536)"
         id="use8258"
         xlink:href="#use7874"
         y="0"
         x="0" />
      <use
         height="100%"
         width="100%"
         transform="translate(-3.4817735e-7,177.16536)"
         id="use8260"
         xlink:href="#use7974"
         y="0"
         x="0" />
      <use
         height="100%"
         width="100%"
         transform="translate(-4.3142943e-7,177.16536)"
         id="use8262"
         xlink:href="#use8246"
         y="0"
         x="0" />
      <use
         height="100%"
         width="100%"
         transform="translate(177.16536,0)"
         id="use8484"
         xlink:href="#use7970"
         y="0"
         x="0" />
      <use
         height="100%"
         width="100%"
         transform="translate(177.16536,-1.6809895e-7)"
         id="use8486"
         xlink:href="#use7972"
         y="0"
         x="0" />
      <use
         height="100%"
         width="100%"
         transform="translate(177.16536,-2.3426105e-7)"
         id="use8488"
         xlink:href="#use7974"
         y="0"
         x="0" />
      <use
         height="100%"
         width="100%"
         transform="translate(177.16536,3.2897128e-7)"
         id="use8490"
         xlink:href="#use7976"
         y="0"
         x="0" />
      <use
         height="100%"
         width="100%"
         transform="translate(177.16536,2.6280941e-7)"
         id="use8492"
         xlink:href="#use8260"
         y="0"
         x="0" />
      <use
         height="100%"
         width="100%"
         transform="translate(177.16536,0)"
         id="use8614"
         xlink:href="#use8242"
         y="0"
         x="0" />
      <use
         height="100%"
         width="100%"
         transform="translate(177.16536,-4.8279639e-7)"
         id="use8616"
         xlink:href="#use8244"
         y="0"
         x="0" />
      <use
         height="100%"
         width="100%"
         transform="translate(177.16536,8.0436394e-8)"
         id="use8618"
         xlink:href="#use8246"
         y="0"
         x="0" />
      <use
         height="100%"
         width="100%"
         transform="translate(177.16536,-4.8572588e-7)"
         id="use8620"
         xlink:href="#use8248"
         y="0"
         x="0" />
      <use
         height="100%"
         width="100%"
         transform="translate(177.16536,-4.2249349e-7)"
         id="use8622"
         xlink:href="#use8262"
         y="0"
         x="0" />
      <use
         height="100%"
         width="100%"
         transform="translate(0,177.16536)"
         id="use8624"
         xlink:href="#use7878"
         y="0"
         x="0" />
      <use
         height="100%"
         width="100%"
         transform="translate(-7.8336956e-8,177.16536)"
         id="use8626"
         xlink:href="#use7880"
         y="0"
         x="0" />
      <use
         height="100%"
         width="100%"
         transform="translate(4.3038709e-7,177.16536)"
         id="use8628"
         xlink:href="#use7882"
         y="0"
         x="0" />
      <use
         height="100%"
         width="100%"
         transform="translate(-1.4993512e-7,177.16536)"
         id="use8630"
         xlink:href="#use7884"
         y="0"
         x="0" />
      <use
         height="100%"
         width="100%"
         transform="translate(-1.5286487e-7,177.16536)"
         id="use8632"
         xlink:href="#use7888"
         y="0"
         x="0" />
      <use
         height="100%"
         width="100%"
         transform="translate(3.4274574e-6,177.16536)"
         id="use8634"
         xlink:href="#use7976"
         y="0"
         x="0" />
      <use
         height="100%"
         width="100%"
         transform="translate(2.8442054e-6,177.16536)"
         id="use8636"
         xlink:href="#use8248"
         y="0"
         x="0" />
      <use
         height="100%"
         width="100%"
         transform="translate(3.9245276e-6,177.16536)"
         id="use8638"
         xlink:href="#use8490"
         y="0"
         x="0" />
      <use
         height="100%"
         width="100%"
         transform="translate(2.8412759e-6,177.16536)"
         id="use8640"
         xlink:href="#use8620"
         y="0"
         x="0" />
      <use
         height="100%"
         width="100%"
         transform="translate(0,177.16536)"
         id="use8790"
         xlink:href="#use8250"
         y="0"
         x="0" />
      <use
         height="100%"
         width="100%"
         transform="translate(3.9501951e-7,177.16536)"
         id="use8792"
         xlink:href="#use8252"
         y="0"
         x="0" />
      <use
         height="100%"
         width="100%"
         transform="translate(2.4309904e-7,177.16536)"
         id="use8794"
         xlink:href="#use8254"
         y="0"
         x="0" />
      <use
         height="100%"
         width="100%"
         transform="translate(3.2342131e-7,177.16536)"
         id="use8796"
         xlink:href="#use8256"
         y="0"
         x="0" />
      <use
         height="100%"
         width="100%"
         transform="translate(-2.5983053e-7,177.16536)"
         id="use8798"
         xlink:href="#use8258"
         y="0"
         x="0" />
      <use
         height="100%"
         width="100%"
         transform="translate(-1.7950829e-7,177.16536)"
         id="use8800"
         xlink:href="#use8260"
         y="0"
         x="0" />
      <use
         height="100%"
         width="100%"
         transform="translate(1.7372396e-6,177.16536)"
         id="use8802"
         xlink:href="#use8262"
         y="0"
         x="0" />
      <use
         height="100%"
         width="100%"
         transform="translate(3.3175619e-6,177.16536)"
         id="use8804"
         xlink:href="#use8492"
         y="0"
         x="0" />
      <use
         height="100%"
         width="100%"
         transform="translate(1.23431e-6,177.16536)"
         id="use8806"
         xlink:href="#use8622"
         y="0"
         x="0" />
    </g>
  </g>
</svg>
