<?xml version="1.0" encoding="UTF-8" standalone="no"?>
<!-- Created with Inkscape (http://www.inkscape.org/) -->

<svg
   xmlns:dc="http://purl.org/dc/elements/1.1/"
   xmlns:cc="http://creativecommons.org/ns#"
   xmlns:rdf="http://www.w3.org/1999/02/22-rdf-syntax-ns#"
   xmlns:svg="http://www.w3.org/2000/svg"
   xmlns="http://www.w3.org/2000/svg"
   xmlns:xlink="http://www.w3.org/1999/xlink"
   xmlns:sodipodi="http://sodipodi.sourceforge.net/DTD/sodipodi-0.dtd"
   xmlns:inkscape="http://www.inkscape.org/namespaces/inkscape"
   width="297mm"
   height="210mm"
   viewBox="0 0 1052.3622 744.09448"
   id="svg2"
   version="1.1"
   inkscape:version="0.91 r13725"
   sodipodi:docname="Checkerboard-A4-20mm-13x9.svg">
  <defs
     id="defs4" />
  <sodipodi:namedview
     id="base"
     pagecolor="#ffffff"
     bordercolor="#666666"
     borderopacity="1.0"
     inkscape:pageopacity="0.0"
     inkscape:pageshadow="2"
     inkscape:zoom="0.7"
     inkscape:cx="328.17723"
     inkscape:cy="77.212381"
     inkscape:document-units="mm"
     inkscape:current-layer="layer1"
     showgrid="false"
     inkscape:snap-bbox="true"
     inkscape:bbox-nodes="true"
     inkscape:window-width="1763"
     inkscape:window-height="1367"
     inkscape:window-x="307"
     inkscape:window-y="47"
     inkscape:window-maximized="0" />
  <metadata
     id="metadata7">
    <rdf:RDF>
      <cc:Work
         rdf:about="">
        <dc:format>image/svg+xml</dc:format>
        <dc:type
           rdf:resource="http://purl.org/dc/dcmitype/StillImage" />
        <dc:title></dc:title>
      </cc:Work>
    </rdf:RDF>
  </metadata>
  <g
     inkscape:label="Layer 1"
     inkscape:groupmode="layer"
     id="layer1"
     transform="translate(0,-308.26772)">
    <g
       id="g10998"
       transform="translate(3.2635791,-0.54392044)">
      <rect
         y="326.52817"
         x="26.854527"
         height="70.866142"
         width="70.866142"
         id="rect8751"
         style="opacity:1;fill:#000000;fill-opacity:1;stroke:none;stroke-width:0.1;stroke-linecap:round;stroke-linejoin:round;stroke-miterlimit:4;stroke-dasharray:none;stroke-dashoffset:0;stroke-opacity:1" />
      <rect
         y="326.52817"
         x="97.720665"
         height="70.866142"
         width="70.866142"
         id="rect8751-6"
         style="opacity:1;fill:#ffffff;fill-opacity:1;stroke:none;stroke-width:0.1;stroke-linecap:round;stroke-linejoin:round;stroke-miterlimit:4;stroke-dasharray:none;stroke-dashoffset:0;stroke-opacity:1" />
      <use
         height="100%"
         width="100%"
         transform="translate(141.73228,2.7097895e-7)"
         id="use9644"
         xlink:href="#rect8751"
         y="0"
         x="0" />
      <use
         height="100%"
         width="100%"
         transform="translate(141.73229,2.7097895e-7)"
         id="use9646"
         xlink:href="#rect8751-6"
         y="0"
         x="0" />
      <use
         height="100%"
         width="100%"
         transform="matrix(-1,0,0,1,337.17362,70.866142)"
         id="use9648"
         xlink:href="#rect8751"
         y="0"
         x="0" />
      <use
         height="100%"
         width="100%"
         transform="matrix(-1,0,0,1,337.17362,70.866142)"
         id="use9650"
         xlink:href="#rect8751-6"
         y="0"
         x="0" />
      <use
         height="100%"
         width="100%"
         transform="matrix(-1,0,0,1,337.17362,70.866142)"
         id="use9652"
         xlink:href="#use9644"
         y="0"
         x="0" />
      <use
         height="100%"
         width="100%"
         transform="matrix(-1,0,0,1,337.17363,70.866142)"
         id="use9654"
         xlink:href="#use9646"
         y="0"
         x="0" />
      <use
         height="100%"
         width="100%"
         transform="translate(-4.5577958e-7,141.73228)"
         id="use9656"
         xlink:href="#rect8751"
         y="0"
         x="0" />
      <use
         height="100%"
         width="100%"
         transform="translate(5.4422042e-7,141.73228)"
         id="use9658"
         xlink:href="#rect8751-6"
         y="0"
         x="0" />
      <use
         height="100%"
         width="100%"
         transform="translate(5.4422042e-7,141.73228)"
         id="use9660"
         xlink:href="#use9644"
         y="0"
         x="0" />
      <use
         height="100%"
         width="100%"
         transform="translate(5.4422042e-7,141.73228)"
         id="use9662"
         xlink:href="#use9646"
         y="0"
         x="0" />
      <use
         x="0"
         y="0"
         xlink:href="#rect8751"
         id="use10048"
         transform="translate(283.46457,2.7097895e-7)"
         width="100%"
         height="100%" />
      <use
         x="0"
         y="0"
         xlink:href="#rect8751-6"
         id="use10050"
         transform="matrix(-1,0,0,1,478.9059,70.866142)"
         width="100%"
         height="100%" />
      <use
         x="0"
         y="0"
         xlink:href="#use9644"
         id="use10052"
         transform="translate(141.73229,141.73228)"
         width="100%"
         height="100%" />
      <use
         height="100%"
         width="100%"
         transform="translate(141.73228,2.7097895e-7)"
         id="use10066"
         xlink:href="#use9646"
         y="0"
         x="0" />
      <use
         height="100%"
         width="100%"
         transform="translate(141.73229,2.7097895e-7)"
         id="use10068"
         xlink:href="#use9648"
         y="0"
         x="0" />
      <use
         height="100%"
         width="100%"
         transform="translate(141.73228,2.7097895e-7)"
         id="use10070"
         xlink:href="#use9662"
         y="0"
         x="0" />
      <use
         height="100%"
         width="100%"
         transform="translate(-4.5577958e-7,141.73229)"
         id="use10072"
         xlink:href="#use9648"
         y="0"
         x="0" />
      <use
         height="100%"
         width="100%"
         transform="translate(-4.5577958e-7,141.73229)"
         id="use10074"
         xlink:href="#use9650"
         y="0"
         x="0" />
      <use
         height="100%"
         width="100%"
         transform="translate(-4.5577958e-7,141.73229)"
         id="use10076"
         xlink:href="#use9652"
         y="0"
         x="0" />
      <use
         height="100%"
         width="100%"
         transform="translate(5.4422042e-7,141.73229)"
         id="use10078"
         xlink:href="#use9654"
         y="0"
         x="0" />
      <use
         height="100%"
         width="100%"
         transform="translate(-4.5577958e-7,141.73229)"
         id="use10080"
         xlink:href="#use10050"
         y="0"
         x="0" />
      <use
         height="100%"
         width="100%"
         transform="translate(-4.4557796e-6,141.73229)"
         id="use10082"
         xlink:href="#use10068"
         y="0"
         x="0" />
      <use
         height="100%"
         width="100%"
         transform="translate(141.73228,2.7097895e-7)"
         id="use10172"
         xlink:href="#use10048"
         y="0"
         x="0" />
      <use
         height="100%"
         width="100%"
         transform="translate(141.73229,2.7097895e-7)"
         id="use10174"
         xlink:href="#use10050"
         y="0"
         x="0" />
      <use
         height="100%"
         width="100%"
         transform="translate(141.73228,2.7097895e-7)"
         id="use10176"
         xlink:href="#use10052"
         y="0"
         x="0" />
      <use
         height="100%"
         width="100%"
         transform="translate(141.73229,-7.2902105e-7)"
         id="use10178"
         xlink:href="#use10080"
         y="0"
         x="0" />
      <use
         height="100%"
         width="100%"
         transform="translate(-4.5577958e-7,141.73229)"
         id="use10180"
         xlink:href="#use9656"
         y="0"
         x="0" />
      <use
         height="100%"
         width="100%"
         transform="translate(5.4422042e-7,141.73229)"
         id="use10182"
         xlink:href="#use9658"
         y="0"
         x="0" />
      <use
         height="100%"
         width="100%"
         transform="translate(-4.5577958e-7,141.73229)"
         id="use10184"
         xlink:href="#use9660"
         y="0"
         x="0" />
      <use
         height="100%"
         width="100%"
         transform="translate(5.4422042e-7,141.73229)"
         id="use10186"
         xlink:href="#use9662"
         y="0"
         x="0" />
      <use
         height="100%"
         width="100%"
         transform="translate(5.4422042e-7,141.73229)"
         id="use10188"
         xlink:href="#use10052"
         y="0"
         x="0" />
      <use
         height="100%"
         width="100%"
         transform="translate(-4.5577958e-7,141.73229)"
         id="use10190"
         xlink:href="#use10070"
         y="0"
         x="0" />
      <use
         height="100%"
         width="100%"
         transform="translate(-1.4557796e-6,141.73229)"
         id="use10192"
         xlink:href="#use10176"
         y="0"
         x="0" />
      <use
         height="100%"
         width="100%"
         transform="translate(141.73229,2.7097895e-7)"
         id="use10304"
         xlink:href="#use10066"
         y="0"
         x="0" />
      <use
         height="100%"
         width="100%"
         transform="translate(141.73228,-7.2902105e-7)"
         id="use10306"
         xlink:href="#use10068"
         y="0"
         x="0" />
      <use
         height="100%"
         width="100%"
         transform="translate(141.73229,-7.2902105e-7)"
         id="use10308"
         xlink:href="#use10070"
         y="0"
         x="0" />
      <use
         height="100%"
         width="100%"
         transform="translate(141.73228,2.7097895e-7)"
         id="use10310"
         xlink:href="#use10082"
         y="0"
         x="0" />
      <use
         height="100%"
         width="100%"
         transform="translate(141.73229,2.7097895e-7)"
         id="use10312"
         xlink:href="#use10190"
         y="0"
         x="0" />
      <use
         height="100%"
         width="100%"
         transform="translate(141.73229,2.7097895e-7)"
         id="use10434"
         xlink:href="#use10172"
         y="0"
         x="0" />
      <use
         height="100%"
         width="100%"
         transform="translate(141.73228,-7.2902105e-7)"
         id="use10436"
         xlink:href="#use10174"
         y="0"
         x="0" />
      <use
         height="100%"
         width="100%"
         transform="translate(141.73229,-7.2902105e-7)"
         id="use10438"
         xlink:href="#use10176"
         y="0"
         x="0" />
      <use
         height="100%"
         width="100%"
         transform="translate(141.73228,2.7097895e-7)"
         id="use10440"
         xlink:href="#use10178"
         y="0"
         x="0" />
      <use
         height="100%"
         width="100%"
         transform="translate(141.73228,2.7097895e-7)"
         id="use10442"
         xlink:href="#use10192"
         y="0"
         x="0" />
      <use
         height="100%"
         width="100%"
         transform="translate(-4.5577958e-7,141.73228)"
         id="use10444"
         xlink:href="#use10072"
         y="0"
         x="0" />
      <use
         height="100%"
         width="100%"
         transform="translate(5.4422042e-7,141.73228)"
         id="use10446"
         xlink:href="#use10074"
         y="0"
         x="0" />
      <use
         height="100%"
         width="100%"
         transform="translate(-4.5577958e-7,141.73228)"
         id="use10448"
         xlink:href="#use10076"
         y="0"
         x="0" />
      <use
         height="100%"
         width="100%"
         transform="translate(5.4422042e-7,141.73228)"
         id="use10450"
         xlink:href="#use10078"
         y="0"
         x="0" />
      <use
         height="100%"
         width="100%"
         transform="translate(5.4422042e-7,141.73228)"
         id="use10452"
         xlink:href="#use10080"
         y="0"
         x="0" />
      <use
         height="100%"
         width="100%"
         transform="translate(5.4422042e-7,141.73228)"
         id="use10454"
         xlink:href="#use10082"
         y="0"
         x="0" />
      <use
         height="100%"
         width="100%"
         transform="translate(-2.4557796e-6,141.73228)"
         id="use10456"
         xlink:href="#use10178"
         y="0"
         x="0" />
      <use
         height="100%"
         width="100%"
         transform="translate(-4.4557796e-6,141.73228)"
         id="use10458"
         xlink:href="#use10310"
         y="0"
         x="0" />
      <use
         height="100%"
         width="100%"
         transform="translate(2.5442204e-6,141.73228)"
         id="use10460"
         xlink:href="#use10440"
         y="0"
         x="0" />
      <use
         height="100%"
         width="100%"
         transform="translate(141.73228,2.7097895e-7)"
         id="use10610"
         xlink:href="#use10304"
         y="0"
         x="0" />
      <use
         height="100%"
         width="100%"
         transform="translate(141.73228,-7.2902105e-7)"
         id="use10612"
         xlink:href="#use10306"
         y="0"
         x="0" />
      <use
         height="100%"
         width="100%"
         transform="translate(141.73228,-7.2902105e-7)"
         id="use10614"
         xlink:href="#use10308"
         y="0"
         x="0" />
      <use
         height="100%"
         width="100%"
         transform="translate(141.73229,2.7097895e-7)"
         id="use10616"
         xlink:href="#use10310"
         y="0"
         x="0" />
      <use
         height="100%"
         width="100%"
         transform="translate(141.73228,2.7097895e-7)"
         id="use10618"
         xlink:href="#use10312"
         y="0"
         x="0" />
      <use
         height="100%"
         width="100%"
         transform="translate(141.73228,2.7097895e-7)"
         id="use10620"
         xlink:href="#use10434"
         y="0"
         x="0" />
      <use
         height="100%"
         width="100%"
         transform="translate(141.73229,-7.2902105e-7)"
         id="use10622"
         xlink:href="#use10436"
         y="0"
         x="0" />
      <use
         height="100%"
         width="100%"
         transform="translate(141.73228,-7.2902105e-7)"
         id="use10624"
         xlink:href="#use10438"
         y="0"
         x="0" />
      <use
         height="100%"
         width="100%"
         transform="translate(141.73229,2.7097895e-7)"
         id="use10626"
         xlink:href="#use10440"
         y="0"
         x="0" />
      <use
         height="100%"
         width="100%"
         transform="translate(141.73229,2.7097895e-7)"
         id="use10628"
         xlink:href="#use10442"
         y="0"
         x="0" />
      <use
         height="100%"
         width="100%"
         transform="translate(141.73228,-7.2902105e-7)"
         id="use10630"
         xlink:href="#use10458"
         y="0"
         x="0" />
      <use
         height="100%"
         width="100%"
         transform="translate(141.73229,-7.2902105e-7)"
         id="use10632"
         xlink:href="#use10460"
         y="0"
         x="0" />
      <use
         height="100%"
         width="100%"
         transform="translate(-4.5577958e-7,141.73228)"
         id="use10634"
         xlink:href="#use10180"
         y="0"
         x="0" />
      <use
         height="100%"
         width="100%"
         transform="translate(-4.5577958e-7,141.73228)"
         id="use10636"
         xlink:href="#use10182"
         y="0"
         x="0" />
      <use
         height="100%"
         width="100%"
         transform="translate(5.4422042e-7,141.73228)"
         id="use10638"
         xlink:href="#use10184"
         y="0"
         x="0" />
      <use
         height="100%"
         width="100%"
         transform="translate(-4.5577958e-7,141.73228)"
         id="use10640"
         xlink:href="#use10186"
         y="0"
         x="0" />
      <use
         height="100%"
         width="100%"
         transform="translate(5.4422042e-7,141.73228)"
         id="use10642"
         xlink:href="#use10188"
         y="0"
         x="0" />
      <use
         height="100%"
         width="100%"
         transform="translate(5.4422042e-7,141.73228)"
         id="use10644"
         xlink:href="#use10190"
         y="0"
         x="0" />
      <use
         height="100%"
         width="100%"
         transform="translate(-1.4557796e-6,141.73228)"
         id="use10646"
         xlink:href="#use10192"
         y="0"
         x="0" />
      <use
         height="100%"
         width="100%"
         transform="translate(-4.4557796e-6,141.73228)"
         id="use10648"
         xlink:href="#use10312"
         y="0"
         x="0" />
      <use
         height="100%"
         width="100%"
         transform="translate(2.5442204e-6,141.73228)"
         id="use10650"
         xlink:href="#use10442"
         y="0"
         x="0" />
      <use
         height="100%"
         width="100%"
         transform="translate(5.4422042e-7,141.73229)"
         id="use10652"
         xlink:href="#use10444"
         y="0"
         x="0" />
      <use
         height="100%"
         width="100%"
         transform="translate(-4.5577958e-7,141.73229)"
         id="use10654"
         xlink:href="#use10446"
         y="0"
         x="0" />
      <use
         height="100%"
         width="100%"
         transform="translate(5.4422042e-7,141.73229)"
         id="use10656"
         xlink:href="#use10448"
         y="0"
         x="0" />
      <use
         height="100%"
         width="100%"
         transform="translate(-4.5577958e-7,141.73229)"
         id="use10658"
         xlink:href="#use10450"
         y="0"
         x="0" />
      <use
         height="100%"
         width="100%"
         transform="translate(-4.5577958e-7,141.73229)"
         id="use10660"
         xlink:href="#use10452"
         y="0"
         x="0" />
      <use
         height="100%"
         width="100%"
         transform="translate(-4.5577958e-7,141.73229)"
         id="use10662"
         xlink:href="#use10454"
         y="0"
         x="0" />
      <use
         height="100%"
         width="100%"
         transform="translate(-3.4557796e-6,141.73229)"
         id="use10664"
         xlink:href="#use10456"
         y="0"
         x="0" />
      <use
         height="100%"
         width="100%"
         transform="translate(-5.4557796e-6,141.73229)"
         id="use10666"
         xlink:href="#use10458"
         y="0"
         x="0" />
      <use
         height="100%"
         width="100%"
         transform="translate(1.5442204e-6,141.73229)"
         id="use10668"
         xlink:href="#use10460"
         y="0"
         x="0" />
      <use
         height="100%"
         width="100%"
         transform="translate(5.4422042e-7,141.73228)"
         id="use10670"
         xlink:href="#use10618"
         y="0"
         x="0" />
      <use
         height="100%"
         width="100%"
         transform="translate(-2.4557796e-6,141.73228)"
         id="use10672"
         xlink:href="#use10628"
         y="0"
         x="0" />
      <use
         height="100%"
         width="100%"
         transform="translate(-4.5577958e-7,141.73229)"
         id="use10674"
         xlink:href="#use10630"
         y="0"
         x="0" />
      <use
         height="100%"
         width="100%"
         transform="translate(-3.4557796e-6,141.73229)"
         id="use10676"
         xlink:href="#use10632"
         y="0"
         x="0" />
      <use
         height="100%"
         width="100%"
         transform="translate(141.73228,2.7097895e-7)"
         id="use10894"
         xlink:href="#use10610"
         y="0"
         x="0" />
      <use
         height="100%"
         width="100%"
         transform="translate(141.73228,2.7097895e-7)"
         id="use10896"
         xlink:href="#use10612"
         y="0"
         x="0" />
      <use
         height="100%"
         width="100%"
         transform="translate(141.73228,2.7097895e-7)"
         id="use10898"
         xlink:href="#use10614"
         y="0"
         x="0" />
      <use
         height="100%"
         width="100%"
         transform="translate(141.73228,2.7097895e-7)"
         id="use10900"
         xlink:href="#use10616"
         y="0"
         x="0" />
      <use
         height="100%"
         width="100%"
         transform="translate(141.73228,2.7097895e-7)"
         id="use10902"
         xlink:href="#use10618"
         y="0"
         x="0" />
      <use
         height="100%"
         width="100%"
         transform="translate(141.73228,2.7097895e-7)"
         id="use10904"
         xlink:href="#use10620"
         y="0"
         x="0" />
      <use
         height="100%"
         width="100%"
         transform="translate(141.73228,2.7097895e-7)"
         id="use10906"
         xlink:href="#use10622"
         y="0"
         x="0" />
      <use
         height="100%"
         width="100%"
         transform="translate(141.73228,2.7097895e-7)"
         id="use10908"
         xlink:href="#use10624"
         y="0"
         x="0" />
      <use
         height="100%"
         width="100%"
         transform="translate(141.73228,2.7097895e-7)"
         id="use10910"
         xlink:href="#use10626"
         y="0"
         x="0" />
      <use
         height="100%"
         width="100%"
         transform="translate(141.73228,2.7097895e-7)"
         id="use10912"
         xlink:href="#use10628"
         y="0"
         x="0" />
      <use
         height="100%"
         width="100%"
         transform="translate(141.73228,2.7097895e-7)"
         id="use10914"
         xlink:href="#use10630"
         y="0"
         x="0" />
      <use
         height="100%"
         width="100%"
         transform="translate(141.73228,2.7097895e-7)"
         id="use10916"
         xlink:href="#use10632"
         y="0"
         x="0" />
      <use
         height="100%"
         width="100%"
         transform="translate(141.73228,2.7097895e-7)"
         id="use10918"
         xlink:href="#use10670"
         y="0"
         x="0" />
      <use
         height="100%"
         width="100%"
         transform="translate(141.73228,2.7097895e-7)"
         id="use10920"
         xlink:href="#use10672"
         y="0"
         x="0" />
      <use
         height="100%"
         width="100%"
         transform="translate(141.73228,2.7097895e-7)"
         id="use10922"
         xlink:href="#use10674"
         y="0"
         x="0" />
      <use
         height="100%"
         width="100%"
         transform="translate(141.73228,2.7097895e-7)"
         id="use10924"
         xlink:href="#use10676"
         y="0"
         x="0" />
      <use
         height="100%"
         width="100%"
         transform="translate(3.5442204e-6,141.73229)"
         id="use10926"
         xlink:href="#use10634"
         y="0"
         x="0" />
      <use
         height="100%"
         width="100%"
         transform="translate(3.5442204e-6,141.73229)"
         id="use10928"
         xlink:href="#use10636"
         y="0"
         x="0" />
      <use
         height="100%"
         width="100%"
         transform="translate(3.5442204e-6,141.73229)"
         id="use10930"
         xlink:href="#use10638"
         y="0"
         x="0" />
      <use
         height="100%"
         width="100%"
         transform="translate(3.5442204e-6,141.73229)"
         id="use10932"
         xlink:href="#use10640"
         y="0"
         x="0" />
      <use
         height="100%"
         width="100%"
         transform="translate(3.5442204e-6,141.73229)"
         id="use10934"
         xlink:href="#use10642"
         y="0"
         x="0" />
      <use
         height="100%"
         width="100%"
         transform="translate(3.5442204e-6,141.73229)"
         id="use10936"
         xlink:href="#use10644"
         y="0"
         x="0" />
      <use
         height="100%"
         width="100%"
         transform="translate(3.5442204e-6,141.73229)"
         id="use10938"
         xlink:href="#use10646"
         y="0"
         x="0" />
      <use
         height="100%"
         width="100%"
         transform="translate(3.5442204e-6,141.73229)"
         id="use10940"
         xlink:href="#use10648"
         y="0"
         x="0" />
      <use
         height="100%"
         width="100%"
         transform="translate(3.5442204e-6,141.73229)"
         id="use10942"
         xlink:href="#use10650"
         y="0"
         x="0" />
      <use
         height="100%"
         width="100%"
         transform="translate(3.5442204e-6,141.73229)"
         id="use10944"
         xlink:href="#use10652"
         y="0"
         x="0" />
      <use
         height="100%"
         width="100%"
         transform="translate(3.5442204e-6,141.73229)"
         id="use10946"
         xlink:href="#use10654"
         y="0"
         x="0" />
      <use
         height="100%"
         width="100%"
         transform="translate(3.5442204e-6,141.73229)"
         id="use10948"
         xlink:href="#use10656"
         y="0"
         x="0" />
      <use
         height="100%"
         width="100%"
         transform="translate(3.5442204e-6,141.73229)"
         id="use10950"
         xlink:href="#use10658"
         y="0"
         x="0" />
      <use
         height="100%"
         width="100%"
         transform="translate(3.5442204e-6,141.73229)"
         id="use10952"
         xlink:href="#use10660"
         y="0"
         x="0" />
      <use
         height="100%"
         width="100%"
         transform="translate(3.5442204e-6,141.73229)"
         id="use10954"
         xlink:href="#use10662"
         y="0"
         x="0" />
      <use
         height="100%"
         width="100%"
         transform="translate(3.5442204e-6,141.73229)"
         id="use10956"
         xlink:href="#use10664"
         y="0"
         x="0" />
      <use
         height="100%"
         width="100%"
         transform="translate(3.5442204e-6,141.73229)"
         id="use10958"
         xlink:href="#use10666"
         y="0"
         x="0" />
      <use
         height="100%"
         width="100%"
         transform="translate(3.5442204e-6,141.73229)"
         id="use10960"
         xlink:href="#use10668"
         y="0"
         x="0" />
      <use
         height="100%"
         width="100%"
         transform="translate(3.5442204e-6,141.73229)"
         id="use10962"
         xlink:href="#use10670"
         y="0"
         x="0" />
      <use
         height="100%"
         width="100%"
         transform="translate(3.5442204e-6,141.73229)"
         id="use10964"
         xlink:href="#use10672"
         y="0"
         x="0" />
      <use
         height="100%"
         width="100%"
         transform="translate(3.5442204e-6,141.73229)"
         id="use10966"
         xlink:href="#use10674"
         y="0"
         x="0" />
      <use
         height="100%"
         width="100%"
         transform="translate(3.5442204e-6,141.73229)"
         id="use10968"
         xlink:href="#use10676"
         y="0"
         x="0" />
      <use
         height="100%"
         width="100%"
         transform="translate(3.5442204e-6,141.73229)"
         id="use10970"
         xlink:href="#use10918"
         y="0"
         x="0" />
      <use
         height="100%"
         width="100%"
         transform="translate(3.5442204e-6,141.73229)"
         id="use10972"
         xlink:href="#use10920"
         y="0"
         x="0" />
      <use
         height="100%"
         width="100%"
         transform="translate(3.5442204e-6,141.73229)"
         id="use10974"
         xlink:href="#use10922"
         y="0"
         x="0" />
      <use
         height="100%"
         width="100%"
         transform="translate(3.5442204e-6,141.73229)"
         id="use10976"
         xlink:href="#use10924"
         y="0"
         x="0" />
      <use
         height="100%"
         width="100%"
         transform="translate(141.73229,-2.5439281e-6)"
         id="use10978"
         xlink:href="#use10894"
         y="0"
         x="0" />
      <use
         height="100%"
         width="100%"
         transform="translate(141.73229,-2.5439281e-6)"
         id="use10980"
         xlink:href="#use10896"
         y="0"
         x="0" />
      <use
         height="100%"
         width="100%"
         transform="translate(141.73229,-2.5439281e-6)"
         id="use10982"
         xlink:href="#use10898"
         y="0"
         x="0" />
      <use
         height="100%"
         width="100%"
         transform="translate(141.73229,-2.5439281e-6)"
         id="use10984"
         xlink:href="#use10900"
         y="0"
         x="0" />
      <use
         height="100%"
         width="100%"
         transform="translate(141.73229,-2.5439281e-6)"
         id="use10986"
         xlink:href="#use10902"
         y="0"
         x="0" />
      <use
         height="100%"
         width="100%"
         transform="translate(141.73229,-2.5439281e-6)"
         id="use10988"
         xlink:href="#use10914"
         y="0"
         x="0" />
      <use
         height="100%"
         width="100%"
         transform="translate(141.73229,-2.5439281e-6)"
         id="use10990"
         xlink:href="#use10918"
         y="0"
         x="0" />
      <use
         height="100%"
         width="100%"
         transform="translate(141.73229,-2.5439281e-6)"
         id="use10992"
         xlink:href="#use10922"
         y="0"
         x="0" />
      <use
         height="100%"
         width="100%"
         transform="translate(141.73229,-2.5439281e-6)"
         id="use10994"
         xlink:href="#use10970"
         y="0"
         x="0" />
      <use
         height="100%"
         width="100%"
         transform="translate(141.73229,-2.5439281e-6)"
         id="use10996"
         xlink:href="#use10974"
         y="0"
         x="0" />
    </g>
  </g>
</svg>
