<?xml version="1.0" encoding="UTF-8" standalone="no"?>
<!-- Created with Inkscape (http://www.inkscape.org/) -->

<svg
   xmlns:dc="http://purl.org/dc/elements/1.1/"
   xmlns:cc="http://creativecommons.org/ns#"
   xmlns:rdf="http://www.w3.org/1999/02/22-rdf-syntax-ns#"
   xmlns:svg="http://www.w3.org/2000/svg"
   xmlns="http://www.w3.org/2000/svg"
   xmlns:xlink="http://www.w3.org/1999/xlink"
   xmlns:sodipodi="http://sodipodi.sourceforge.net/DTD/sodipodi-0.dtd"
   xmlns:inkscape="http://www.inkscape.org/namespaces/inkscape"
   width="841mm"
   height="594mm"
   viewBox="0 0 2979.9212 2104.7244"
   id="svg2"
   version="1.1"
   inkscape:version="0.91 r13725"
   sodipodi:docname="Checkerboard-A1-145mm-4x3.svg">
  <defs
     id="defs4" />
  <sodipodi:namedview
     id="base"
     pagecolor="#ffffff"
     bordercolor="#666666"
     borderopacity="1.0"
     inkscape:pageopacity="0.0"
     inkscape:pageshadow="2"
     inkscape:zoom="0.25"
     inkscape:cx="1900.355"
     inkscape:cy="1002.4744"
     inkscape:document-units="mm"
     inkscape:current-layer="layer1"
     showgrid="false"
     inkscape:snap-bbox="true"
     inkscape:bbox-nodes="true"
     inkscape:window-width="1521"
     inkscape:window-height="1367"
     inkscape:window-x="1013"
     inkscape:window-y="47"
     inkscape:window-maximized="0"
     inkscape:snap-page="true"
     showguides="false" />
  <metadata
     id="metadata7">
    <rdf:RDF>
      <cc:Work
         rdf:about="">
        <dc:format>image/svg+xml</dc:format>
        <dc:type
           rdf:resource="http://purl.org/dc/dcmitype/StillImage" />
        <dc:title></dc:title>
      </cc:Work>
    </rdf:RDF>
  </metadata>
  <g
     inkscape:label="Layer 1"
     inkscape:groupmode="layer"
     id="layer1"
     transform="translate(0,1052.3622)">
    <rect
       style="opacity:0.93999999;fill:#000000;fill-opacity:1;stroke:none;stroke-width:1.79999995;stroke-linecap:round;stroke-linejoin:round;stroke-miterlimit:4;stroke-dasharray:none;stroke-dashoffset:0;stroke-opacity:1"
       id="rect7484"
       width="513.77954"
       height="513.77954"
       x="205.51183"
       y="-1027.5591" />
    <rect
       style="opacity:0.93999999;fill:#ffffff;fill-opacity:1;stroke:none;stroke-width:1.79999995;stroke-linecap:round;stroke-linejoin:round;stroke-miterlimit:4;stroke-dasharray:none;stroke-dashoffset:0;stroke-opacity:1"
       id="rect7484-6"
       width="513.77954"
       height="513.77954"
       x="719.29138"
       y="-1027.5591" />
    <use
       x="0"
       y="0"
       xlink:href="#rect7484"
       id="use14227"
       transform="translate(1027.5591,-6.1202786e-7)"
       width="100%"
       height="100%" />
    <use
       x="0"
       y="0"
       xlink:href="#rect7484-6"
       id="use14229"
       width="100%"
       height="100%"
       transform="translate(1027.5591,-6.1202786e-7)" />
    <use
       x="0"
       y="0"
       xlink:href="#rect7484"
       id="use14233"
       transform="matrix(-1,0,0,1,1438.5827,513.77954)"
       width="100%"
       height="100%" />
    <use
       x="0"
       y="0"
       xlink:href="#rect7484-6"
       id="use14235"
       transform="matrix(-1,0,0,1,1438.5826,513.77954)"
       width="100%"
       height="100%" />
    <use
       x="0"
       y="0"
       xlink:href="#rect7484"
       id="use14237"
       transform="matrix(-1,0,0,1,2466.1418,513.77954)"
       width="100%"
       height="100%" />
    <use
       x="0"
       y="0"
       xlink:href="#rect7484-6"
       id="use14239"
       transform="matrix(-1,0,0,1,2466.1417,513.77954)"
       width="100%"
       height="100%" />
    <use
       x="0"
       y="0"
       xlink:href="#rect7484"
       id="use14243"
       transform="translate(-6.3313109e-8,1027.5591)"
       width="100%"
       height="100%" />
    <use
       x="0"
       y="0"
       xlink:href="#rect7484-6"
       id="use14245"
       transform="translate(-6.3313109e-8,1027.5591)"
       width="100%"
       height="100%" />
    <use
       x="0"
       y="0"
       xlink:href="#rect7484"
       id="use14247"
       transform="translate(1027.5591,1027.5591)"
       width="100%"
       height="100%" />
    <use
       x="0"
       y="0"
       xlink:href="#rect7484-6"
       id="use14249"
       transform="translate(1027.5591,1027.5591)"
       width="100%"
       height="100%" />
    <use
       x="0"
       y="0"
       xlink:href="#rect7484"
       id="use15187"
       transform="translate(2055.1182,-6.1202786e-7)"
       width="100%"
       height="100%" />
    <use
       x="0"
       y="0"
       xlink:href="#use14235"
       id="use15189"
       transform="translate(2055.1182,-6.1202786e-7)"
       width="100%"
       height="100%" />
    <use
       x="0"
       y="0"
       xlink:href="#use14243"
       id="use15191"
       transform="translate(2055.1182,-6.1202786e-7)"
       width="100%"
       height="100%" />
    <use
       x="0"
       y="0"
       xlink:href="#use14233"
       id="use15693"
       transform="translate(2.5734057e-6,1027.5591)"
       width="100%"
       height="100%" />
    <use
       x="0"
       y="0"
       xlink:href="#use14235"
       id="use15695"
       transform="translate(2.5734057e-6,1027.5591)"
       width="100%"
       height="100%" />
    <use
       x="0"
       y="0"
       xlink:href="#use14237"
       id="use15697"
       transform="translate(2.5734057e-6,1027.5591)"
       width="100%"
       height="100%" />
    <use
       x="0"
       y="0"
       xlink:href="#use14239"
       id="use15699"
       transform="translate(2.5734057e-6,1027.5591)"
       width="100%"
       height="100%" />
    <use
       x="0"
       y="0"
       xlink:href="#use15189"
       id="use15701"
       transform="translate(2.5734057e-6,1027.5591)"
       width="100%"
       height="100%" />
  </g>
</svg>
