<?xml version="1.0" encoding="UTF-8" standalone="no"?>
<!-- Created with Inkscape (http://www.inkscape.org/) -->

<svg
   xmlns:dc="http://purl.org/dc/elements/1.1/"
   xmlns:cc="http://creativecommons.org/ns#"
   xmlns:rdf="http://www.w3.org/1999/02/22-rdf-syntax-ns#"
   xmlns:svg="http://www.w3.org/2000/svg"
   xmlns="http://www.w3.org/2000/svg"
   xmlns:xlink="http://www.w3.org/1999/xlink"
   xmlns:sodipodi="http://sodipodi.sourceforge.net/DTD/sodipodi-0.dtd"
   xmlns:inkscape="http://www.inkscape.org/namespaces/inkscape"
   width="420mm"
   height="297mm"
   viewBox="0 0 1488.189 1052.3622"
   id="svg2"
   version="1.1"
   inkscape:version="0.91 r13725"
   sodipodi:docname="Checkerboard-A3-40mm-9x6.svg">
  <defs
     id="defs4" />
  <sodipodi:namedview
     id="base"
     pagecolor="#ffffff"
     bordercolor="#666666"
     borderopacity="1.0"
     inkscape:pageopacity="0.0"
     inkscape:pageshadow="2"
     inkscape:zoom="0.49497475"
     inkscape:cx="921.94654"
     inkscape:cy="740.83611"
     inkscape:document-units="mm"
     inkscape:current-layer="layer1"
     showgrid="false"
     inkscape:snap-bbox="true"
     inkscape:bbox-nodes="true"
     inkscape:window-width="1664"
     inkscape:window-height="1367"
     inkscape:window-x="307"
     inkscape:window-y="47"
     inkscape:window-maximized="0" />
  <metadata
     id="metadata7">
    <rdf:RDF>
      <cc:Work
         rdf:about="">
        <dc:format>image/svg+xml</dc:format>
        <dc:type
           rdf:resource="http://purl.org/dc/dcmitype/StillImage" />
        <dc:title></dc:title>
      </cc:Work>
    </rdf:RDF>
  </metadata>
  <g
     inkscape:label="Layer 1"
     inkscape:groupmode="layer"
     id="layer1"
     transform="translate(0,-3.464567e-6)">
    <g
       id="g12251"
       transform="translate(-7.3041518,-15.230009)">
      <rect
         y="45.348125"
         x="42.737225"
         height="141.73228"
         width="141.73228"
         id="rect8751"
         style="opacity:1;fill:#000000;fill-opacity:1;stroke:none;stroke-width:0.1;stroke-linecap:round;stroke-linejoin:round;stroke-miterlimit:4;stroke-dasharray:none;stroke-dashoffset:0;stroke-opacity:1" />
      <rect
         y="45.348125"
         x="184.46951"
         height="141.73228"
         width="141.73228"
         id="rect8751-6"
         style="opacity:1;fill:#ffffff;fill-opacity:1;stroke:none;stroke-width:0.1;stroke-linecap:round;stroke-linejoin:round;stroke-miterlimit:4;stroke-dasharray:none;stroke-dashoffset:0;stroke-opacity:1" />
      <use
         height="100%"
         width="100%"
         transform="translate(283.46457,-1.0362582e-7)"
         id="use11322"
         xlink:href="#rect8751"
         y="0"
         x="0" />
      <use
         height="100%"
         width="100%"
         transform="translate(283.46457,-1.0362582e-7)"
         id="use11324"
         xlink:href="#rect8751-6"
         y="0"
         x="0" />
      <use
         height="100%"
         width="100%"
         transform="matrix(-1,0,0,1,652.40358,141.73228)"
         id="use11326"
         xlink:href="#rect8751"
         y="0"
         x="0" />
      <use
         height="100%"
         width="100%"
         transform="matrix(-1,0,0,1,652.40359,141.73228)"
         id="use11328"
         xlink:href="#rect8751-6"
         y="0"
         x="0" />
      <use
         height="100%"
         width="100%"
         transform="matrix(-1,0,0,1,652.40359,141.73228)"
         id="use11330"
         xlink:href="#use11322"
         y="0"
         x="0" />
      <use
         height="100%"
         width="100%"
         transform="matrix(-1,0,0,1,652.40359,141.73228)"
         id="use11332"
         xlink:href="#use11324"
         y="0"
         x="0" />
      <use
         height="100%"
         width="100%"
         transform="translate(283.46457,-1.0362582e-7)"
         id="use11334"
         xlink:href="#use11322"
         y="0"
         x="0" />
      <use
         height="100%"
         width="100%"
         transform="translate(283.46457,-1.0362582e-7)"
         id="use11336"
         xlink:href="#use11328"
         y="0"
         x="0" />
      <use
         height="100%"
         width="100%"
         transform="translate(2.8290043e-7,283.46457)"
         id="use11338"
         xlink:href="#rect8751"
         y="0"
         x="0" />
      <use
         height="100%"
         width="100%"
         transform="translate(2.8290043e-7,283.46457)"
         id="use11340"
         xlink:href="#rect8751-6"
         y="0"
         x="0" />
      <use
         height="100%"
         width="100%"
         transform="translate(-7.1709957e-7,283.46457)"
         id="use11342"
         xlink:href="#use11322"
         y="0"
         x="0" />
      <use
         height="100%"
         width="100%"
         transform="translate(2.8290043e-7,283.46457)"
         id="use11344"
         xlink:href="#use11324"
         y="0"
         x="0" />
      <use
         height="100%"
         width="100%"
         transform="translate(-7.1709957e-7,283.46457)"
         id="use11346"
         xlink:href="#use11334"
         y="0"
         x="0" />
      <use
         height="100%"
         width="100%"
         transform="translate(2.8290043e-7,283.46457)"
         id="use11507"
         xlink:href="#use11326"
         y="0"
         x="0" />
      <use
         height="100%"
         width="100%"
         transform="translate(-7.1709957e-7,283.46457)"
         id="use11509"
         xlink:href="#use11328"
         y="0"
         x="0" />
      <use
         height="100%"
         width="100%"
         transform="translate(2.8290043e-7,283.46457)"
         id="use11511"
         xlink:href="#use11330"
         y="0"
         x="0" />
      <use
         height="100%"
         width="100%"
         transform="translate(2.8290043e-7,283.46457)"
         id="use11513"
         xlink:href="#use11332"
         y="0"
         x="0" />
      <use
         height="100%"
         width="100%"
         transform="translate(-7.1709957e-7,283.46457)"
         id="use11515"
         xlink:href="#use11336"
         y="0"
         x="0" />
      <use
         height="100%"
         width="100%"
         transform="translate(283.46457,-1.0362582e-7)"
         id="use11597"
         xlink:href="#use11324"
         y="0"
         x="0" />
      <use
         height="100%"
         width="100%"
         transform="translate(283.46457,-2.1036258e-6)"
         id="use11599"
         xlink:href="#use11326"
         y="0"
         x="0" />
      <use
         height="100%"
         width="100%"
         transform="translate(283.46457,-1.0362582e-7)"
         id="use11601"
         xlink:href="#use11344"
         y="0"
         x="0" />
      <use
         height="100%"
         width="100%"
         transform="translate(283.46457,-1.0362582e-7)"
         id="use11603"
         xlink:href="#use11507"
         y="0"
         x="0" />
      <use
         height="100%"
         width="100%"
         transform="translate(283.46457,-1.0362582e-7)"
         id="use11781"
         xlink:href="#use11334"
         y="0"
         x="0" />
      <use
         height="100%"
         width="100%"
         transform="translate(283.46457,-1.0362582e-7)"
         id="use11783"
         xlink:href="#use11336"
         y="0"
         x="0" />
      <use
         height="100%"
         width="100%"
         transform="translate(283.46457,-1.0362582e-7)"
         id="use11785"
         xlink:href="#use11346"
         y="0"
         x="0" />
      <use
         height="100%"
         width="100%"
         transform="translate(283.46457,-1.0362582e-7)"
         id="use11787"
         xlink:href="#use11515"
         y="0"
         x="0" />
      <use
         height="100%"
         width="100%"
         transform="translate(2.8290043e-7,283.46457)"
         id="use11789"
         xlink:href="#use11338"
         y="0"
         x="0" />
      <use
         height="100%"
         width="100%"
         transform="translate(2.8290043e-7,283.46457)"
         id="use11791"
         xlink:href="#use11340"
         y="0"
         x="0" />
      <use
         height="100%"
         width="100%"
         transform="translate(2.8290043e-7,283.46457)"
         id="use11793"
         xlink:href="#use11342"
         y="0"
         x="0" />
      <use
         height="100%"
         width="100%"
         transform="translate(2.8290043e-7,283.46457)"
         id="use11795"
         xlink:href="#use11344"
         y="0"
         x="0" />
      <use
         height="100%"
         width="100%"
         transform="translate(2.8290043e-7,283.46457)"
         id="use11797"
         xlink:href="#use11346"
         y="0"
         x="0" />
      <use
         height="100%"
         width="100%"
         transform="translate(2.8290043e-7,283.46457)"
         id="use11799"
         xlink:href="#use11601"
         y="0"
         x="0" />
      <use
         height="100%"
         width="100%"
         transform="translate(4.2829004e-6,283.46457)"
         id="use11801"
         xlink:href="#use11785"
         y="0"
         x="0" />
      <use
         height="100%"
         width="100%"
         transform="translate(283.46457,-1.0362582e-7)"
         id="use11913"
         xlink:href="#use11597"
         y="0"
         x="0" />
      <use
         height="100%"
         width="100%"
         transform="translate(283.46457,-1.0362582e-7)"
         id="use11915"
         xlink:href="#use11599"
         y="0"
         x="0" />
      <use
         height="100%"
         width="100%"
         transform="translate(283.46456,-1.0362582e-7)"
         id="use11917"
         xlink:href="#use11601"
         y="0"
         x="0" />
      <use
         height="100%"
         width="100%"
         transform="translate(283.46457,-1.0362582e-7)"
         id="use11919"
         xlink:href="#use11603"
         y="0"
         x="0" />
      <use
         height="100%"
         width="100%"
         transform="translate(283.46456,-1.0362582e-7)"
         id="use11921"
         xlink:href="#use11799"
         y="0"
         x="0" />
      <use
         height="100%"
         width="100%"
         transform="translate(283.46457,-1.0362582e-7)"
         id="use12043"
         xlink:href="#use11781"
         y="0"
         x="0" />
      <use
         height="100%"
         width="100%"
         transform="translate(283.46456,-1.0362582e-7)"
         id="use12045"
         xlink:href="#use11783"
         y="0"
         x="0" />
      <use
         height="100%"
         width="100%"
         transform="translate(283.46457,-1.0362582e-7)"
         id="use12047"
         xlink:href="#use11785"
         y="0"
         x="0" />
      <use
         height="100%"
         width="100%"
         transform="translate(283.46456,-1.0362582e-7)"
         id="use12049"
         xlink:href="#use11787"
         y="0"
         x="0" />
      <use
         height="100%"
         width="100%"
         transform="translate(283.46457,-1.0362582e-7)"
         id="use12051"
         xlink:href="#use11801"
         y="0"
         x="0" />
      <use
         height="100%"
         width="100%"
         transform="translate(2.8290043e-7,283.46457)"
         id="use12053"
         xlink:href="#use11507"
         y="0"
         x="0" />
      <use
         height="100%"
         width="100%"
         transform="translate(2.8290043e-7,283.46457)"
         id="use12055"
         xlink:href="#use11509"
         y="0"
         x="0" />
      <use
         height="100%"
         width="100%"
         transform="translate(2.8290043e-7,283.46457)"
         id="use12057"
         xlink:href="#use11511"
         y="0"
         x="0" />
      <use
         height="100%"
         width="100%"
         transform="translate(2.8290043e-7,283.46457)"
         id="use12059"
         xlink:href="#use11513"
         y="0"
         x="0" />
      <use
         height="100%"
         width="100%"
         transform="translate(2.8290043e-7,283.46457)"
         id="use12061"
         xlink:href="#use11515"
         y="0"
         x="0" />
      <use
         height="100%"
         width="100%"
         transform="translate(2.8290043e-7,283.46457)"
         id="use12063"
         xlink:href="#use11603"
         y="0"
         x="0" />
      <use
         height="100%"
         width="100%"
         transform="translate(2.2829004e-6,283.46457)"
         id="use12065"
         xlink:href="#use11787"
         y="0"
         x="0" />
      <use
         height="100%"
         width="100%"
         transform="translate(-7.1709957e-7,283.46457)"
         id="use12067"
         xlink:href="#use11919"
         y="0"
         x="0" />
      <use
         height="100%"
         width="100%"
         transform="translate(1.2829004e-6,283.46457)"
         id="use12069"
         xlink:href="#use12049"
         y="0"
         x="0" />
      <use
         height="100%"
         width="100%"
         transform="translate(283.46455,-4.5458985e-6)"
         id="use12219"
         xlink:href="#use11913"
         y="0"
         x="0" />
      <use
         height="100%"
         width="100%"
         transform="translate(283.46455,-4.5458985e-6)"
         id="use12221"
         xlink:href="#use11915"
         y="0"
         x="0" />
      <use
         height="100%"
         width="100%"
         transform="translate(283.46455,-4.5458985e-6)"
         id="use12223"
         xlink:href="#use11917"
         y="0"
         x="0" />
      <use
         height="100%"
         width="100%"
         transform="translate(283.46455,-4.5458985e-6)"
         id="use12225"
         xlink:href="#use11919"
         y="0"
         x="0" />
      <use
         height="100%"
         width="100%"
         transform="translate(283.46455,-4.5458985e-6)"
         id="use12227"
         xlink:href="#use11921"
         y="0"
         x="0" />
      <use
         height="100%"
         width="100%"
         transform="translate(283.46455,-4.5458985e-6)"
         id="use12229"
         xlink:href="#use12067"
         y="0"
         x="0" />
      <use
         height="100%"
         width="100%"
         transform="translate(1.8422852e-6,283.46456)"
         id="use12231"
         xlink:href="#use11789"
         y="0"
         x="0" />
      <use
         height="100%"
         width="100%"
         transform="translate(1.8422852e-6,283.46456)"
         id="use12233"
         xlink:href="#use11791"
         y="0"
         x="0" />
      <use
         height="100%"
         width="100%"
         transform="translate(1.8422852e-6,283.46456)"
         id="use12235"
         xlink:href="#use11793"
         y="0"
         x="0" />
      <use
         height="100%"
         width="100%"
         transform="translate(1.8422852e-6,283.46456)"
         id="use12237"
         xlink:href="#use11795"
         y="0"
         x="0" />
      <use
         height="100%"
         width="100%"
         transform="translate(1.8422852e-6,283.46456)"
         id="use12239"
         xlink:href="#use11797"
         y="0"
         x="0" />
      <use
         height="100%"
         width="100%"
         transform="translate(1.8422852e-6,283.46456)"
         id="use12241"
         xlink:href="#use11799"
         y="0"
         x="0" />
      <use
         height="100%"
         width="100%"
         transform="translate(1.8422852e-6,283.46456)"
         id="use12243"
         xlink:href="#use11801"
         y="0"
         x="0" />
      <use
         height="100%"
         width="100%"
         transform="translate(1.8422852e-6,283.46456)"
         id="use12245"
         xlink:href="#use11921"
         y="0"
         x="0" />
      <use
         height="100%"
         width="100%"
         transform="translate(1.8422852e-6,283.46456)"
         id="use12247"
         xlink:href="#use12051"
         y="0"
         x="0" />
      <use
         height="100%"
         width="100%"
         transform="translate(1.8422852e-6,283.46456)"
         id="use12249"
         xlink:href="#use12227"
         y="0"
         x="0" />
    </g>
  </g>
</svg>
