<?xml version="1.0" encoding="UTF-8" standalone="no"?>
<!-- Created with Inkscape (http://www.inkscape.org/) -->

<svg
   xmlns:dc="http://purl.org/dc/elements/1.1/"
   xmlns:cc="http://creativecommons.org/ns#"
   xmlns:rdf="http://www.w3.org/1999/02/22-rdf-syntax-ns#"
   xmlns:svg="http://www.w3.org/2000/svg"
   xmlns="http://www.w3.org/2000/svg"
   xmlns:xlink="http://www.w3.org/1999/xlink"
   xmlns:sodipodi="http://sodipodi.sourceforge.net/DTD/sodipodi-0.dtd"
   xmlns:inkscape="http://www.inkscape.org/namespaces/inkscape"
   width="594mm"
   height="420mm"
   viewBox="0 0 2104.7244 1488.189"
   id="svg2"
   version="1.1"
   inkscape:version="0.91 r13725"
   sodipodi:docname="Checkerboard-A2-45mm-12x8.svg">
  <defs
     id="defs4" />
  <sodipodi:namedview
     id="base"
     pagecolor="#ffffff"
     bordercolor="#666666"
     borderopacity="1.0"
     inkscape:pageopacity="0.0"
     inkscape:pageshadow="2"
     inkscape:zoom="0.25"
     inkscape:cx="1085.6935"
     inkscape:cy="287.07941"
     inkscape:document-units="mm"
     inkscape:current-layer="layer1"
     showgrid="false"
     inkscape:snap-bbox="true"
     inkscape:bbox-nodes="true"
     inkscape:window-width="1521"
     inkscape:window-height="1367"
     inkscape:window-x="1013"
     inkscape:window-y="47"
     inkscape:window-maximized="0" />
  <metadata
     id="metadata7">
    <rdf:RDF>
      <cc:Work
         rdf:about="">
        <dc:format>image/svg+xml</dc:format>
        <dc:type
           rdf:resource="http://purl.org/dc/dcmitype/StillImage" />
        <dc:title></dc:title>
      </cc:Work>
    </rdf:RDF>
  </metadata>
  <g
     inkscape:label="Layer 1"
     inkscape:groupmode="layer"
     id="layer1"
     transform="translate(0,435.82677)">
    <g
       id="g9698"
       transform="translate(-62.007868,-26.574826)">
      <rect
         y="-382.67715"
         x="77.952705"
         height="159.44882"
         width="159.44882"
         id="rect7484"
         style="opacity:0.93999999;fill:#000000;fill-opacity:1;stroke:none;stroke-width:1.79999995;stroke-linecap:round;stroke-linejoin:round;stroke-miterlimit:4;stroke-dasharray:none;stroke-dashoffset:0;stroke-opacity:1" />
      <rect
         y="-382.67715"
         x="237.40152"
         height="159.44882"
         width="159.44882"
         id="rect7484-6"
         style="opacity:0.93999999;fill:#ffffff;fill-opacity:1;stroke:none;stroke-width:1.79999995;stroke-linecap:round;stroke-linejoin:round;stroke-miterlimit:4;stroke-dasharray:none;stroke-dashoffset:0;stroke-opacity:1" />
      <use
         height="100%"
         width="100%"
         transform="translate(318.89764,0)"
         id="use7846"
         xlink:href="#rect7484"
         y="0"
         x="0" />
      <use
         height="100%"
         width="100%"
         transform="translate(318.89764,0)"
         id="use7848"
         xlink:href="#rect7484-6"
         y="0"
         x="0" />
      <use
         height="100%"
         width="100%"
         transform="translate(637.79529,0)"
         id="use7850"
         xlink:href="#rect7484"
         y="0"
         x="0" />
      <use
         height="100%"
         width="100%"
         transform="matrix(-1,0,0,1,474.80305,159.44882)"
         id="use7854"
         xlink:href="#rect7484"
         y="0"
         x="0" />
      <use
         height="100%"
         width="100%"
         transform="matrix(-1,0,0,1,474.80305,159.44882)"
         id="use7856"
         xlink:href="#rect7484-6"
         y="0"
         x="0" />
      <use
         height="100%"
         width="100%"
         transform="matrix(-1,0,0,1,793.7007,159.44882)"
         id="use7858"
         xlink:href="#rect7484"
         y="0"
         x="0" />
      <use
         height="100%"
         width="100%"
         transform="matrix(-1,0,0,1,793.7007,159.44882)"
         id="use7860"
         xlink:href="#rect7484-6"
         y="0"
         x="0" />
      <use
         height="100%"
         width="100%"
         transform="matrix(-1,0,0,1,1112.5984,159.44882)"
         id="use7864"
         xlink:href="#rect7484-6"
         y="0"
         x="0" />
      <use
         height="100%"
         width="100%"
         transform="translate(0,318.89764)"
         id="use7866"
         xlink:href="#rect7484"
         y="0"
         x="0" />
      <use
         height="100%"
         width="100%"
         transform="translate(1.3591988e-7,318.89764)"
         id="use7868"
         xlink:href="#rect7484-6"
         y="0"
         x="0" />
      <use
         height="100%"
         width="100%"
         transform="translate(318.89764,318.89764)"
         id="use7870"
         xlink:href="#rect7484"
         y="0"
         x="0" />
      <use
         height="100%"
         width="100%"
         transform="translate(318.89764,318.89764)"
         id="use7872"
         xlink:href="#rect7484-6"
         y="0"
         x="0" />
      <use
         height="100%"
         width="100%"
         transform="translate(637.79529,318.89764)"
         id="use7874"
         xlink:href="#rect7484"
         y="0"
         x="0" />
      <use
         height="100%"
         width="100%"
         transform="translate(-1.8585757e-7,318.89765)"
         id="use7878"
         xlink:href="#use7854"
         y="0"
         x="0" />
      <use
         height="100%"
         width="100%"
         transform="translate(1.8474791e-7,318.89765)"
         id="use7880"
         xlink:href="#use7856"
         y="0"
         x="0" />
      <use
         height="100%"
         width="100%"
         transform="translate(318.89765,318.89765)"
         id="use7882"
         xlink:href="#use7854"
         y="0"
         x="0" />
      <use
         height="100%"
         width="100%"
         transform="translate(318.89765,318.89765)"
         id="use7884"
         xlink:href="#use7856"
         y="0"
         x="0" />
      <use
         height="100%"
         width="100%"
         transform="translate(637.79529,318.89765)"
         id="use7888"
         xlink:href="#use7856"
         y="0"
         x="0" />
      <use
         height="100%"
         width="100%"
         transform="translate(318.89765,0)"
         id="use7970"
         xlink:href="#use7848"
         y="0"
         x="0" />
      <use
         height="100%"
         width="100%"
         transform="translate(318.89764,-3.489547e-7)"
         id="use7972"
         xlink:href="#use7858"
         y="0"
         x="0" />
      <use
         height="100%"
         width="100%"
         transform="translate(318.89765,1.7545926e-7)"
         id="use7974"
         xlink:href="#use7872"
         y="0"
         x="0" />
      <use
         height="100%"
         width="100%"
         transform="translate(318.89764,-3.0012643e-7)"
         id="use7976"
         xlink:href="#use7882"
         y="0"
         x="0" />
      <use
         height="100%"
         width="100%"
         transform="translate(318.89764,0)"
         id="use8242"
         xlink:href="#use7850"
         y="0"
         x="0" />
      <use
         height="100%"
         width="100%"
         transform="translate(318.89765,-3.489547e-7)"
         id="use8244"
         xlink:href="#use7864"
         y="0"
         x="0" />
      <use
         height="100%"
         width="100%"
         transform="translate(318.89764,1.7545926e-7)"
         id="use8246"
         xlink:href="#use7874"
         y="0"
         x="0" />
      <use
         height="100%"
         width="100%"
         transform="translate(318.89765,-3.0012643e-7)"
         id="use8248"
         xlink:href="#use7888"
         y="0"
         x="0" />
      <use
         height="100%"
         width="100%"
         transform="translate(0,318.89765)"
         id="use8250"
         xlink:href="#use7866"
         y="0"
         x="0" />
      <use
         height="100%"
         width="100%"
         transform="translate(-1.3523152e-7,318.89765)"
         id="use8252"
         xlink:href="#use7868"
         y="0"
         x="0" />
      <use
         height="100%"
         width="100%"
         transform="translate(-4.4464653e-7,318.89765)"
         id="use8254"
         xlink:href="#use7870"
         y="0"
         x="0" />
      <use
         height="100%"
         width="100%"
         transform="translate(1.8474798e-7,318.89765)"
         id="use8256"
         xlink:href="#use7872"
         y="0"
         x="0" />
      <use
         height="100%"
         width="100%"
         transform="translate(-3.958184e-7,318.89765)"
         id="use8258"
         xlink:href="#use7874"
         y="0"
         x="0" />
      <use
         height="100%"
         width="100%"
         transform="translate(2.3974613e-7,318.89765)"
         id="use8260"
         xlink:href="#use7974"
         y="0"
         x="0" />
      <use
         height="100%"
         width="100%"
         transform="translate(2.6530096e-6,318.89765)"
         id="use8262"
         xlink:href="#use8246"
         y="0"
         x="0" />
      <use
         height="100%"
         width="100%"
         transform="translate(318.89764,0)"
         id="use8484"
         xlink:href="#use7970"
         y="0"
         x="0" />
      <use
         height="100%"
         width="100%"
         transform="translate(318.89765,4.0723762e-7)"
         id="use8486"
         xlink:href="#use7972"
         y="0"
         x="0" />
      <use
         height="100%"
         width="100%"
         transform="translate(318.89764,4.3458112e-7)"
         id="use8488"
         xlink:href="#use7974"
         y="0"
         x="0" />
      <use
         height="100%"
         width="100%"
         transform="translate(318.89765,4.6192508e-7)"
         id="use8490"
         xlink:href="#use7976"
         y="0"
         x="0" />
      <use
         height="100%"
         width="100%"
         transform="translate(318.89764,4.8340917e-7)"
         id="use8492"
         xlink:href="#use8260"
         y="0"
         x="0" />
      <use
         height="100%"
         width="100%"
         transform="translate(318.89765,0)"
         id="use8614"
         xlink:href="#use8242"
         y="0"
         x="0" />
      <use
         height="100%"
         width="100%"
         transform="translate(318.89764,4.0723762e-7)"
         id="use8616"
         xlink:href="#use8244"
         y="0"
         x="0" />
      <use
         height="100%"
         width="100%"
         transform="translate(318.89765,4.3458112e-7)"
         id="use8618"
         xlink:href="#use8246"
         y="0"
         x="0" />
      <use
         height="100%"
         width="100%"
         transform="translate(318.89764,4.6192508e-7)"
         id="use8620"
         xlink:href="#use8248"
         y="0"
         x="0" />
      <use
         height="100%"
         width="100%"
         transform="translate(318.89765,4.8340917e-7)"
         id="use8622"
         xlink:href="#use8262"
         y="0"
         x="0" />
      <use
         height="100%"
         width="100%"
         transform="translate(-4.3454804e-7,318.89764)"
         id="use8624"
         xlink:href="#use7878"
         y="0"
         x="0" />
      <use
         height="100%"
         width="100%"
         transform="translate(4.6047147e-7,318.89764)"
         id="use8626"
         xlink:href="#use7880"
         y="0"
         x="0" />
      <use
         height="100%"
         width="100%"
         transform="translate(-1.3702945e-7,318.89764)"
         id="use8628"
         xlink:href="#use7882"
         y="0"
         x="0" />
      <use
         height="100%"
         width="100%"
         transform="translate(2.3357604e-7,318.89764)"
         id="use8630"
         xlink:href="#use7884"
         y="0"
         x="0" />
      <use
         height="100%"
         width="100%"
         transform="translate(2.8240406e-7,318.89764)"
         id="use8632"
         xlink:href="#use7888"
         y="0"
         x="0" />
      <use
         height="100%"
         width="100%"
         transform="translate(-4.0882013e-6,318.89764)"
         id="use8634"
         xlink:href="#use7976"
         y="0"
         x="0" />
      <use
         height="100%"
         width="100%"
         transform="translate(3.3123206e-7,318.89764)"
         id="use8636"
         xlink:href="#use8248"
         y="0"
         x="0" />
      <use
         height="100%"
         width="100%"
         transform="translate(-3.0393732e-6,318.89764)"
         id="use8638"
         xlink:href="#use8490"
         y="0"
         x="0" />
      <use
         height="100%"
         width="100%"
         transform="translate(3.8006053e-7,318.89764)"
         id="use8640"
         xlink:href="#use8620"
         y="0"
         x="0" />
      <use
         height="100%"
         width="100%"
         transform="translate(0,318.89764)"
         id="use8790"
         xlink:href="#use8250"
         y="0"
         x="0" />
      <use
         height="100%"
         width="100%"
         transform="translate(3.4035443e-7,318.89764)"
         id="use8792"
         xlink:href="#use8252"
         y="0"
         x="0" />
      <use
         height="100%"
         width="100%"
         transform="translate(-1.8552456e-7,318.89764)"
         id="use8794"
         xlink:href="#use8254"
         y="0"
         x="0" />
      <use
         height="100%"
         width="100%"
         transform="translate(-8.0544119e-8,318.89764)"
         id="use8796"
         xlink:href="#use8256"
         y="0"
         x="0" />
      <use
         height="100%"
         width="100%"
         transform="translate(-1.3083712e-7,318.89764)"
         id="use8798"
         xlink:href="#use8258"
         y="0"
         x="0" />
      <use
         height="100%"
         width="100%"
         transform="translate(-1.968678e-8,318.89764)"
         id="use8800"
         xlink:href="#use8260"
         y="0"
         x="0" />
      <use
         height="100%"
         width="100%"
         transform="translate(3.9238502e-6,318.89764)"
         id="use8802"
         xlink:href="#use8262"
         y="0"
         x="0" />
      <use
         height="100%"
         width="100%"
         transform="translate(-4.9708586e-6,318.89764)"
         id="use8804"
         xlink:href="#use8492"
         y="0"
         x="0" />
      <use
         height="100%"
         width="100%"
         transform="translate(2.9726783e-6,318.89764)"
         id="use8806"
         xlink:href="#use8622"
         y="0"
         x="0" />
      <use
         height="100%"
         width="100%"
         transform="translate(318.89765,0)"
         id="use9130"
         xlink:href="#use8484"
         y="0"
         x="0" />
      <use
         height="100%"
         width="100%"
         transform="translate(318.89764,6.4142569e-8)"
         id="use9132"
         xlink:href="#use8486"
         y="0"
         x="0" />
      <use
         height="100%"
         width="100%"
         transform="translate(318.89765,-4.0558461e-7)"
         id="use9134"
         xlink:href="#use8488"
         y="0"
         x="0" />
      <use
         height="100%"
         width="100%"
         transform="translate(318.89764,1.24689e-7)"
         id="use9136"
         xlink:href="#use8490"
         y="0"
         x="0" />
      <use
         height="100%"
         width="100%"
         transform="translate(318.89765,-3.508967e-7)"
         id="use9138"
         xlink:href="#use8492"
         y="0"
         x="0" />
      <use
         height="100%"
         width="100%"
         transform="translate(318.89764,1.7351749e-7)"
         id="use9140"
         xlink:href="#use8638"
         y="0"
         x="0" />
      <use
         height="100%"
         width="100%"
         transform="translate(318.89764,-2.3020689e-6)"
         id="use9142"
         xlink:href="#use8804"
         y="0"
         x="0" />
      <use
         height="100%"
         width="100%"
         transform="translate(318.89764,0)"
         id="use9324"
         xlink:href="#use8614"
         y="0"
         x="0" />
      <use
         height="100%"
         width="100%"
         transform="translate(318.89764,4.0723762e-7)"
         id="use9326"
         xlink:href="#use8616"
         y="0"
         x="0" />
      <use
         height="100%"
         width="100%"
         transform="translate(318.89764,4.3458112e-7)"
         id="use9328"
         xlink:href="#use8618"
         y="0"
         x="0" />
      <use
         height="100%"
         width="100%"
         transform="translate(318.89764,4.6192508e-7)"
         id="use9330"
         xlink:href="#use8620"
         y="0"
         x="0" />
      <use
         height="100%"
         width="100%"
         transform="translate(318.89764,4.8340917e-7)"
         id="use9332"
         xlink:href="#use8622"
         y="0"
         x="0" />
      <use
         height="100%"
         width="100%"
         transform="translate(318.89764,-4.9510618e-7)"
         id="use9334"
         xlink:href="#use8640"
         y="0"
         x="0" />
      <use
         height="100%"
         width="100%"
         transform="translate(318.89765,2.526378e-6)"
         id="use9336"
         xlink:href="#use8806"
         y="0"
         x="0" />
      <use
         height="100%"
         width="100%"
         transform="translate(-1.5784835e-7,318.89764)"
         id="use9338"
         xlink:href="#use8624"
         y="0"
         x="0" />
      <use
         height="100%"
         width="100%"
         transform="translate(-2.6282879e-7,318.89764)"
         id="use9340"
         xlink:href="#use8626"
         y="0"
         x="0" />
      <use
         height="100%"
         width="100%"
         transform="translate(1.3967023e-7,318.89764)"
         id="use9342"
         xlink:href="#use8628"
         y="0"
         x="0" />
      <use
         height="100%"
         width="100%"
         transform="translate(-4.8972427e-7,318.89764)"
         id="use9344"
         xlink:href="#use8630"
         y="0"
         x="0" />
      <use
         height="100%"
         width="100%"
         transform="translate(-4.4089626e-7,318.89764)"
         id="use9346"
         xlink:href="#use8632"
         y="0"
         x="0" />
      <use
         height="100%"
         width="100%"
         transform="translate(-1.8115016e-6,318.89764)"
         id="use9348"
         xlink:href="#use8634"
         y="0"
         x="0" />
      <use
         height="100%"
         width="100%"
         transform="translate(2.6079317e-6,318.89764)"
         id="use9350"
         xlink:href="#use8636"
         y="0"
         x="0" />
      <use
         height="100%"
         width="100%"
         transform="translate(-7.6267349e-7,318.89764)"
         id="use9352"
         xlink:href="#use8638"
         y="0"
         x="0" />
      <use
         height="100%"
         width="100%"
         transform="translate(2.6567602e-6,318.89764)"
         id="use9354"
         xlink:href="#use8640"
         y="0"
         x="0" />
      <use
         height="100%"
         width="100%"
         transform="translate(3.2802953e-6,318.89764)"
         id="use9356"
         xlink:href="#use9140"
         y="0"
         x="0" />
      <use
         height="100%"
         width="100%"
         transform="translate(-3.3002709e-6,318.89764)"
         id="use9358"
         xlink:href="#use9334"
         y="0"
         x="0" />
      <use
         height="100%"
         width="100%"
         transform="translate(318.89764,1.899059e-6)"
         id="use9640"
         xlink:href="#use9130"
         y="0"
         x="0" />
      <use
         height="100%"
         width="100%"
         transform="translate(318.89764,1.899059e-6)"
         id="use9642"
         xlink:href="#use9132"
         y="0"
         x="0" />
      <use
         height="100%"
         width="100%"
         transform="translate(318.89764,1.899059e-6)"
         id="use9644"
         xlink:href="#use9134"
         y="0"
         x="0" />
      <use
         height="100%"
         width="100%"
         transform="translate(318.89764,1.899059e-6)"
         id="use9646"
         xlink:href="#use9136"
         y="0"
         x="0" />
      <use
         height="100%"
         width="100%"
         transform="translate(318.89764,1.899059e-6)"
         id="use9648"
         xlink:href="#use9138"
         y="0"
         x="0" />
      <use
         height="100%"
         width="100%"
         transform="translate(318.89764,1.899059e-6)"
         id="use9650"
         xlink:href="#use9140"
         y="0"
         x="0" />
      <use
         height="100%"
         width="100%"
         transform="translate(318.89764,1.899059e-6)"
         id="use9652"
         xlink:href="#use9142"
         y="0"
         x="0" />
      <use
         height="100%"
         width="100%"
         transform="translate(318.89764,1.899059e-6)"
         id="use9654"
         xlink:href="#use9324"
         y="0"
         x="0" />
      <use
         height="100%"
         width="100%"
         transform="translate(318.89764,1.899059e-6)"
         id="use9656"
         xlink:href="#use9326"
         y="0"
         x="0" />
      <use
         height="100%"
         width="100%"
         transform="translate(318.89764,1.899059e-6)"
         id="use9658"
         xlink:href="#use9328"
         y="0"
         x="0" />
      <use
         height="100%"
         width="100%"
         transform="translate(318.89764,1.899059e-6)"
         id="use9660"
         xlink:href="#use9330"
         y="0"
         x="0" />
      <use
         height="100%"
         width="100%"
         transform="translate(318.89764,1.899059e-6)"
         id="use9662"
         xlink:href="#use9332"
         y="0"
         x="0" />
      <use
         height="100%"
         width="100%"
         transform="translate(318.89764,1.899059e-6)"
         id="use9664"
         xlink:href="#use9334"
         y="0"
         x="0" />
      <use
         height="100%"
         width="100%"
         transform="translate(318.89764,1.899059e-6)"
         id="use9666"
         xlink:href="#use9336"
         y="0"
         x="0" />
      <use
         height="100%"
         width="100%"
         transform="translate(318.89764,1.899059e-6)"
         id="use9668"
         xlink:href="#use9356"
         y="0"
         x="0" />
      <use
         height="100%"
         width="100%"
         transform="translate(318.89764,1.899059e-6)"
         id="use9670"
         xlink:href="#use9358"
         y="0"
         x="0" />
      <use
         height="100%"
         width="100%"
         transform="translate(-1.0182618e-5,318.89764)"
         id="use9672"
         xlink:href="#use8790"
         y="0"
         x="0" />
      <use
         height="100%"
         width="100%"
         transform="translate(-1.0182618e-5,318.89764)"
         id="use9674"
         xlink:href="#use8792"
         y="0"
         x="0" />
      <use
         height="100%"
         width="100%"
         transform="translate(-1.0182618e-5,318.89764)"
         id="use9676"
         xlink:href="#use8794"
         y="0"
         x="0" />
      <use
         height="100%"
         width="100%"
         transform="translate(-1.0182618e-5,318.89764)"
         id="use9678"
         xlink:href="#use8796"
         y="0"
         x="0" />
      <use
         height="100%"
         width="100%"
         transform="translate(-1.0182618e-5,318.89764)"
         id="use9680"
         xlink:href="#use8798"
         y="0"
         x="0" />
      <use
         height="100%"
         width="100%"
         transform="translate(-1.0182618e-5,318.89764)"
         id="use9682"
         xlink:href="#use8800"
         y="0"
         x="0" />
      <use
         height="100%"
         width="100%"
         transform="translate(-1.0182618e-5,318.89764)"
         id="use9684"
         xlink:href="#use8802"
         y="0"
         x="0" />
      <use
         height="100%"
         width="100%"
         transform="translate(-1.0182618e-5,318.89764)"
         id="use9686"
         xlink:href="#use8804"
         y="0"
         x="0" />
      <use
         height="100%"
         width="100%"
         transform="translate(-1.0182618e-5,318.89764)"
         id="use9688"
         xlink:href="#use8806"
         y="0"
         x="0" />
      <use
         height="100%"
         width="100%"
         transform="translate(-1.0182618e-5,318.89764)"
         id="use9690"
         xlink:href="#use9142"
         y="0"
         x="0" />
      <use
         height="100%"
         width="100%"
         transform="translate(-1.0182618e-5,318.89764)"
         id="use9692"
         xlink:href="#use9336"
         y="0"
         x="0" />
      <use
         height="100%"
         width="100%"
         transform="translate(-1.0182618e-5,318.89764)"
         id="use9694"
         xlink:href="#use9652"
         y="0"
         x="0" />
      <use
         height="100%"
         width="100%"
         transform="translate(-1.0182618e-5,318.89764)"
         id="use9696"
         xlink:href="#use9666"
         y="0"
         x="0" />
    </g>
  </g>
</svg>
