<?xml version="1.0" encoding="UTF-8" standalone="no"?>
<!-- Created with Inkscape (http://www.inkscape.org/) -->

<svg
   xmlns:dc="http://purl.org/dc/elements/1.1/"
   xmlns:cc="http://creativecommons.org/ns#"
   xmlns:rdf="http://www.w3.org/1999/02/22-rdf-syntax-ns#"
   xmlns:svg="http://www.w3.org/2000/svg"
   xmlns="http://www.w3.org/2000/svg"
   xmlns:xlink="http://www.w3.org/1999/xlink"
   xmlns:sodipodi="http://sodipodi.sourceforge.net/DTD/sodipodi-0.dtd"
   xmlns:inkscape="http://www.inkscape.org/namespaces/inkscape"
   width="594mm"
   height="420mm"
   viewBox="0 0 2104.7244 1488.189"
   id="svg2"
   version="1.1"
   inkscape:version="0.91 r13725"
   sodipodi:docname="Checkerboard-A2-35mm-15x11.svg">
  <defs
     id="defs4" />
  <sodipodi:namedview
     id="base"
     pagecolor="#ffffff"
     bordercolor="#666666"
     borderopacity="1.0"
     inkscape:pageopacity="0.0"
     inkscape:pageshadow="2"
     inkscape:zoom="0.25"
     inkscape:cx="948.84585"
     inkscape:cy="236.98597"
     inkscape:document-units="mm"
     inkscape:current-layer="layer1"
     showgrid="false"
     inkscape:snap-bbox="true"
     inkscape:bbox-nodes="true"
     inkscape:window-width="1521"
     inkscape:window-height="1367"
     inkscape:window-x="1013"
     inkscape:window-y="47"
     inkscape:window-maximized="0" />
  <metadata
     id="metadata7">
    <rdf:RDF>
      <cc:Work
         rdf:about="">
        <dc:format>image/svg+xml</dc:format>
        <dc:type
           rdf:resource="http://purl.org/dc/dcmitype/StillImage" />
        <dc:title></dc:title>
      </cc:Work>
    </rdf:RDF>
  </metadata>
  <g
     inkscape:label="Layer 1"
     inkscape:groupmode="layer"
     id="layer1"
     transform="translate(0,435.82677)">
    <g
       id="g10460"
       transform="translate(1.2492678e-5,-53.149577)">
      <rect
         y="-382.67719"
         x="60.236206"
         height="124.01575"
         width="124.01575"
         id="rect7484"
         style="opacity:0.93999999;fill:#000000;fill-opacity:1;stroke:none;stroke-width:1.79999995;stroke-linecap:round;stroke-linejoin:round;stroke-miterlimit:4;stroke-dasharray:none;stroke-dashoffset:0;stroke-opacity:1" />
      <rect
         y="-382.67719"
         x="184.25195"
         height="124.01575"
         width="124.01575"
         id="rect7484-6"
         style="opacity:0.93999999;fill:#ffffff;fill-opacity:1;stroke:none;stroke-width:1.79999995;stroke-linecap:round;stroke-linejoin:round;stroke-miterlimit:4;stroke-dasharray:none;stroke-dashoffset:0;stroke-opacity:1" />
      <use
         height="100%"
         width="100%"
         transform="translate(248.03149,0)"
         id="use7846"
         xlink:href="#rect7484"
         y="0"
         x="0" />
      <use
         height="100%"
         width="100%"
         transform="translate(248.0315,0)"
         id="use7848"
         xlink:href="#rect7484-6"
         y="0"
         x="0" />
      <use
         height="100%"
         width="100%"
         transform="translate(496.06299,0)"
         id="use7850"
         xlink:href="#rect7484"
         y="0"
         x="0" />
      <use
         height="100%"
         width="100%"
         transform="matrix(-1,0,0,1,368.50391,124.01575)"
         id="use7854"
         xlink:href="#rect7484"
         y="0"
         x="0" />
      <use
         height="100%"
         width="100%"
         transform="matrix(-1,0,0,1,368.5039,124.01575)"
         id="use7856"
         xlink:href="#rect7484-6"
         y="0"
         x="0" />
      <use
         height="100%"
         width="100%"
         transform="matrix(-1,0,0,1,616.5354,124.01575)"
         id="use7858"
         xlink:href="#rect7484"
         y="0"
         x="0" />
      <use
         height="100%"
         width="100%"
         transform="matrix(-1,0,0,1,616.5354,124.01575)"
         id="use7860"
         xlink:href="#rect7484-6"
         y="0"
         x="0" />
      <use
         height="100%"
         width="100%"
         transform="matrix(-1,0,0,1,864.56689,124.01575)"
         id="use7864"
         xlink:href="#rect7484-6"
         y="0"
         x="0" />
      <use
         height="100%"
         width="100%"
         transform="translate(0,248.0315)"
         id="use7866"
         xlink:href="#rect7484"
         y="0"
         x="0" />
      <use
         height="100%"
         width="100%"
         transform="translate(-3.2902523e-8,248.0315)"
         id="use7868"
         xlink:href="#rect7484-6"
         y="0"
         x="0" />
      <use
         height="100%"
         width="100%"
         transform="translate(248.03149,248.0315)"
         id="use7870"
         xlink:href="#rect7484"
         y="0"
         x="0" />
      <use
         height="100%"
         width="100%"
         transform="translate(248.0315,248.0315)"
         id="use7872"
         xlink:href="#rect7484-6"
         y="0"
         x="0" />
      <use
         height="100%"
         width="100%"
         transform="translate(496.06299,248.0315)"
         id="use7874"
         xlink:href="#rect7484"
         y="0"
         x="0" />
      <use
         height="100%"
         width="100%"
         transform="translate(1.4582689e-8,248.0315)"
         id="use7878"
         xlink:href="#use7854"
         y="0"
         x="0" />
      <use
         height="100%"
         width="100%"
         transform="translate(-2.6337135e-7,248.0315)"
         id="use7880"
         xlink:href="#use7856"
         y="0"
         x="0" />
      <use
         height="100%"
         width="100%"
         transform="translate(248.03149,248.0315)"
         id="use7882"
         xlink:href="#use7854"
         y="0"
         x="0" />
      <use
         height="100%"
         width="100%"
         transform="translate(248.0315,248.0315)"
         id="use7884"
         xlink:href="#use7856"
         y="0"
         x="0" />
      <use
         height="100%"
         width="100%"
         transform="translate(496.06299,248.0315)"
         id="use7888"
         xlink:href="#use7856"
         y="0"
         x="0" />
      <use
         height="100%"
         width="100%"
         transform="translate(248.03149,0)"
         id="use7970"
         xlink:href="#use7848"
         y="0"
         x="0" />
      <use
         height="100%"
         width="100%"
         transform="translate(248.03149,9.1806442e-8)"
         id="use7972"
         xlink:href="#use7858"
         y="0"
         x="0" />
      <use
         height="100%"
         width="100%"
         transform="translate(248.03149,1.4063494e-7)"
         id="use7974"
         xlink:href="#use7872"
         y="0"
         x="0" />
      <use
         height="100%"
         width="100%"
         transform="translate(248.03149,1.8946344e-7)"
         id="use7976"
         xlink:href="#use7882"
         y="0"
         x="0" />
      <use
         height="100%"
         width="100%"
         transform="translate(248.03149,0)"
         id="use8242"
         xlink:href="#use7850"
         y="0"
         x="0" />
      <use
         height="100%"
         width="100%"
         transform="translate(248.0315,9.1806442e-8)"
         id="use8244"
         xlink:href="#use7864"
         y="0"
         x="0" />
      <use
         height="100%"
         width="100%"
         transform="translate(248.03149,1.4063494e-7)"
         id="use8246"
         xlink:href="#use7874"
         y="0"
         x="0" />
      <use
         height="100%"
         width="100%"
         transform="translate(248.0315,1.8946344e-7)"
         id="use8248"
         xlink:href="#use7888"
         y="0"
         x="0" />
      <use
         height="100%"
         width="100%"
         transform="translate(0,248.03149)"
         id="use8250"
         xlink:href="#use7866"
         y="0"
         x="0" />
      <use
         height="100%"
         width="100%"
         transform="translate(2.7454938e-7,248.03149)"
         id="use8252"
         xlink:href="#use7868"
         y="0"
         x="0" />
      <use
         height="100%"
         width="100%"
         transform="translate(-2.1320037e-7,248.03149)"
         id="use8254"
         xlink:href="#use7870"
         y="0"
         x="0" />
      <use
         height="100%"
         width="100%"
         transform="translate(6.4753678e-8,248.03149)"
         id="use8256"
         xlink:href="#use7872"
         y="0"
         x="0" />
      <use
         height="100%"
         width="100%"
         transform="translate(-1.1554408e-7,248.03149)"
         id="use8258"
         xlink:href="#use7874"
         y="0"
         x="0" />
      <use
         height="100%"
         width="100%"
         transform="translate(1.6857997e-7,248.03149)"
         id="use8260"
         xlink:href="#use7974"
         y="0"
         x="0" />
      <use
         height="100%"
         width="100%"
         transform="translate(-2.017888e-6,248.03149)"
         id="use8262"
         xlink:href="#use8246"
         y="0"
         x="0" />
      <use
         height="100%"
         width="100%"
         transform="translate(248.03149,0)"
         id="use8484"
         xlink:href="#use7970"
         y="0"
         x="0" />
      <use
         height="100%"
         width="100%"
         transform="translate(248.0315,-3.9580914e-7)"
         id="use8486"
         xlink:href="#use7972"
         y="0"
         x="0" />
      <use
         height="100%"
         width="100%"
         transform="translate(248.03149,-3.4112122e-7)"
         id="use8488"
         xlink:href="#use7974"
         y="0"
         x="0" />
      <use
         height="100%"
         width="100%"
         transform="translate(248.0315,-2.8643285e-7)"
         id="use8490"
         xlink:href="#use7976"
         y="0"
         x="0" />
      <use
         height="100%"
         width="100%"
         transform="translate(248.0315,-2.4346491e-7)"
         id="use8492"
         xlink:href="#use8260"
         y="0"
         x="0" />
      <use
         height="100%"
         width="100%"
         transform="translate(248.0315,0)"
         id="use8614"
         xlink:href="#use8242"
         y="0"
         x="0" />
      <use
         height="100%"
         width="100%"
         transform="translate(248.03149,-3.9580914e-7)"
         id="use8616"
         xlink:href="#use8244"
         y="0"
         x="0" />
      <use
         height="100%"
         width="100%"
         transform="translate(248.0315,-3.4112122e-7)"
         id="use8618"
         xlink:href="#use8246"
         y="0"
         x="0" />
      <use
         height="100%"
         width="100%"
         transform="translate(248.03149,-2.8643285e-7)"
         id="use8620"
         xlink:href="#use8248"
         y="0"
         x="0" />
      <use
         height="100%"
         width="100%"
         transform="translate(248.03149,-2.4346491e-7)"
         id="use8622"
         xlink:href="#use8262"
         y="0"
         x="0" />
      <use
         height="100%"
         width="100%"
         transform="translate(3.4461734e-7,248.03149)"
         id="use8624"
         xlink:href="#use7878"
         y="0"
         x="0" />
      <use
         height="100%"
         width="100%"
         transform="translate(2.0814276e-7,248.03149)"
         id="use8626"
         xlink:href="#use7880"
         y="0"
         x="0" />
      <use
         height="100%"
         width="100%"
         transform="translate(1.1223898e-7,248.03149)"
         id="use8628"
         xlink:href="#use7882"
         y="0"
         x="0" />
      <use
         height="100%"
         width="100%"
         transform="translate(-1.6571507e-7,248.03149)"
         id="use8630"
         xlink:href="#use7884"
         y="0"
         x="0" />
      <use
         height="100%"
         width="100%"
         transform="translate(-6.8059023e-8,248.03149)"
         id="use8632"
         xlink:href="#use7888"
         y="0"
         x="0" />
      <use
         height="100%"
         width="100%"
         transform="translate(-1.7901046e-6,248.03149)"
         id="use8634"
         xlink:href="#use7976"
         y="0"
         x="0" />
      <use
         height="100%"
         width="100%"
         transform="translate(1.0295971e-6,248.03149)"
         id="use8636"
         xlink:href="#use8248"
         y="0"
         x="0" />
      <use
         height="100%"
         width="100%"
         transform="translate(4.3075514e-6,248.03149)"
         id="use8638"
         xlink:href="#use8490"
         y="0"
         x="0" />
      <use
         height="100%"
         width="100%"
         transform="translate(-3.872746e-6,248.03149)"
         id="use8640"
         xlink:href="#use8620"
         y="0"
         x="0" />
      <use
         height="100%"
         width="100%"
         transform="translate(0,248.0315)"
         id="use8790"
         xlink:href="#use8250"
         y="0"
         x="0" />
      <use
         height="100%"
         width="100%"
         transform="translate(-7.7644319e-8,248.0315)"
         id="use8792"
         xlink:href="#use8252"
         y="0"
         x="0" />
      <use
         height="100%"
         width="100%"
         transform="translate(2.4744972e-7,248.0315)"
         id="use8794"
         xlink:href="#use8254"
         y="0"
         x="0" />
      <use
         height="100%"
         width="100%"
         transform="translate(3.8392419e-7,248.0315)"
         id="use8796"
         xlink:href="#use8256"
         y="0"
         x="0" />
      <use
         height="100%"
         width="100%"
         transform="translate(3.5682473e-7,248.0315)"
         id="use8798"
         xlink:href="#use8258"
         y="0"
         x="0" />
      <use
         height="100%"
         width="100%"
         transform="translate(-4.8819082e-7,248.0315)"
         id="use8800"
         xlink:href="#use8260"
         y="0"
         x="0" />
      <use
         height="100%"
         width="100%"
         transform="translate(-2.5338007e-6,248.0315)"
         id="use8802"
         xlink:href="#use8262"
         y="0"
         x="0" />
      <use
         height="100%"
         width="100%"
         transform="translate(-2.3905345e-6,248.0315)"
         id="use8804"
         xlink:href="#use8492"
         y="0"
         x="0" />
      <use
         height="100%"
         width="100%"
         transform="translate(1.5638556e-6,248.0315)"
         id="use8806"
         xlink:href="#use8622"
         y="0"
         x="0" />
      <use
         height="100%"
         width="100%"
         transform="translate(248.0315,0)"
         id="use9130"
         xlink:href="#use8484"
         y="0"
         x="0" />
      <use
         height="100%"
         width="100%"
         transform="translate(248.03149,1.8071796e-7)"
         id="use9132"
         xlink:href="#use8486"
         y="0"
         x="0" />
      <use
         height="100%"
         width="100%"
         transform="translate(248.0315,-2.2846211e-7)"
         id="use9134"
         xlink:href="#use8488"
         y="0"
         x="0" />
      <use
         height="100%"
         width="100%"
         transform="translate(248.03149,3.6235974e-7)"
         id="use9136"
         xlink:href="#use8490"
         y="0"
         x="0" />
      <use
         height="100%"
         width="100%"
         transform="translate(248.03149,-1.1908651e-7)"
         id="use9138"
         xlink:href="#use8492"
         y="0"
         x="0" />
      <use
         height="100%"
         width="100%"
         transform="translate(248.0315,4.6001628e-7)"
         id="use9140"
         xlink:href="#use8638"
         y="0"
         x="0" />
      <use
         height="100%"
         width="100%"
         transform="translate(248.03149,-1.0214308e-6)"
         id="use9142"
         xlink:href="#use8804"
         y="0"
         x="0" />
      <use
         height="100%"
         width="100%"
         transform="translate(248.03149,0)"
         id="use9324"
         xlink:href="#use8614"
         y="0"
         x="0" />
      <use
         height="100%"
         width="100%"
         transform="translate(248.03149,-4.761871e-7)"
         id="use9326"
         xlink:href="#use8616"
         y="0"
         x="0" />
      <use
         height="100%"
         width="100%"
         transform="translate(248.03149,-3.8829626e-7)"
         id="use9328"
         xlink:href="#use8618"
         y="0"
         x="0" />
      <use
         height="100%"
         width="100%"
         transform="translate(248.03149,-3.0040405e-7)"
         id="use9330"
         xlink:href="#use8620"
         y="0"
         x="0" />
      <use
         height="100%"
         width="100%"
         transform="translate(248.0315,-2.8478098e-7)"
         id="use9332"
         xlink:href="#use8622"
         y="0"
         x="0" />
      <use
         height="100%"
         width="100%"
         transform="translate(248.03149,-2.0860716e-7)"
         id="use9334"
         xlink:href="#use8640"
         y="0"
         x="0" />
      <use
         height="100%"
         width="100%"
         transform="translate(248.0315,3.8070164e-6)"
         id="use9336"
         xlink:href="#use8806"
         y="0"
         x="0" />
      <use
         height="100%"
         width="100%"
         transform="translate(-4.8319632e-7,248.03149)"
         id="use9338"
         xlink:href="#use8624"
         y="0"
         x="0" />
      <use
         height="100%"
         width="100%"
         transform="translate(4.1682808e-7,248.03149)"
         id="use9340"
         xlink:href="#use8626"
         y="0"
         x="0" />
      <use
         height="100%"
         width="100%"
         transform="translate(-2.6476812e-8,248.03149)"
         id="use9342"
         xlink:href="#use8628"
         y="0"
         x="0" />
      <use
         height="100%"
         width="100%"
         transform="translate(3.1263458e-7,248.03149)"
         id="use9344"
         xlink:href="#use8630"
         y="0"
         x="0" />
      <use
         height="100%"
         width="100%"
         transform="translate(4.1614982e-7,248.03149)"
         id="use9346"
         xlink:href="#use8632"
         y="0"
         x="0" />
      <use
         height="100%"
         width="100%"
         transform="translate(7.7038877e-8,248.03149)"
         id="use9348"
         xlink:href="#use8634"
         y="0"
         x="0" />
      <use
         height="100%"
         width="100%"
         transform="translate(-1.4803347e-6,248.03149)"
         id="use9350"
         xlink:href="#use8636"
         y="0"
         x="0" />
      <use
         height="100%"
         width="100%"
         transform="translate(-8.1944575e-7,248.03149)"
         id="use9352"
         xlink:href="#use8638"
         y="0"
         x="0" />
      <use
         height="100%"
         width="100%"
         transform="translate(4.6231821e-6,248.03149)"
         id="use9354"
         xlink:href="#use8640"
         y="0"
         x="0" />
      <use
         height="100%"
         width="100%"
         transform="translate(-1.7276488e-6,248.03149)"
         id="use9356"
         xlink:href="#use9140"
         y="0"
         x="0" />
      <use
         height="100%"
         width="100%"
         transform="translate(3.7149789e-6,248.03149)"
         id="use9358"
         xlink:href="#use9334"
         y="0"
         x="0" />
      <use
         height="100%"
         width="100%"
         transform="translate(248.03149,0)"
         id="use9640"
         xlink:href="#use9130"
         y="0"
         x="0" />
      <use
         height="100%"
         width="100%"
         transform="translate(248.0315,-3.43696e-7)"
         id="use9642"
         xlink:href="#use9132"
         y="0"
         x="0" />
      <use
         height="100%"
         width="100%"
         transform="translate(248.03149,-2.1674418e-7)"
         id="use9644"
         xlink:href="#use9134"
         y="0"
         x="0" />
      <use
         height="100%"
         width="100%"
         transform="translate(248.0315,-8.9788728e-8)"
         id="use9646"
         xlink:href="#use9136"
         y="0"
         x="0" />
      <use
         height="100%"
         width="100%"
         transform="translate(248.03149,-9.5649284e-8)"
         id="use9648"
         xlink:href="#use9138"
         y="0"
         x="0" />
      <use
         height="100%"
         width="100%"
         transform="translate(248.03149,-3.5100356e-8)"
         id="use9650"
         xlink:href="#use9140"
         y="0"
         x="0" />
      <use
         height="100%"
         width="100%"
         transform="translate(248.0315,1.9590375e-6)"
         id="use9652"
         xlink:href="#use9142"
         y="0"
         x="0" />
      <use
         height="100%"
         width="100%"
         transform="translate(248.03149,0)"
         id="use9654"
         xlink:href="#use9324"
         y="0"
         x="0" />
      <use
         height="100%"
         width="100%"
         transform="translate(248.0315,3.4249433e-7)"
         id="use9656"
         xlink:href="#use9326"
         y="0"
         x="0" />
      <use
         height="100%"
         width="100%"
         transform="translate(248.03149,4.6358764e-7)"
         id="use9658"
         xlink:href="#use9328"
         y="0"
         x="0" />
      <use
         height="100%"
         width="100%"
         transform="translate(248.0315,-4.1531644e-7)"
         id="use9660"
         xlink:href="#use9330"
         y="0"
         x="0" />
      <use
         height="100%"
         width="100%"
         transform="translate(248.03149,-4.2703778e-7)"
         id="use9662"
         xlink:href="#use9332"
         y="0"
         x="0" />
      <use
         height="100%"
         width="100%"
         transform="translate(248.03149,-3.7234759e-7)"
         id="use9664"
         xlink:href="#use9334"
         y="0"
         x="0" />
      <use
         height="100%"
         width="100%"
         transform="translate(248.03149,1.6159318e-6)"
         id="use9666"
         xlink:href="#use9336"
         y="0"
         x="0" />
      <use
         height="100%"
         width="100%"
         transform="translate(248.03149,4.0137274e-6)"
         id="use9668"
         xlink:href="#use9356"
         y="0"
         x="0" />
      <use
         height="100%"
         width="100%"
         transform="translate(248.0315,3.6764804e-6)"
         id="use9670"
         xlink:href="#use9358"
         y="0"
         x="0" />
      <use
         height="100%"
         width="100%"
         transform="translate(0,248.03149)"
         id="use9672"
         xlink:href="#use8790"
         y="0"
         x="0" />
      <use
         height="100%"
         width="100%"
         transform="translate(3.8754397e-7,248.03149)"
         id="use9674"
         xlink:href="#use8792"
         y="0"
         x="0" />
      <use
         height="100%"
         width="100%"
         transform="translate(-4.7451826e-7,248.03149)"
         id="use9676"
         xlink:href="#use8794"
         y="0"
         x="0" />
      <use
         height="100%"
         width="100%"
         transform="translate(-4.7952337e-7,248.03149)"
         id="use9678"
         xlink:href="#use8796"
         y="0"
         x="0" />
      <use
         height="100%"
         width="100%"
         transform="translate(-3.5342458e-7,248.03149)"
         id="use9680"
         xlink:href="#use8798"
         y="0"
         x="0" />
      <use
         height="100%"
         width="100%"
         transform="translate(-3.2757974e-7,248.03149)"
         id="use9682"
         xlink:href="#use8800"
         y="0"
         x="0" />
      <use
         height="100%"
         width="100%"
         transform="translate(-3.2323315e-6,248.03149)"
         id="use9684"
         xlink:href="#use8802"
         y="0"
         x="0" />
      <use
         height="100%"
         width="100%"
         transform="translate(-2.7289209e-7,248.03149)"
         id="use9686"
         xlink:href="#use8804"
         y="0"
         x="0" />
      <use
         height="100%"
         width="100%"
         transform="translate(8.2235616e-7,248.03149)"
         id="use9688"
         xlink:href="#use8806"
         y="0"
         x="0" />
      <use
         height="100%"
         width="100%"
         transform="translate(4.775936e-6,248.03149)"
         id="use9690"
         xlink:href="#use9142"
         y="0"
         x="0" />
      <use
         height="100%"
         width="100%"
         transform="translate(-4.1288157e-6,248.0315)"
         id="use9692"
         xlink:href="#use9336"
         y="0"
         x="0" />
      <use
         height="100%"
         width="100%"
         transform="translate(-1.7523584e-7,248.0315)"
         id="use9694"
         xlink:href="#use9652"
         y="0"
         x="0" />
      <use
         height="100%"
         width="100%"
         transform="translate(9.2001261e-7,248.0315)"
         id="use9696"
         xlink:href="#use9666"
         y="0"
         x="0" />
      <use
         height="100%"
         width="100%"
         transform="translate(248.0315,0)"
         id="use9972"
         xlink:href="#use9640"
         y="0"
         x="0" />
      <use
         height="100%"
         width="100%"
         transform="translate(248.03149,-2.6004341e-7)"
         id="use9974"
         xlink:href="#use9642"
         y="0"
         x="0" />
      <use
         height="100%"
         width="100%"
         transform="translate(248.0315,-1.3309159e-7)"
         id="use9976"
         xlink:href="#use9644"
         y="0"
         x="0" />
      <use
         height="100%"
         width="100%"
         transform="translate(248.03149,0)"
         id="use9978"
         xlink:href="#use9646"
         y="0"
         x="0" />
      <use
         height="100%"
         width="100%"
         transform="translate(248.0315,-1.199669e-8)"
         id="use9980"
         xlink:href="#use9648"
         y="0"
         x="0" />
      <use
         height="100%"
         width="100%"
         transform="translate(248.0315,4.855201e-8)"
         id="use9982"
         xlink:href="#use9650"
         y="0"
         x="0" />
      <use
         height="100%"
         width="100%"
         transform="translate(248.03149,-2.95731e-6)"
         id="use9984"
         xlink:href="#use9652"
         y="0"
         x="0" />
      <use
         height="100%"
         width="100%"
         transform="translate(248.0315,-9.0261983e-7)"
         id="use10000"
         xlink:href="#use9668"
         y="0"
         x="0" />
      <use
         height="100%"
         width="100%"
         transform="translate(248.03149,1.1833149e-6)"
         id="use10004"
         xlink:href="#use9694"
         y="0"
         x="0" />
      <use
         height="100%"
         width="100%"
         transform="translate(1.5939468e-7,248.0315)"
         id="use10008"
         xlink:href="#use9338"
         y="0"
         x="0" />
      <use
         height="100%"
         width="100%"
         transform="translate(5.9419079e-8,248.0315)"
         id="use10010"
         xlink:href="#use9340"
         y="0"
         x="0" />
      <use
         height="100%"
         width="100%"
         transform="translate(-3.8388588e-7,248.0315)"
         id="use10012"
         xlink:href="#use9342"
         y="0"
         x="0" />
      <use
         height="100%"
         width="100%"
         transform="translate(-4.4774481e-8,248.0315)"
         id="use10014"
         xlink:href="#use9344"
         y="0"
         x="0" />
      <use
         height="100%"
         width="100%"
         transform="translate(5.8740767e-8,248.0315)"
         id="use10016"
         xlink:href="#use9346"
         y="0"
         x="0" />
      <use
         height="100%"
         width="100%"
         transform="translate(2.7196298e-6,248.0315)"
         id="use10018"
         xlink:href="#use9348"
         y="0"
         x="0" />
      <use
         height="100%"
         width="100%"
         transform="translate(1.1622562e-6,248.0315)"
         id="use10020"
         xlink:href="#use9350"
         y="0"
         x="0" />
      <use
         height="100%"
         width="100%"
         transform="translate(1.8231452e-6,248.0315)"
         id="use10022"
         xlink:href="#use9352"
         y="0"
         x="0" />
      <use
         height="100%"
         width="100%"
         transform="translate(-2.7342269e-6,248.0315)"
         id="use10024"
         xlink:href="#use9354"
         y="0"
         x="0" />
      <use
         height="100%"
         width="100%"
         transform="translate(9.149424e-7,248.0315)"
         id="use10026"
         xlink:href="#use9356"
         y="0"
         x="0" />
      <use
         height="100%"
         width="100%"
         transform="translate(-3.64243e-6,248.0315)"
         id="use10028"
         xlink:href="#use9358"
         y="0"
         x="0" />
      <use
         height="100%"
         width="100%"
         transform="translate(-4.9444327e-6,248.0315)"
         id="use10030"
         xlink:href="#use9668"
         y="0"
         x="0" />
      <use
         height="100%"
         width="100%"
         transform="translate(4.9819516e-7,248.0315)"
         id="use10032"
         xlink:href="#use9670"
         y="0"
         x="0" />
      <use
         height="100%"
         width="100%"
         transform="translate(-8.0380798e-7,248.03149)"
         id="use10034"
         xlink:href="#use10000"
         y="0"
         x="0" />
      <use
         height="100%"
         width="100%"
         transform="translate(248.0315,-6.5358927e-7)"
         id="use10356"
         xlink:href="#use9654"
         y="0"
         x="0" />
      <use
         height="100%"
         width="100%"
         transform="translate(248.0315,-6.5358927e-7)"
         id="use10358"
         xlink:href="#use9656"
         y="0"
         x="0" />
      <use
         height="100%"
         width="100%"
         transform="translate(248.0315,-6.5358927e-7)"
         id="use10360"
         xlink:href="#use9658"
         y="0"
         x="0" />
      <use
         height="100%"
         width="100%"
         transform="translate(248.0315,-6.5358927e-7)"
         id="use10362"
         xlink:href="#use9660"
         y="0"
         x="0" />
      <use
         height="100%"
         width="100%"
         transform="translate(248.0315,-6.5358927e-7)"
         id="use10364"
         xlink:href="#use9662"
         y="0"
         x="0" />
      <use
         height="100%"
         width="100%"
         transform="translate(248.0315,-6.5358927e-7)"
         id="use10366"
         xlink:href="#use9664"
         y="0"
         x="0" />
      <use
         height="100%"
         width="100%"
         transform="translate(248.0315,-6.5358927e-7)"
         id="use10368"
         xlink:href="#use9666"
         y="0"
         x="0" />
      <use
         height="100%"
         width="100%"
         transform="translate(248.0315,-6.5358927e-7)"
         id="use10370"
         xlink:href="#use9670"
         y="0"
         x="0" />
      <use
         height="100%"
         width="100%"
         transform="translate(248.0315,-6.5358927e-7)"
         id="use10372"
         xlink:href="#use9696"
         y="0"
         x="0" />
      <use
         height="100%"
         width="100%"
         transform="translate(248.0315,-6.5358927e-7)"
         id="use10374"
         xlink:href="#use9972"
         y="0"
         x="0" />
      <use
         height="100%"
         width="100%"
         transform="translate(248.0315,-6.5358927e-7)"
         id="use10376"
         xlink:href="#use9974"
         y="0"
         x="0" />
      <use
         height="100%"
         width="100%"
         transform="translate(248.0315,-6.5358927e-7)"
         id="use10378"
         xlink:href="#use9976"
         y="0"
         x="0" />
      <use
         height="100%"
         width="100%"
         transform="translate(248.0315,-6.5358927e-7)"
         id="use10380"
         xlink:href="#use9978"
         y="0"
         x="0" />
      <use
         height="100%"
         width="100%"
         transform="translate(248.0315,-6.5358927e-7)"
         id="use10382"
         xlink:href="#use9980"
         y="0"
         x="0" />
      <use
         height="100%"
         width="100%"
         transform="translate(248.0315,-6.5358927e-7)"
         id="use10384"
         xlink:href="#use9982"
         y="0"
         x="0" />
      <use
         height="100%"
         width="100%"
         transform="translate(248.0315,-6.5358927e-7)"
         id="use10386"
         xlink:href="#use9984"
         y="0"
         x="0" />
      <use
         height="100%"
         width="100%"
         transform="translate(248.0315,-6.5358927e-7)"
         id="use10388"
         xlink:href="#use10000"
         y="0"
         x="0" />
      <use
         height="100%"
         width="100%"
         transform="translate(248.0315,-6.5358927e-7)"
         id="use10390"
         xlink:href="#use10004"
         y="0"
         x="0" />
      <use
         height="100%"
         width="100%"
         transform="translate(248.0315,-6.5358927e-7)"
         id="use10392"
         xlink:href="#use10032"
         y="0"
         x="0" />
      <use
         height="100%"
         width="100%"
         transform="translate(248.0315,-6.5358927e-7)"
         id="use10394"
         xlink:href="#use10034"
         y="0"
         x="0" />
      <use
         height="100%"
         width="100%"
         transform="translate(9.2007394e-6,248.03148)"
         id="use10396"
         xlink:href="#use9672"
         y="0"
         x="0" />
      <use
         height="100%"
         width="100%"
         transform="translate(9.2007394e-6,248.03148)"
         id="use10398"
         xlink:href="#use9674"
         y="0"
         x="0" />
      <use
         height="100%"
         width="100%"
         transform="translate(9.2007394e-6,248.03148)"
         id="use10400"
         xlink:href="#use9676"
         y="0"
         x="0" />
      <use
         height="100%"
         width="100%"
         transform="translate(9.2007394e-6,248.03148)"
         id="use10402"
         xlink:href="#use9678"
         y="0"
         x="0" />
      <use
         height="100%"
         width="100%"
         transform="translate(9.2007394e-6,248.03148)"
         id="use10404"
         xlink:href="#use9680"
         y="0"
         x="0" />
      <use
         height="100%"
         width="100%"
         transform="translate(9.2007394e-6,248.03148)"
         id="use10406"
         xlink:href="#use9682"
         y="0"
         x="0" />
      <use
         height="100%"
         width="100%"
         transform="translate(9.2007394e-6,248.03148)"
         id="use10408"
         xlink:href="#use9684"
         y="0"
         x="0" />
      <use
         height="100%"
         width="100%"
         transform="translate(9.2007394e-6,248.03148)"
         id="use10410"
         xlink:href="#use9686"
         y="0"
         x="0" />
      <use
         height="100%"
         width="100%"
         transform="translate(9.2007394e-6,248.03148)"
         id="use10412"
         xlink:href="#use9688"
         y="0"
         x="0" />
      <use
         height="100%"
         width="100%"
         transform="translate(9.2007394e-6,248.03148)"
         id="use10414"
         xlink:href="#use9690"
         y="0"
         x="0" />
      <use
         height="100%"
         width="100%"
         transform="translate(9.2007394e-6,248.03148)"
         id="use10416"
         xlink:href="#use9692"
         y="0"
         x="0" />
      <use
         height="100%"
         width="100%"
         transform="translate(9.2007394e-6,248.03148)"
         id="use10418"
         xlink:href="#use9694"
         y="0"
         x="0" />
      <use
         height="100%"
         width="100%"
         transform="translate(9.2007394e-6,248.03148)"
         id="use10420"
         xlink:href="#use9696"
         y="0"
         x="0" />
      <use
         height="100%"
         width="100%"
         transform="translate(9.2007394e-6,248.03148)"
         id="use10422"
         xlink:href="#use10004"
         y="0"
         x="0" />
      <use
         height="100%"
         width="100%"
         transform="translate(9.2007394e-6,248.03148)"
         id="use10424"
         xlink:href="#use10008"
         y="0"
         x="0" />
      <use
         height="100%"
         width="100%"
         transform="translate(9.2007394e-6,248.03148)"
         id="use10426"
         xlink:href="#use10010"
         y="0"
         x="0" />
      <use
         height="100%"
         width="100%"
         transform="translate(9.2007394e-6,248.03148)"
         id="use10428"
         xlink:href="#use10012"
         y="0"
         x="0" />
      <use
         height="100%"
         width="100%"
         transform="translate(9.2007394e-6,248.03148)"
         id="use10430"
         xlink:href="#use10014"
         y="0"
         x="0" />
      <use
         height="100%"
         width="100%"
         transform="translate(9.2007394e-6,248.03148)"
         id="use10432"
         xlink:href="#use10016"
         y="0"
         x="0" />
      <use
         height="100%"
         width="100%"
         transform="translate(9.2007394e-6,248.03148)"
         id="use10434"
         xlink:href="#use10018"
         y="0"
         x="0" />
      <use
         height="100%"
         width="100%"
         transform="translate(9.2007394e-6,248.03148)"
         id="use10436"
         xlink:href="#use10020"
         y="0"
         x="0" />
      <use
         height="100%"
         width="100%"
         transform="translate(9.2007394e-6,248.03148)"
         id="use10438"
         xlink:href="#use10022"
         y="0"
         x="0" />
      <use
         height="100%"
         width="100%"
         transform="translate(9.2007394e-6,248.03148)"
         id="use10440"
         xlink:href="#use10024"
         y="0"
         x="0" />
      <use
         height="100%"
         width="100%"
         transform="translate(9.2007394e-6,248.03148)"
         id="use10442"
         xlink:href="#use10026"
         y="0"
         x="0" />
      <use
         height="100%"
         width="100%"
         transform="translate(9.2007394e-6,248.03148)"
         id="use10444"
         xlink:href="#use10028"
         y="0"
         x="0" />
      <use
         height="100%"
         width="100%"
         transform="translate(9.2007394e-6,248.03148)"
         id="use10446"
         xlink:href="#use10030"
         y="0"
         x="0" />
      <use
         height="100%"
         width="100%"
         transform="translate(9.2007394e-6,248.03148)"
         id="use10448"
         xlink:href="#use10032"
         y="0"
         x="0" />
      <use
         height="100%"
         width="100%"
         transform="translate(9.2007394e-6,248.03148)"
         id="use10450"
         xlink:href="#use10034"
         y="0"
         x="0" />
      <use
         height="100%"
         width="100%"
         transform="translate(9.2007394e-6,248.03148)"
         id="use10452"
         xlink:href="#use10372"
         y="0"
         x="0" />
      <use
         height="100%"
         width="100%"
         transform="translate(9.2007394e-6,248.03148)"
         id="use10454"
         xlink:href="#use10390"
         y="0"
         x="0" />
      <use
         height="100%"
         width="100%"
         transform="translate(9.2007394e-6,248.03148)"
         id="use10456"
         xlink:href="#use10392"
         y="0"
         x="0" />
      <use
         height="100%"
         width="100%"
         transform="translate(9.2007394e-6,248.03148)"
         id="use10458"
         xlink:href="#use10394"
         y="0"
         x="0" />
    </g>
  </g>
</svg>
