<?xml version="1.0" encoding="UTF-8" standalone="no"?>
<!-- Created with Inkscape (http://www.inkscape.org/) -->

<svg
   width="512"
   height="512"
   viewBox="0 0 135.46667 135.46667"
   version="1.1"
   id="svg342"
   inkscape:version="1.2.2 (b0a8486541, 2022-12-01)"
   sodipodi:docname="favicon.svg"
   xml:space="preserve"
   xmlns:inkscape="http://www.inkscape.org/namespaces/inkscape"
   xmlns:sodipodi="http://sodipodi.sourceforge.net/DTD/sodipodi-0.dtd"
   xmlns="http://www.w3.org/2000/svg"
   xmlns:svg="http://www.w3.org/2000/svg"><sodipodi:namedview
     id="namedview344"
     pagecolor="#ffffff"
     bordercolor="#000000"
     borderopacity="0.25"
     inkscape:showpageshadow="2"
     inkscape:pageopacity="0.0"
     inkscape:pagecheckerboard="0"
     inkscape:deskcolor="#d1d1d1"
     inkscape:document-units="mm"
     showgrid="false"
     inkscape:zoom="0.4690341"
     inkscape:cx="264.3731"
     inkscape:cy="214.27014"
     inkscape:window-width="1191"
     inkscape:window-height="660"
     inkscape:window-x="2613"
     inkscape:window-y="1464"
     inkscape:window-maximized="1"
     inkscape:current-layer="layer1" /><defs
     id="defs339" /><g
     inkscape:label="Layer 1"
     inkscape:groupmode="layer"
     id="layer1"
     transform="translate(-76.367113,-121.68962)"><path
       fill="currentColor"
       d="m 144.10074,129.97808 c 4.93394,0 9.30907,3.42994 12.51314,6.87179 2.40754,2.57992 4.70209,5.83154 6.59244,9.57062 a 42.205843,42.205843 0 0 1 17.50651,-4.67234 c 6.38436,-0.29723 10.53364,4.80313 10.91408,10.02237 l 0.0297,0.78469 v 13.08975 a 47.555877,47.555877 0 0 1 -40.12528,46.97927 l -1.48611,0.20812 v 18.24959 c 6.39625,-3.97687 15.82423,-8.64329 28.28386,-11.75819 a 5.9444845,5.9444845 0 1 1 2.88306,11.53227 89.167268,89.167268 0 0 0 -23.00514,9.1902 l -2.05085,1.23645 -0.93922,0.59445 -1.70011,1.14132 -1.46237,1.0403 -1.2186,0.92734 -0.9868,0.79062 -1.03435,0.87979 c -1.38506,1.23643 -2.75822,2.21133 -4.71399,2.21133 -1.65849,0 -2.90089,-0.70144 -4.08976,-1.67038 l -1.60503,-1.37317 -0.96896,-0.78467 -1.2186,-0.92142 -1.45048,-1.04622 -0.8203,-0.55282 -1.81309,-1.18296 -0.99869,-0.61228 -2.18163,-1.26618 a 89.167268,89.167268 0 0 0 -21.96484,-8.6017 5.9444845,5.9444845 0 1 1 2.88902,-11.53227 c 11.62146,2.90685 20.60952,7.16905 26.95822,10.95567 l 1.31968,0.80252 V 212.83235 A 47.555877,47.555877 0 0 1 96.568628,167.19053 l -0.0248,-1.54557 v -13.17298 c 0,-5.40949 4.113592,-10.9973 10.741702,-10.81896 4.36325,0.11903 11.02104,0.99866 17.83344,4.53563 a 41.611392,41.611392 0 0 1 6.46758,-9.33878 c 3.21004,-3.44185 7.57329,-6.87179 12.51315,-6.87179 m -35.66689,23.63526 v 12.03162 a 35.666908,35.666908 0 0 0 29.72242,35.1735 c -0.0892,-22.47608 -6.25956,-33.91327 -12.54882,-39.82803 -5.40355,-5.08252 -11.62148,-6.79453 -16.22248,-7.29388 l -0.95112,-0.0774 z m 71.33382,0.11903 c -4.68429,0.44584 -11.42531,2.14001 -17.21523,7.65056 -6.30115,5.9861 -12.41806,17.36979 -12.50719,39.43571 a 35.666908,35.666908 0 0 0 29.69268,-33.70523 l 0.0297,-1.46826 z M 144.09959,141.9266 c -1.48612,0.61822 -2.74041,1.8725 -3.81634,3.02572 -1.94981,2.08653 -3.92336,4.99339 -5.43328,8.44118 3.61424,3.67369 6.80645,8.33417 9.32098,14.18353 2.52042,-5.72454 5.70074,-10.3018 9.28525,-13.93385 a 30.31687,30.31687 0 0 0 -5.54024,-8.69086 c -1.07,-1.15322 -2.33024,-2.4075 -3.81637,-3.02572"
       id="path420"
       style="fill:#ffcd3c;fill-opacity:1;stroke-width:5.94448" /></g></svg>
