<?xml version="1.0" encoding="UTF-8" standalone="no"?>
<svg
   xmlns:dc="http://purl.org/dc/elements/1.1/"
   xmlns:cc="http://creativecommons.org/ns#"
   xmlns:rdf="http://www.w3.org/1999/02/22-rdf-syntax-ns#"
   xmlns:svg="http://www.w3.org/2000/svg"
   xmlns="http://www.w3.org/2000/svg"
   xmlns:sodipodi="http://sodipodi.sourceforge.net/DTD/sodipodi-0.dtd"
   xmlns:inkscape="http://www.inkscape.org/namespaces/inkscape"
   sodipodi:docname="logo.svg"
   inkscape:version="1.0 (4035a4fb49, 2020-05-01)"
   id="svg8"
   version="1.1"
   viewBox="0 0 201.08334 150.8125"
   height="570"
   width="760">
  <defs
     id="defs2" />
  <sodipodi:namedview
     units="px"
     inkscape:window-maximized="0"
     inkscape:window-y="77"
     inkscape:window-x="1736"
     inkscape:window-height="1697"
     inkscape:window-width="1730"
     fit-margin-bottom="8"
     fit-margin-right="8"
     fit-margin-left="8"
     lock-margins="true"
     fit-margin-top="8"
     showgrid="false"
     inkscape:document-rotation="0"
     inkscape:current-layer="layer1"
     inkscape:document-units="mm"
     inkscape:cy="204.2379"
     inkscape:cx="410.78294"
     inkscape:zoom="0.98994949"
     inkscape:pageshadow="2"
     inkscape:pageopacity="0.0"
     borderopacity="1.0"
     bordercolor="#666666"
     pagecolor="#ffffff"
     id="base" />
  <metadata
     id="metadata5">
    <rdf:RDF>
      <cc:Work
         rdf:about="">
        <dc:format>image/svg+xml</dc:format>
        <dc:type
           rdf:resource="http://purl.org/dc/dcmitype/StillImage" />
        <dc:title></dc:title>
      </cc:Work>
    </rdf:RDF>
  </metadata>
  <g
     transform="translate(-22.824931,-190.40334)"
     id="layer1"
     inkscape:groupmode="layer"
     inkscape:label="Layer 1">
    <path
       sodipodi:nodetypes="ssssssscsccssscssssssssss"
       style="fill:#fbce3e;stroke-width:0.829843"
       d="m 64.633169,294.46399 c -5.090579,-1.44607 -9.424113,-4.2356 -10.604461,-6.82619 -0.607208,-1.3327 -0.971848,-6.87155 -0.971045,-14.75011 0.0014,-13.91689 0.733944,-16.7143 5.243918,-20.0257 2.117551,-1.55482 3.85837,-1.76006 18.256575,-2.15259 13.54098,-0.36918 16.301465,-0.66457 18.50034,-1.97964 4.270979,-2.55433 5.605834,-5.7627 5.987374,-14.3908 l 0.33944,-7.67608 h 5.64625 c 4.8841,0 5.99582,0.2942 8.23585,2.179 9.71142,10.0329 8.17226,34.56513 -1.93598,41.04046 -2.34466,1.4297 -4.33802,1.58624 -20.235069,1.58903 -17.079928,0.003 -17.634189,0.0552 -17.634189,1.66281 0,1.57771 0.553229,1.6597 11.202898,1.6597 h 11.202896 v 6.52682 c 0,7.67407 -1.234015,9.86944 -6.83068,12.152 -4.6571,1.89935 -21.042004,2.5145 -26.404117,0.99129 z m 26.430074,-7.38843 c 0.547698,-0.54768 0.995814,-1.78001 0.995814,-2.73847 0,-0.95849 -0.448116,-2.19079 -0.995814,-2.7385 -0.547697,-0.54768 -1.780015,-0.99581 -2.738486,-0.99581 -3.312511,0 -5.066196,4.14506 -2.738486,6.47278 0.547697,0.54772 1.780015,0.99582 2.738486,0.99582 0.958471,0 2.190789,-0.4481 2.738486,-0.99582 z"
       id="path871" />
    <path
       sodipodi:nodetypes="scccsscsccscssscsssssssss"
       style="fill:#3470a0;stroke-width:0.829843"
       d="m 37.33886,270.7871 c -1.757863,-0.94274 -3.795319,-3.22076 -5.381043,-6.01637 -4.152221,-9.00777 -3.972564,-27.89933 3.095938,-34.65029 3.093282,-2.88654 6.865792,-3.41597 24.49476,-3.43774 14.81866,-0.0188 16.014216,-0.12984 15.756798,-1.47204 -0.245833,-1.28161 -1.569235,-1.47942 -11.263745,-1.68376 l -10.985194,-0.23147 0.0276,-6.4072 c 0.03246,-7.53663 1.023953,-9.19698 7.17641,-12.01766 9.913927,-3.26984 22.005709,-3.71716 30.597642,0.65059 2.72431,1.39326 5.367888,3.42265 5.945463,4.56415 0.707109,1.39749 1.042926,6.43819 1.049133,15.74783 0.0138,20.9059 -0.172723,21.07919 -23.583975,21.89071 -17.496514,0.60652 -19.370076,1.13497 -22.396837,6.31753 -1.23802,2.11978 -1.743674,4.79339 -1.995497,10.55113 l -0.337293,7.71193 h -4.68556 c -2.954131,0 -5.730967,-0.56067 -7.514601,-1.51725 z m 27.999209,-54.2483 c 0.547698,-0.54771 0.995814,-1.78001 0.995814,-2.7385 0,-3.3125 -4.145074,-5.0662 -6.472786,-2.73847 -1.280036,1.28004 -1.280036,4.19694 0,5.47697 0.547697,0.54768 1.780018,0.99582 2.738486,0.99582 0.958471,0 2.190789,-0.44814 2.738486,-0.99582 z"
       id="path869" />
    <g
       style="font-style:normal;font-variant:normal;font-weight:normal;font-stretch:normal;font-size:31.362px;line-height:1.25;font-family:'TeX Gyre Schola';-inkscape-font-specification:'TeX Gyre Schola';word-spacing:0px;fill:#3470a0;fill-opacity:1;stroke-width:0.784058"
       id="text880"
       aria-label="ALSA">
      <path
         id="path976"
         style="font-style:normal;font-variant:normal;font-weight:normal;font-stretch:normal;font-family:'TeX Gyre Schola';-inkscape-font-specification:'TeX Gyre Schola';fill:#3470a0;fill-opacity:1;stroke-width:0.784058"
         d="m 152.84547,250.06699 v -1.47402 h -0.59588 c -1.5681,0 -1.75627,-0.25089 -2.4776,-2.00717 l -7.99731,-19.60125 h -1.3172 l -7.21326,18.28405 c -1.12903,2.85394 -1.5681,3.32437 -3.1362,3.32437 h -0.43907 v 1.47402 h 8.31093 v -1.47402 h -0.62724 c -1.69355,0 -2.54032,-0.59588 -2.54032,-1.78763 0,-0.37635 0.0941,-0.81541 0.28226,-1.31721 l 1.03494,-2.75985 h 8.31093 l 1.69355,4.20251 c 0.18817,0.47043 0.2509,0.68996 0.2509,0.84677 0,0.50179 -0.78405,0.81541 -1.94445,0.81541 h -1.3172 v 1.47402 z m -9.06362,-9.03226 h -7.02509 l 3.48118,-8.90681 z" />
      <path
         id="path978"
         style="font-style:normal;font-variant:normal;font-weight:normal;font-stretch:normal;font-family:'TeX Gyre Schola';-inkscape-font-specification:'TeX Gyre Schola';fill:#3470a0;fill-opacity:1;stroke-width:0.784058"
         d="m 172.823,241.4738 h -1.37992 c -0.72133,4.86111 -2.0699,7.11917 -7.30735,7.11917 h -1.3172 c -1.59947,0 -2.25807,-0.18817 -2.25807,-1.50537 v -16.71595 c 0,-1.3172 0.28226,-1.47401 2.82258,-1.47401 h 0.56452 v -1.47402 h -10.28674 v 1.47402 h 0.56452 c 2.54032,0 2.82258,0.15681 2.82258,1.47401 v 16.74731 c 0,1.3172 -0.28226,1.47401 -2.82258,1.47401 h -0.56452 v 1.47402 h 18.50358 z" />
      <path
         id="path980"
         style="font-style:normal;font-variant:normal;font-weight:normal;font-stretch:normal;font-family:'TeX Gyre Schola';-inkscape-font-specification:'TeX Gyre Schola';fill:#3470a0;fill-opacity:1;stroke-width:0.784058"
         d="m 192.29875,243.63778 c 0,-1.94445 -0.65861,-3.60663 -1.88172,-4.79839 -0.84678,-0.81541 -2.0699,-1.34857 -4.57886,-1.97581 l -3.35573,-0.84677 c -2.79122,-0.72133 -4.10842,-1.94444 -4.10842,-3.85753 0,-2.19534 1.78763,-3.70071 4.4534,-3.70071 2.19534,0 3.98298,0.94086 5.23746,2.72849 0.90949,1.28584 1.47401,2.60305 1.88172,4.20251 h 1.34856 l -0.37634,-8.15412 h -1.1604 l -1.25448,1.88172 c -1.47401,-1.41129 -3.48118,-2.16398 -5.70788,-2.16398 -4.10842,0 -6.86828,2.63441 -6.86828,6.55466 0,3.41846 1.69355,5.11201 6.30376,6.30376 l 2.97939,0.75269 c 2.32079,0.59588 2.54033,0.6586 3.19893,1.16039 0.94086,0.72133 1.44265,1.75628 1.44265,2.97939 0,1.25448 -0.47043,2.28943 -1.41129,3.1362 -1.03495,0.9095 -2.06989,1.25448 -3.7948,1.25448 -2.32079,0 -3.98298,-0.72132 -5.45699,-2.35215 -1.3172,-1.47401 -1.97581,-2.94802 -2.44624,-5.3629 h -1.34856 l 0.12545,8.93817 h 1.22311 l 1.41129,-2.13261 c 2.10126,1.72491 3.85753,2.35215 6.58602,2.35215 4.61022,0 7.55825,-2.69714 7.55825,-6.89964 z" />
      <path
         id="path982"
         style="font-style:normal;font-variant:normal;font-weight:normal;font-stretch:normal;font-family:'TeX Gyre Schola';-inkscape-font-specification:'TeX Gyre Schola';fill:#3470a0;fill-opacity:1;stroke-width:0.784058"
         d="m 216.47882,250.06699 v -1.47402 h -0.59588 c -1.5681,0 -1.75627,-0.25089 -2.47759,-2.00717 l -7.99731,-19.60125 h -1.31721 l -7.21326,18.28405 c -1.12903,2.85394 -1.5681,3.32437 -3.1362,3.32437 h -0.43907 v 1.47402 h 8.31093 v -1.47402 h -0.62724 c -1.69354,0 -2.54032,-0.59588 -2.54032,-1.78763 0,-0.37635 0.0941,-0.81541 0.28226,-1.31721 l 1.03495,-2.75985 h 8.31093 l 1.69354,4.20251 c 0.18818,0.47043 0.2509,0.68996 0.2509,0.84677 0,0.50179 -0.78405,0.81541 -1.94444,0.81541 h -1.31721 v 1.47402 z m -9.06362,-9.03226 h -7.02508 l 3.48118,-8.90681 z" />
    </g>
    <g
       style="font-style:normal;font-variant:normal;font-weight:normal;font-stretch:normal;font-size:23.857px;line-height:1.25;font-family:'TeX Gyre Schola';-inkscape-font-specification:'TeX Gyre Schola';word-spacing:0px;fill:#fbce3e;fill-opacity:1;stroke-width:0.596425"
       id="text880-3"
       aria-label="pyAudio">
      <path
         id="path985"
         style="font-style:normal;font-variant:normal;font-weight:normal;font-stretch:normal;font-family:'TeX Gyre Schola';-inkscape-font-specification:'TeX Gyre Schola';fill:#fbce3e;fill-opacity:1;stroke-width:0.596425"
         d="m 140.84974,269.31585 c 0,-3.29227 -2.0517,-5.86883 -4.67597,-5.86883 -1.47914,0 -2.45728,0.62029 -3.29227,2.05171 v -1.69385 l -4.12726,0.26243 v 1.02585 h 0.85885 c 0.88271,0 1.02585,0.167 1.02585,1.19285 v 11.47521 c 0,0.95428 -0.0239,1.12128 -1.5507,1.12128 h -0.334 v 0.85886 h 6.20282 v -0.85886 h -0.334 c -1.5507,0 -1.74156,-0.167 -1.74156,-1.12128 v -4.41354 c 0.78728,1.38371 1.69385,1.93242 3.14912,1.93242 2.76742,0 4.81912,-2.5527 4.81912,-5.96425 z m -2.50499,-0.14315 c 0,3.07756 -0.97813,4.81912 -2.67198,4.81912 -1.69385,0 -2.81513,-1.76542 -2.81513,-4.50897 0,-2.95827 1.07357,-4.74755 2.8867,-4.74755 1.64613,0 2.60041,1.64614 2.60041,4.4374 z" />
      <path
         id="path987"
         style="font-style:normal;font-variant:normal;font-weight:normal;font-stretch:normal;font-family:'TeX Gyre Schola';-inkscape-font-specification:'TeX Gyre Schola';fill:#fbce3e;fill-opacity:1;stroke-width:0.596425"
         d="m 153.61318,264.66373 v -0.85885 h -4.7714 v 0.85885 h 0.38171 c 0.90656,0 1.28828,0.26243 1.28828,0.88271 0,0.23857 -0.0716,0.54871 -0.23857,0.95428 l -2.17099,5.39168 -2.62427,-6.13125 c -0.0954,-0.21471 -0.14314,-0.38171 -0.14314,-0.50099 0,-0.42943 0.28628,-0.59643 1.09742,-0.59643 h 0.501 v -0.85885 h -5.67797 v 0.85885 h 0.31014 c 0.76343,0 1.14514,0.334 1.57456,1.28828 l 3.88869,8.80323 -0.40556,0.835 c -0.88271,1.81313 -1.98014,3.07755 -2.74356,3.07755 -0.21471,0 -0.38171,-0.0954 -0.38171,-0.23857 0,-0.167 0.167,-0.57257 0.167,-0.83499 0,-0.62029 -0.52486,-1.07357 -1.21671,-1.07357 -0.83499,0 -1.43142,0.62028 -1.43142,1.47913 0,1.04971 0.93042,1.83699 2.17099,1.83699 1.26442,0 2.33798,-0.62028 3.29226,-1.90856 0.73957,-1.00199 1.19285,-1.95627 2.26642,-4.6044 l 2.7197,-6.72767 c 0.59642,-1.45528 0.95428,-1.93242 1.86084,-1.93242 z" />
      <path
         id="path989"
         style="font-style:normal;font-variant:normal;font-weight:normal;font-stretch:normal;font-family:'TeX Gyre Schola';-inkscape-font-specification:'TeX Gyre Schola';fill:#fbce3e;fill-opacity:1;stroke-width:0.596425"
         d="m 171.19576,274.92224 v -1.12128 h -0.45329 c -1.19285,0 -1.33599,-0.19085 -1.8847,-1.52685 l -6.08354,-14.91062 h -1.00199 l -5.48711,13.90863 c -0.85885,2.17099 -1.19285,2.52884 -2.3857,2.52884 h -0.334 v 1.12128 h 6.32211 v -1.12128 h -0.47714 c -1.28828,0 -1.93242,-0.45328 -1.93242,-1.35985 0,-0.28628 0.0716,-0.62028 0.21471,-1.00199 l 0.78728,-2.09942 h 6.32211 l 1.28828,3.19684 c 0.14314,0.35786 0.19085,0.52486 0.19085,0.64414 0,0.38171 -0.59642,0.62028 -1.47913,0.62028 h -1.00199 v 1.12128 z m -6.89468,-6.87081 h -5.34397 l 2.64813,-6.77539 z" />
      <path
         id="path991"
         style="font-style:normal;font-variant:normal;font-weight:normal;font-stretch:normal;font-family:'TeX Gyre Schola';-inkscape-font-specification:'TeX Gyre Schola';fill:#fbce3e;fill-opacity:1;stroke-width:0.596425"
         d="m 184.79417,274.92224 v -1.02585 h -0.59642 c -1.31214,0 -1.50299,-0.21471 -1.50299,-1.74156 v -8.34995 l -4.48512,0.26243 v 1.02585 h 1.21671 c 0.88271,0 1.02585,0.167 1.02585,1.19285 v 2.93441 c 0,1.35985 -0.14314,2.14713 -0.501,2.93441 -0.50099,1.04971 -1.45527,1.66999 -2.62427,1.66999 -0.73956,0 -1.35985,-0.26243 -1.66999,-0.73957 -0.31014,-0.45328 -0.35785,-0.69185 -0.35785,-2.00399 v -7.27638 l -4.17498,0.26243 v 1.02585 h 0.90657 c 0.88271,0 1.02585,0.167 1.02585,1.19285 v 5.15311 c 0,1.21671 0.0954,1.76542 0.45328,2.31413 0.64414,0.97814 1.78928,1.52685 3.2207,1.52685 1.57456,0 2.67198,-0.64414 3.72169,-2.17099 v 1.98013 z" />
      <path
         id="path993"
         style="font-style:normal;font-variant:normal;font-weight:normal;font-stretch:normal;font-family:'TeX Gyre Schola';-inkscape-font-specification:'TeX Gyre Schola';fill:#fbce3e;fill-opacity:1;stroke-width:0.596425"
         d="m 198.41647,274.92224 v -1.02585 h -0.42942 c -1.28828,0 -1.47914,-0.23857 -1.47914,-1.74156 v -14.8152 l -4.67597,0.26243 v 1.02585 h 1.40756 c 0.85886,0 1.02586,0.167 1.02586,1.19285 v 5.39168 c -0.88271,-1.2167 -1.90856,-1.76542 -3.29227,-1.76542 -2.69584,0 -4.74754,2.60042 -4.74754,6.03583 0,3.38769 1.98013,5.79725 4.74754,5.79725 1.50299,0 2.52884,-0.64414 3.29227,-2.07556 v 1.8847 z m -4.17497,-5.51097 c 0,2.76742 -1.09742,4.58055 -2.81513,4.58055 -1.66999,0 -2.69584,-1.57456 -2.69584,-4.22269 0,-1.40756 0.14314,-2.48113 0.45328,-3.29227 0.40557,-1.0497 1.28828,-1.74156 2.26642,-1.74156 0.97814,0 1.90856,0.71571 2.33799,1.81313 0.28628,0.71571 0.45328,1.71771 0.45328,2.86284 z" />
      <path
         id="path995"
         style="font-style:normal;font-variant:normal;font-weight:normal;font-stretch:normal;font-family:'TeX Gyre Schola';-inkscape-font-specification:'TeX Gyre Schola';fill:#fbce3e;fill-opacity:1;stroke-width:0.596425"
         d="m 205.78827,274.92224 v -0.85885 h -0.28628 c -1.55071,0 -1.69385,-0.167 -1.69385,-1.12128 v -9.13723 l -4.48511,0.26243 v 1.02585 h 1.2167 c 0.88271,0 1.02585,0.19085 1.02585,1.19285 v 6.6561 c 0,0.95428 -0.14314,1.12128 -1.66999,1.12128 h -0.28628 v 0.85885 z m -1.90856,-14.55277 c 0,-0.64414 -0.54871,-1.19285 -1.19285,-1.19285 -0.64414,0 -1.19285,0.54871 -1.19285,1.19285 0,0.64414 0.54871,1.19285 1.169,1.19285 0.66799,0 1.2167,-0.52485 1.2167,-1.19285 z" />
      <path
         id="path997"
         style="font-style:normal;font-variant:normal;font-weight:normal;font-stretch:normal;font-family:'TeX Gyre Schola';-inkscape-font-specification:'TeX Gyre Schola';fill:#fbce3e;fill-opacity:1;stroke-width:0.596425"
         d="m 217.52589,269.36356 c 0,-3.26841 -2.29028,-5.91654 -5.1054,-5.91654 -2.91056,0 -5.20083,2.60042 -5.20083,5.9404 0,3.26841 2.29027,5.89268 5.15311,5.89268 2.86284,0 5.15312,-2.62427 5.15312,-5.91654 z m -2.50499,0 c 0,3.17298 -0.93042,4.89069 -2.64813,4.89069 -1.7177,0 -2.64812,-1.71771 -2.64812,-4.86683 0,-3.24455 0.90656,-4.91454 2.69584,-4.91454 1.66999,0 2.60041,1.74156 2.60041,4.89068 z" />
    </g>
    <g
       style="font-style:italic;font-variant:normal;font-weight:bold;font-stretch:normal;font-size:24.3699px;line-height:1.25;font-family:'Source Sans Pro';-inkscape-font-specification:'Source Sans Pro Bold Italic';word-spacing:0px;fill:#808080;fill-opacity:1;stroke-width:0.609246"
       id="text880-3-7"
       aria-label="TONE GENERATOR">
      <path
         id="path1000"
         style="font-style:italic;font-variant:normal;font-weight:bold;font-stretch:normal;font-family:'Source Sans Pro';-inkscape-font-specification:'Source Sans Pro Bold Italic';fill:#808080;fill-opacity:1;stroke-width:0.609246"
         d="m 30.868182,328.99548 h 3.509265 l 2.55884,-12.91604 H 41.0548 l 0.560508,-2.94876 H 29.869016 l -0.584878,2.94876 h 4.118513 z" />
      <path
         id="path1002"
         style="font-style:italic;font-variant:normal;font-weight:bold;font-stretch:normal;font-family:'Source Sans Pro';-inkscape-font-specification:'Source Sans Pro Bold Italic';fill:#808080;fill-opacity:1;stroke-width:0.609246"
         d="m 47.220336,329.28792 c 4.264733,0 8.115177,-4.02103 8.115177,-9.72359 0,-4.26473 -2.38825,-6.72609 -6.019365,-6.72609 -4.289103,0 -8.115177,4.02103 -8.115177,9.72359 0,4.24036 2.38825,6.72609 6.019365,6.72609 z m 0.17059,-3.04624 c -1.657154,0 -2.58321,-1.46219 -2.58321,-3.89918 0,-3.67985 2.217661,-6.48239 4.313472,-6.48239 1.681524,0 2.60758,1.46219 2.60758,3.92355 0,3.67986 -2.217661,6.45802 -4.337842,6.45802 z" />
      <path
         id="path1004"
         style="font-style:italic;font-variant:normal;font-weight:bold;font-stretch:normal;font-family:'Source Sans Pro';-inkscape-font-specification:'Source Sans Pro Bold Italic';fill:#808080;fill-opacity:1;stroke-width:0.609246"
         d="m 56.651445,328.99548 h 3.314306 l 1.169755,-5.8244 c 0.365549,-1.82775 0.560508,-3.99667 0.682358,-5.77567 h 0.09748 c 0.243699,1.34035 0.536138,2.55884 0.779837,3.4849 l 2.38825,8.11517 h 3.484896 l 3.192457,-15.8648 h -3.338677 l -1.145385,5.80003 c -0.389918,1.85212 -0.584878,3.99667 -0.706727,5.77567 h -0.09748 c -0.219329,-1.26723 -0.487398,-2.53447 -0.755466,-3.46052 l -2.412621,-8.11518 h -3.484895 z" />
      <path
         id="path1006"
         style="font-style:italic;font-variant:normal;font-weight:bold;font-stretch:normal;font-family:'Source Sans Pro';-inkscape-font-specification:'Source Sans Pro Bold Italic';fill:#808080;fill-opacity:1;stroke-width:0.609246"
         d="m 72.369993,328.99548 h 9.72359 l 0.584877,-2.94875 h -6.238694 l 0.804207,-3.77734 h 5.093309 l 0.584877,-2.94876 H 77.80448 l 0.633618,-3.24119 h 6.019365 l 0.560508,-2.94876 H 75.53808 Z" />
      <path
         id="path1008"
         style="font-style:italic;font-variant:normal;font-weight:bold;font-stretch:normal;font-family:'Source Sans Pro';-inkscape-font-specification:'Source Sans Pro Bold Italic';fill:#808080;fill-opacity:1;stroke-width:0.609246"
         d="m 97.12978,329.28792 c 1.998332,0 3.8017,-0.73109 5.0202,-1.65715 l 1.48656,-7.67652 h -5.629443 l -0.511768,2.87565 h 2.510101 l -0.633619,2.97313 c -0.414288,0.29244 -1.047905,0.48739 -1.632783,0.48739 -2.38825,0 -3.338676,-1.51093 -3.338676,-3.89918 0,-3.50926 2.120181,-6.53113 4.84961,-6.53113 1.047908,0 1.998328,0.41429 2.656318,1.36471 l 1.94959,-2.09581 c -0.87731,-1.48656 -2.48573,-2.29077 -4.435319,-2.29077 -4.87398,0 -8.626944,4.24036 -8.626944,9.77233 0,4.21599 2.41262,6.67735 6.336173,6.67735 z" />
      <path
         id="path1010"
         style="font-style:italic;font-variant:normal;font-weight:bold;font-stretch:normal;font-family:'Source Sans Pro';-inkscape-font-specification:'Source Sans Pro Bold Italic';fill:#808080;fill-opacity:1;stroke-width:0.609246"
         d="m 105.07433,328.99548 h 9.72359 l 0.58487,-2.94875 h -6.23869 l 0.80421,-3.77734 h 5.09331 l 0.58487,-2.94876 h -5.11768 l 0.63362,-3.24119 h 6.01937 l 0.5605,-2.94876 h -9.47989 z" />
      <path
         id="path1012"
         style="font-style:italic;font-variant:normal;font-weight:bold;font-stretch:normal;font-family:'Source Sans Pro';-inkscape-font-specification:'Source Sans Pro Bold Italic';fill:#808080;fill-opacity:1;stroke-width:0.609246"
         d="m 117.94163,328.99548 h 3.31431 l 1.16975,-5.8244 c 0.36555,-1.82775 0.56051,-3.99667 0.68236,-5.77567 h 0.0975 c 0.2437,1.34035 0.53613,2.55884 0.77983,3.4849 l 2.38825,8.11517 h 3.4849 l 3.19246,-15.8648 h -3.33868 l -1.14538,5.80003 c -0.38992,1.85212 -0.58488,3.99667 -0.70673,5.77567 h -0.0975 c -0.21933,-1.26723 -0.4874,-2.53447 -0.75547,-3.46052 l -2.41262,-8.11518 h -3.48489 z" />
      <path
         id="path1014"
         style="font-style:italic;font-variant:normal;font-weight:bold;font-stretch:normal;font-family:'Source Sans Pro';-inkscape-font-specification:'Source Sans Pro Bold Italic';fill:#808080;fill-opacity:1;stroke-width:0.609246"
         d="m 133.66018,328.99548 h 9.72359 l 0.58488,-2.94875 h -6.2387 l 0.80421,-3.77734 h 5.09331 l 0.58488,-2.94876 h -5.11768 l 0.63362,-3.24119 h 6.01936 l 0.56051,-2.94876 h -9.47989 z" />
      <path
         id="path1016"
         style="font-style:italic;font-variant:normal;font-weight:bold;font-stretch:normal;font-family:'Source Sans Pro';-inkscape-font-specification:'Source Sans Pro Bold Italic';fill:#808080;fill-opacity:1;stroke-width:0.609246"
         d="m 146.52749,328.99548 h 3.50927 l 1.12101,-5.70255 h 1.87648 l 1.9496,5.70255 h 3.70422 l -2.43699,-6.21432 c 2.29077,-0.80421 3.99666,-2.58321 3.99666,-5.55634 0,-2.9975 -2.36388,-4.09414 -5.50759,-4.09414 h -5.04457 z m 5.21516,-8.48072 0.90168,-4.60591 h 1.58405 c 1.63278,0 2.53447,0.5605 2.53447,1.85211 0,1.65715 -1.14539,2.7538 -3.41179,2.7538 z" />
      <path
         id="path1018"
         style="font-style:italic;font-variant:normal;font-weight:bold;font-stretch:normal;font-family:'Source Sans Pro';-inkscape-font-specification:'Source Sans Pro Bold Italic';fill:#808080;fill-opacity:1;stroke-width:0.609246"
         d="m 166.55954,320.46602 c 0.70673,-1.55968 1.2916,-3.04624 1.97396,-4.67902 h 0.0975 c 0.0244,1.65715 0.0975,3.11934 0.17059,4.67902 l 0.0731,1.99833 h -3.2412 z m -7.84711,8.52946 h 3.85045 l 1.82774,-3.87481 h 4.60591 l 0.14622,3.87481 h 3.70422 l -1.58404,-15.8648 h -4.19162 z" />
      <path
         id="path1020"
         style="font-style:italic;font-variant:normal;font-weight:bold;font-stretch:normal;font-family:'Source Sans Pro';-inkscape-font-specification:'Source Sans Pro Bold Italic';fill:#808080;fill-opacity:1;stroke-width:0.609246"
         d="m 176.1856,328.99548 h 3.50926 l 2.55884,-12.91604 h 4.11851 l 0.56051,-2.94876 h -11.74629 l -0.58488,2.94876 h 4.11851 z" />
      <path
         id="path1022"
         style="font-style:italic;font-variant:normal;font-weight:bold;font-stretch:normal;font-family:'Source Sans Pro';-inkscape-font-specification:'Source Sans Pro Bold Italic';fill:#808080;fill-opacity:1;stroke-width:0.609246"
         d="m 192.53775,329.28792 c 4.26473,0 8.11517,-4.02103 8.11517,-9.72359 0,-4.26473 -2.38825,-6.72609 -6.01936,-6.72609 -4.2891,0 -8.11518,4.02103 -8.11518,9.72359 0,4.24036 2.38825,6.72609 6.01937,6.72609 z m 0.17059,-3.04624 c -1.65716,0 -2.58321,-1.46219 -2.58321,-3.89918 0,-3.67985 2.21766,-6.48239 4.31347,-6.48239 1.68152,0 2.60758,1.46219 2.60758,3.92355 0,3.67986 -2.21766,6.45802 -4.33784,6.45802 z" />
      <path
         id="path1024"
         style="font-style:italic;font-variant:normal;font-weight:bold;font-stretch:normal;font-family:'Source Sans Pro';-inkscape-font-specification:'Source Sans Pro Bold Italic';fill:#808080;fill-opacity:1;stroke-width:0.609246"
         d="m 201.96887,328.99548 h 3.50926 l 1.12102,-5.70255 h 1.87648 l 1.94959,5.70255 h 3.70423 l -2.43699,-6.21432 c 2.29077,-0.80421 3.99666,-2.58321 3.99666,-5.55634 0,-2.9975 -2.36388,-4.09414 -5.5076,-4.09414 h -5.04457 z m 5.21515,-8.48072 0.90169,-4.60591 h 1.58404 c 1.63279,0 2.53447,0.5605 2.53447,1.85211 0,1.65715 -1.14538,2.7538 -3.41178,2.7538 z" />
    </g>
    <path
       sodipodi:nodetypes="cc"
       id="path918"
       d="m 129.54646,293.26042 c 39.46488,-20.54847 49.05598,20.32259 85.51473,0"
       style="fill:none;stroke:#808080;stroke-width:2.19549;stroke-linecap:round;stroke-linejoin:round;stroke-miterlimit:4;stroke-dasharray:2.19549, 4.39099;stroke-dashoffset:0" />
  </g>
</svg>
